<?xml version="1.0" encoding="UTF-8" standalone="no"?>
<svg
   viewBox="2 0 114.14691 135.98799"
   height="135.98799"
   width="114.14691"
   xml:space="preserve"
   id="svg2"
   version="1.1"
   sodipodi:docname="tmp.svg"
   inkscape:version="1.2 (dc2aedaf03, 2022-05-15)"
   xmlns:inkscape="http://www.inkscape.org/namespaces/inkscape"
   xmlns:sodipodi="http://sodipodi.sourceforge.net/DTD/sodipodi-0.dtd"
   xmlns="http://www.w3.org/2000/svg"
   xmlns:svg="http://www.w3.org/2000/svg"
   xmlns:rdf="http://www.w3.org/1999/02/22-rdf-syntax-ns#"
   xmlns:cc="http://creativecommons.org/ns#"
   xmlns:dc="http://purl.org/dc/elements/1.1/"><sodipodi:namedview
     id="namedview16"
     pagecolor="#ffffff"
     bordercolor="#000000"
     borderopacity="0.25"
     inkscape:showpageshadow="2"
     inkscape:pageopacity="0.0"
     inkscape:pagecheckerboard="0"
     inkscape:deskcolor="#d1d1d1"
     showgrid="false"
     shape-rendering="auto"
     inkscape:zoom="4.1437829"
     inkscape:cx="87.84244"
     inkscape:cy="84.70521"
     inkscape:window-width="3840"
     inkscape:window-height="2066"
     inkscape:window-x="-11"
     inkscape:window-y="-11"
     inkscape:window-maximized="1"
     inkscape:current-layer="g10" /><metadata
     id="metadata8"><rdf:RDF><cc:Work
         rdf:about=""><dc:format>image/svg+xml</dc:format><dc:type
           rdf:resource="http://purl.org/dc/dcmitype/StillImage" /></cc:Work></rdf:RDF></metadata><defs
     id="defs6"><clipPath
       clipPathUnits="userSpaceOnUse"
       id="clipPath230"><rect
         style="fill:#000000;stroke-width:0.75"
         id="rect232"
         width="89.230064"
         height="123.43793"
         x="33.66489"
         y="-110.13474"
         transform="scale(1,-1)" /></clipPath><clipPath
       clipPathUnits="userSpaceOnUse"
       id="clipPath240"><rect
         style="fill:#000000;stroke-width:0.705204"
         id="rect242"
         width="85.610184"
         height="128.32478"
         x="37.103779"
         y="-117.3755"
         transform="scale(1,-1)" /></clipPath></defs><g
     transform="matrix(1.3333333,0,0,-1.3333333,-49.471704,135.988)"
     id="g10"
     clip-path="url(#clipPath240)"><g
       transform="scale(0.1)"
       id="g12"
       style="stroke-width:0.99750002;stroke-dasharray:none"><path
         id="path14"
         style="fill:#040404;fill-opacity:1;fill-rule:nonzero;stroke:none;stroke-width:0.99750002;stroke-dasharray:none"
         d="m 805.543,173.859 -5.121,3.586 C 691.641,253.527 626.688,377.57 626.688,509.281 c 0,132.278 64.984,256.821 173.824,333.188 l 5.109,3.57 39.227,-56.566 -5.067,-3.551 C 749.512,722.496 695.609,619.09 695.609,509.281 c 0,-109.238 53.86,-212.14 144.063,-275.273 l 5.07,-3.555 -39.199,-56.594" /><path
         id="path16"
         style="fill:#000000;fill-opacity:1;fill-rule:nonzero;stroke:none;stroke-width:0.99750002;stroke-dasharray:none"
         d="m 685.082,0 -5.117,3.57031 C 513.992,119.457 414.91,308.5 414.91,509.281 c 0,201.297 99.133,390.848 265.153,507.049 l 5.132,3.58 39.2,-56.621 -5.071,-3.551 C 571.863,856.516 483.832,688.129 483.832,509.281 483.832,330.988 571.824,163.09 719.215,60.1406 L 724.309,56.5859 685.082,0" /><path
         id="path18"
         style="fill:#000000;fill-opacity:1;fill-rule:nonzero;stroke:none;stroke-width:0.99750002;stroke-dasharray:none"
         d="m 925.824,347.453 -5.125,3.586 c -51.488,35.84 -82.23,95.008 -82.23,158.246 0,63.738 30.777,123.367 82.316,159.563 l 5.121,3.578 39.481,-56.942 -4.821,-3.597 c -31.23,-23.321 -49.14,-60.461 -49.14,-101.875 0,-41.602 17.883,-78.778 49.043,-101.973 l 4.828,-3.574 -39.473,-57.012" /><path
         id="path20"
         style="fill:#000000;fill-opacity:1;fill-rule:nonzero;stroke:none;stroke-width:0.99750002;stroke-dasharray:none"
         d="m 1031.59,697.625 c -14.34,0 -28.2,-1.723 -41.535,-4.723 l 35.915,-51.859 c 1.92,0.078 3.67,0.57 5.62,0.57 74.93,0 126.38,-59.769 126.38,-131.679 0,-72.657 -51.45,-131.68 -126.38,-131.68 -2,0 -3.78,0.48 -5.74,0.566 l -35.901,-51.824 c 13.401,-3 27.291,-4.726 41.641,-4.726 103.71,0 186.95,82.468 186.95,186.921 0,104.411 -82.5,188.434 -186.95,188.434" /></g></g></svg>
