<svg width="567" height="378" xmlns="http://www.w3.org/2000/svg" xmlns:xlink="http://www.w3.org/1999/xlink" xml:space="preserve" overflow="hidden"><defs><clipPath id="clip0"><rect x="0" y="0" width="567" height="378"/></clipPath><clipPath id="clip1"><rect x="63" y="14" width="484" height="317"/></clipPath></defs><g clip-path="url(#clip0)"><path d="M0 378 567 378 567 0 0 0Z" fill="#FFFFFF"/><path d="M63.6956 330.488 546.21 330.488 546.21 14.175 63.6956 14.175Z" fill="#FFFFFF"/><g><path d="M63.6956 330.488 63.6956 14.175" stroke="#B0B0B0" stroke-width="1.05" stroke-linecap="square" stroke-linejoin="round" fill="none"/></g><path d="M63.6956 330.487 63.6956 335.081" stroke="#000000" stroke-width="1.05" stroke-linejoin="round" fill="none"/><path d="M3.33703 3.63562C2.84484 3.63562 2.45766 3.50383 2.17547 3.24023 1.89438 2.97663 1.75383 2.61461 1.75383 2.15414 1.75383 1.69258 1.89438 1.33 2.17547 1.06641 2.45766 0.802812 2.84484 0.671016 3.33703 0.671016 3.82922 0.671016 4.21695 0.80336 4.50023 1.06805 4.7846 1.33383 4.9268 1.69586 4.9268 2.15414 4.9268 2.61461 4.7857 2.97663 4.50352 3.24023 4.22243 3.50383 3.8336 3.63562 3.33703 3.63562ZM2.3018 4.07531C1.85773 4.18469 1.51156 4.39141 1.26328 4.69547 1.01609 5.00062 0.8925 5.37195 0.8925 5.80945 0.8925 6.42086 1.11016 6.90429 1.54547 7.25977 1.98187 7.61524 2.57906 7.79297 3.33703 7.79297 4.09938 7.79297 4.69765 7.61524 5.13188 7.25977 5.5661 6.90429 5.7832 6.42086 5.7832 5.80945 5.7832 5.37195 5.65906 5.00062 5.41078 4.69547 5.16359 4.39141 4.81961 4.18469 4.37883 4.07531 4.87758 3.95937 5.26586 3.73188 5.54367 3.39281 5.82258 3.05484 5.96203 2.64195 5.96203 2.15414 5.96203 1.41148 5.73562 0.841641 5.28281 0.444609 4.83 0.0486719 4.18141-0.149297 3.33703-0.149297 2.49375-0.149297 1.84516 0.0486719 1.39125 0.444609 0.938437 0.841641 0.712031 1.41148 0.712031 2.15414 0.712031 2.64195 0.852031 3.05484 1.13203 3.39281 1.41312 3.73188 1.80305 3.95937 2.3018 4.07531ZM1.92281 5.71102C1.92281 5.31508 2.0464 5.00609 2.29359 4.78406 2.54187 4.56204 2.88968 4.45102 3.33703 4.45102 3.78218 4.45102 4.12999 4.56204 4.38047 4.78406 4.63203 5.00609 4.75781 5.31508 4.75781 5.71102 4.75781 6.10805 4.63203 6.41758 4.38047 6.63961 4.12999 6.86164 3.78218 6.97266 3.33703 6.97266 2.88968 6.97266 2.54187 6.86164 2.29359 6.63961 2.0464 6.41758 1.92281 6.10805 1.92281 5.71102Z" transform="matrix(1 0 0 -1 60.3553 347.654)"/><g><path d="M86.6725 330.488 86.6725 14.175" stroke="#B0B0B0" stroke-width="1.05" stroke-linecap="square" stroke-linejoin="round" fill="none"/></g><path d="M86.6725 330.487 86.6725 335.081" stroke="#000000" stroke-width="1.05" stroke-linejoin="round" fill="none"/><path d="M1.30266 0.871172 2.99414 0.871172 2.99414 6.7118 1.15336 6.34266 1.15336 7.28602 2.9843 7.65516 4.01953 7.65516 4.01953 0.871172 5.71102 0.871172 5.71102 0 1.30266 0 1.30266 0.871172Z" transform="matrix(1 0 0 -1 79.9919 347.654)"/><path d="M3.33703 6.97266C2.80437 6.97266 2.40352 6.71016 2.13445 6.18516 1.86649 5.66126 1.7325 4.87266 1.7325 3.81937 1.7325 2.77047 1.86649 1.98352 2.13445 1.45852 2.40352 0.933516 2.80437 0.671016 3.33703 0.671016 3.87406 0.671016 4.27657 0.933516 4.54453 1.45852 4.81359 1.98352 4.94812 2.77047 4.94812 3.81937 4.94812 4.87266 4.81359 5.66126 4.54453 6.18516 4.27657 6.71016 3.87406 6.97266 3.33703 6.97266ZM3.33703 7.79297C4.19562 7.79297 4.85133 7.45336 5.30414 6.77414 5.75695 6.09602 5.98336 5.11109 5.98336 3.81937 5.98336 2.53094 5.75695 1.54711 5.30414 0.867891 4.85133 0.189766 4.19562-0.149297 3.33703-0.149297 2.47953-0.149297 1.82437 0.189766 1.37156 0.867891 0.91875 1.54711 0.692344 2.53094 0.692344 3.81937 0.692344 5.11109 0.91875 6.09602 1.37156 6.77414 1.82437 7.45336 2.47953 7.79297 3.33703 7.79297Z" transform="matrix(1 0 0 -1 86.6723 347.654)"/><g><path d="M109.649 330.488 109.649 14.175" stroke="#B0B0B0" stroke-width="1.05" stroke-linecap="square" stroke-linejoin="round" fill="none"/></g><path d="M109.649 330.487 109.649 335.081" stroke="#000000" stroke-width="1.05" stroke-linejoin="round" fill="none"/><path d="M1.30266 0.871172 2.99414 0.871172 2.99414 6.7118 1.15336 6.34266 1.15336 7.28602 2.9843 7.65516 4.01953 7.65516 4.01953 0.871172 5.71102 0.871172 5.71102 0 1.30266 0 1.30266 0.871172Z" transform="matrix(1 0 0 -1 102.969 347.654)"/><path d="M2.01469 0.871172 5.62898 0.871172 5.62898 0 0.769453 0 0.769453 0.871172C1.16211 1.27805 1.69751 1.82383 2.37562 2.50852 3.05484 3.1943 3.48141 3.63672 3.65531 3.83578 3.98672 4.20766 4.21805 4.52266 4.3493 4.78078 4.48165 5.0389 4.54781 5.29266 4.54781 5.54203 4.54781 5.94891 4.40508 6.28031 4.11961 6.53625 3.83414 6.79329 3.46226 6.9218 3.00398 6.9218 2.67914 6.9218 2.33625 6.86547 1.97531 6.75281 1.61547 6.64015 1.23047 6.46898 0.820312 6.2393L0.820312 7.28602C1.23703 7.45336 1.62641 7.57969 1.98844 7.665 2.35156 7.75031 2.68352 7.79297 2.9843 7.79297 3.77726 7.79297 4.40946 7.59445 4.88086 7.19742 5.35226 6.80149 5.58797 6.27211 5.58797 5.6093 5.58797 5.2943 5.52891 4.9957 5.41078 4.71352 5.29376 4.43243 5.07937 4.10046 4.76766 3.71766 4.68234 3.61812 4.41054 3.33157 3.95227 2.85797 3.49507 2.38437 2.84922 1.72211 2.01469 0.871172Z" transform="matrix(1 0 0 -1 109.649 347.654)"/><g><path d="M132.627 330.488 132.627 14.175" stroke="#B0B0B0" stroke-width="1.05" stroke-linecap="square" stroke-linejoin="round" fill="none"/></g><path d="M132.627 330.487 132.627 335.081" stroke="#000000" stroke-width="1.05" stroke-linejoin="round" fill="none"/><path d="M1.30266 0.871172 2.99414 0.871172 2.99414 6.7118 1.15336 6.34266 1.15336 7.28602 2.9843 7.65516 4.01953 7.65516 4.01953 0.871172 5.71102 0.871172 5.71102 0 1.30266 0 1.30266 0.871172Z" transform="matrix(1 0 0 -1 125.946 347.654)"/><path d="M3.96867 6.75281 1.35352 2.66602 3.96867 2.66602 3.96867 6.75281ZM3.69633 7.65516 4.99898 7.65516 4.99898 2.66602 6.09164 2.66602 6.09164 1.80469 4.99898 1.80469 4.99898 0 3.96867 0 3.96867 1.80469 0.513516 1.80469 0.513516 2.80383 3.69633 7.65516Z" transform="matrix(1 0 0 -1 132.626 347.654)"/><g><path d="M155.603 330.488 155.603 14.175" stroke="#B0B0B0" stroke-width="1.05" stroke-linecap="square" stroke-linejoin="round" fill="none"/></g><path d="M155.603 330.487 155.603 335.081" stroke="#000000" stroke-width="1.05" stroke-linejoin="round" fill="none"/><path d="M1.30266 0.871172 2.99414 0.871172 2.99414 6.7118 1.15336 6.34266 1.15336 7.28602 2.9843 7.65516 4.01953 7.65516 4.01953 0.871172 5.71102 0.871172 5.71102 0 1.30266 0 1.30266 0.871172Z" transform="matrix(1 0 0 -1 148.923 347.654)"/><path d="M3.46664 4.23937C3.0018 4.23937 2.6332 4.08023 2.36086 3.76195 2.08961 3.44477 1.95398 3.00945 1.95398 2.45602 1.95398 1.90586 2.08961 1.47055 2.36086 1.15008 2.6332 0.830703 3.0018 0.671016 3.46664 0.671016 3.93148 0.671016 4.29954 0.830703 4.57078 1.15008 4.84203 1.47055 4.97766 1.90586 4.97766 2.45602 4.97766 3.00945 4.84203 3.44477 4.57078 3.76195 4.29954 4.08023 3.93148 4.23937 3.46664 4.23937ZM5.52234 7.48617 5.52234 6.54281C5.26203 6.66532 4.99953 6.75883 4.73484 6.82336 4.47016 6.88898 4.20766 6.9218 3.94734 6.9218 3.26374 6.9218 2.74148 6.69101 2.38055 6.22945 2.02071 5.7679 1.81507 5.07063 1.76367 4.13766 1.96493 4.43515 2.21758 4.6632 2.52164 4.8218 2.8268 4.9804 3.16203 5.05969 3.52734 5.05969 4.29626 5.05969 4.90383 4.82618 5.35008 4.35914 5.79633 3.8932 6.01945 3.25882 6.01945 2.45602 6.01945 1.66961 5.78703 1.03852 5.32219 0.562734 4.85735 0.0880469 4.23883-0.149297 3.46664-0.149297 2.5807-0.149297 1.90367 0.189766 1.43555 0.867891 0.967422 1.54711 0.733359 2.53094 0.733359 3.81937 0.733359 5.02906 1.02047 5.99374 1.59469 6.71344 2.16891 7.43313 2.93946 7.79297 3.90633 7.79297 4.16665 7.79297 4.42915 7.76726 4.69383 7.71586 4.95851 7.66446 5.23469 7.58789 5.52234 7.48617Z" transform="matrix(1 0 0 -1 155.603 347.654)"/><g><path d="M178.58 330.488 178.58 14.175" stroke="#B0B0B0" stroke-width="1.05" stroke-linecap="square" stroke-linejoin="round" fill="none"/></g><path d="M178.58 330.487 178.58 335.081" stroke="#000000" stroke-width="1.05" stroke-linejoin="round" fill="none"/><path d="M1.30266 0.871172 2.99414 0.871172 2.99414 6.7118 1.15336 6.34266 1.15336 7.28602 2.9843 7.65516 4.01953 7.65516 4.01953 0.871172 5.71102 0.871172 5.71102 0 1.30266 0 1.30266 0.871172Z" transform="matrix(1 0 0 -1 171.899 347.654)"/><path d="M3.33703 3.63562C2.84484 3.63562 2.45766 3.50383 2.17547 3.24023 1.89438 2.97663 1.75383 2.61461 1.75383 2.15414 1.75383 1.69258 1.89438 1.33 2.17547 1.06641 2.45766 0.802812 2.84484 0.671016 3.33703 0.671016 3.82922 0.671016 4.21695 0.80336 4.50023 1.06805 4.7846 1.33383 4.9268 1.69586 4.9268 2.15414 4.9268 2.61461 4.7857 2.97663 4.50352 3.24023 4.22243 3.50383 3.8336 3.63562 3.33703 3.63562ZM2.3018 4.07531C1.85773 4.18469 1.51156 4.39141 1.26328 4.69547 1.01609 5.00062 0.8925 5.37195 0.8925 5.80945 0.8925 6.42086 1.11016 6.90429 1.54547 7.25977 1.98187 7.61524 2.57906 7.79297 3.33703 7.79297 4.09938 7.79297 4.69765 7.61524 5.13188 7.25977 5.5661 6.90429 5.7832 6.42086 5.7832 5.80945 5.7832 5.37195 5.65906 5.00062 5.41078 4.69547 5.16359 4.39141 4.81961 4.18469 4.37883 4.07531 4.87758 3.95937 5.26586 3.73188 5.54367 3.39281 5.82258 3.05484 5.96203 2.64195 5.96203 2.15414 5.96203 1.41148 5.73562 0.841641 5.28281 0.444609 4.83 0.0486719 4.18141-0.149297 3.33703-0.149297 2.49375-0.149297 1.84516 0.0486719 1.39125 0.444609 0.938437 0.841641 0.712031 1.41148 0.712031 2.15414 0.712031 2.64195 0.852031 3.05484 1.13203 3.39281 1.41312 3.73188 1.80305 3.95937 2.3018 4.07531ZM1.92281 5.71102C1.92281 5.31508 2.0464 5.00609 2.29359 4.78406 2.54187 4.56204 2.88968 4.45102 3.33703 4.45102 3.78218 4.45102 4.12999 4.56204 4.38047 4.78406 4.63203 5.00609 4.75781 5.31508 4.75781 5.71102 4.75781 6.10805 4.63203 6.41758 4.38047 6.63961 4.12999 6.86164 3.78218 6.97266 3.33703 6.97266 2.88968 6.97266 2.54187 6.86164 2.29359 6.63961 2.0464 6.41758 1.92281 6.10805 1.92281 5.71102Z" transform="matrix(1 0 0 -1 178.58 347.654)"/><g><path d="M201.557 330.488 201.557 14.175" stroke="#B0B0B0" stroke-width="1.05" stroke-linecap="square" stroke-linejoin="round" fill="none"/></g><path d="M201.557 330.487 201.557 335.081" stroke="#000000" stroke-width="1.05" stroke-linejoin="round" fill="none"/><path d="M2.01469 0.871172 5.62898 0.871172 5.62898 0 0.769453 0 0.769453 0.871172C1.16211 1.27805 1.69751 1.82383 2.37562 2.50852 3.05484 3.1943 3.48141 3.63672 3.65531 3.83578 3.98672 4.20766 4.21805 4.52266 4.3493 4.78078 4.48165 5.0389 4.54781 5.29266 4.54781 5.54203 4.54781 5.94891 4.40508 6.28031 4.11961 6.53625 3.83414 6.79329 3.46226 6.9218 3.00398 6.9218 2.67914 6.9218 2.33625 6.86547 1.97531 6.75281 1.61547 6.64015 1.23047 6.46898 0.820312 6.2393L0.820312 7.28602C1.23703 7.45336 1.62641 7.57969 1.98844 7.665 2.35156 7.75031 2.68352 7.79297 2.9843 7.79297 3.77726 7.79297 4.40946 7.59445 4.88086 7.19742 5.35226 6.80149 5.58797 6.27211 5.58797 5.6093 5.58797 5.2943 5.52891 4.9957 5.41078 4.71352 5.29376 4.43243 5.07937 4.10046 4.76766 3.71766 4.68234 3.61812 4.41054 3.33157 3.95227 2.85797 3.49507 2.38437 2.84922 1.72211 2.01469 0.871172Z" transform="matrix(1 0 0 -1 194.876 347.654)"/><path d="M3.33703 6.97266C2.80437 6.97266 2.40352 6.71016 2.13445 6.18516 1.86649 5.66126 1.7325 4.87266 1.7325 3.81937 1.7325 2.77047 1.86649 1.98352 2.13445 1.45852 2.40352 0.933516 2.80437 0.671016 3.33703 0.671016 3.87406 0.671016 4.27657 0.933516 4.54453 1.45852 4.81359 1.98352 4.94812 2.77047 4.94812 3.81937 4.94812 4.87266 4.81359 5.66126 4.54453 6.18516 4.27657 6.71016 3.87406 6.97266 3.33703 6.97266ZM3.33703 7.79297C4.19562 7.79297 4.85133 7.45336 5.30414 6.77414 5.75695 6.09602 5.98336 5.11109 5.98336 3.81937 5.98336 2.53094 5.75695 1.54711 5.30414 0.867891 4.85133 0.189766 4.19562-0.149297 3.33703-0.149297 2.47953-0.149297 1.82437 0.189766 1.37156 0.867891 0.91875 1.54711 0.692344 2.53094 0.692344 3.81937 0.692344 5.11109 0.91875 6.09602 1.37156 6.77414 1.82437 7.45336 2.47953 7.79297 3.33703 7.79297Z" transform="matrix(1 0 0 -1 201.556 347.654)"/><g><path d="M224.533 330.488 224.533 14.175" stroke="#B0B0B0" stroke-width="1.05" stroke-linecap="square" stroke-linejoin="round" fill="none"/></g><path d="M224.533 330.487 224.533 335.081" stroke="#000000" stroke-width="1.05" stroke-linejoin="round" fill="none"/><path d="M2.01469 0.871172 5.62898 0.871172 5.62898 0 0.769453 0 0.769453 0.871172C1.16211 1.27805 1.69751 1.82383 2.37562 2.50852 3.05484 3.1943 3.48141 3.63672 3.65531 3.83578 3.98672 4.20766 4.21805 4.52266 4.3493 4.78078 4.48165 5.0389 4.54781 5.29266 4.54781 5.54203 4.54781 5.94891 4.40508 6.28031 4.11961 6.53625 3.83414 6.79329 3.46226 6.9218 3.00398 6.9218 2.67914 6.9218 2.33625 6.86547 1.97531 6.75281 1.61547 6.64015 1.23047 6.46898 0.820312 6.2393L0.820312 7.28602C1.23703 7.45336 1.62641 7.57969 1.98844 7.665 2.35156 7.75031 2.68352 7.79297 2.9843 7.79297 3.77726 7.79297 4.40946 7.59445 4.88086 7.19742 5.35226 6.80149 5.58797 6.27211 5.58797 5.6093 5.58797 5.2943 5.52891 4.9957 5.41078 4.71352 5.29376 4.43243 5.07937 4.10046 4.76766 3.71766 4.68234 3.61812 4.41054 3.33157 3.95227 2.85797 3.49507 2.38437 2.84922 1.72211 2.01469 0.871172Z" transform="matrix(1 0 0 -1 217.853 347.654)"/><path d="M2.01469 0.871172 5.62898 0.871172 5.62898 0 0.769453 0 0.769453 0.871172C1.16211 1.27805 1.69751 1.82383 2.37562 2.50852 3.05484 3.1943 3.48141 3.63672 3.65531 3.83578 3.98672 4.20766 4.21805 4.52266 4.3493 4.78078 4.48165 5.0389 4.54781 5.29266 4.54781 5.54203 4.54781 5.94891 4.40508 6.28031 4.11961 6.53625 3.83414 6.79329 3.46226 6.9218 3.00398 6.9218 2.67914 6.9218 2.33625 6.86547 1.97531 6.75281 1.61547 6.64015 1.23047 6.46898 0.820312 6.2393L0.820312 7.28602C1.23703 7.45336 1.62641 7.57969 1.98844 7.665 2.35156 7.75031 2.68352 7.79297 2.9843 7.79297 3.77726 7.79297 4.40946 7.59445 4.88086 7.19742 5.35226 6.80149 5.58797 6.27211 5.58797 5.6093 5.58797 5.2943 5.52891 4.9957 5.41078 4.71352 5.29376 4.43243 5.07937 4.10046 4.76766 3.71766 4.68234 3.61812 4.41054 3.33157 3.95227 2.85797 3.49507 2.38437 2.84922 1.72211 2.01469 0.871172Z" transform="matrix(1 0 0 -1 224.533 347.654)"/><g><path d="M247.511 330.488 247.511 14.175" stroke="#B0B0B0" stroke-width="1.05" stroke-linecap="square" stroke-linejoin="round" fill="none"/></g><path d="M247.511 330.487 247.511 335.081" stroke="#000000" stroke-width="1.05" stroke-linejoin="round" fill="none"/><path d="M2.01469 0.871172 5.62898 0.871172 5.62898 0 0.769453 0 0.769453 0.871172C1.16211 1.27805 1.69751 1.82383 2.37562 2.50852 3.05484 3.1943 3.48141 3.63672 3.65531 3.83578 3.98672 4.20766 4.21805 4.52266 4.3493 4.78078 4.48165 5.0389 4.54781 5.29266 4.54781 5.54203 4.54781 5.94891 4.40508 6.28031 4.11961 6.53625 3.83414 6.79329 3.46226 6.9218 3.00398 6.9218 2.67914 6.9218 2.33625 6.86547 1.97531 6.75281 1.61547 6.64015 1.23047 6.46898 0.820312 6.2393L0.820312 7.28602C1.23703 7.45336 1.62641 7.57969 1.98844 7.665 2.35156 7.75031 2.68352 7.79297 2.9843 7.79297 3.77726 7.79297 4.40946 7.59445 4.88086 7.19742 5.35226 6.80149 5.58797 6.27211 5.58797 5.6093 5.58797 5.2943 5.52891 4.9957 5.41078 4.71352 5.29376 4.43243 5.07937 4.10046 4.76766 3.71766 4.68234 3.61812 4.41054 3.33157 3.95227 2.85797 3.49507 2.38437 2.84922 1.72211 2.01469 0.871172Z" transform="matrix(1 0 0 -1 240.831 347.654)"/><path d="M3.96867 6.75281 1.35352 2.66602 3.96867 2.66602 3.96867 6.75281ZM3.69633 7.65516 4.99898 7.65516 4.99898 2.66602 6.09164 2.66602 6.09164 1.80469 4.99898 1.80469 4.99898 0 3.96867 0 3.96867 1.80469 0.513516 1.80469 0.513516 2.80383 3.69633 7.65516Z" transform="matrix(1 0 0 -1 247.511 347.654)"/><g><path d="M270.488 330.488 270.488 14.175" stroke="#B0B0B0" stroke-width="1.05" stroke-linecap="square" stroke-linejoin="round" fill="none"/></g><path d="M270.488 330.487 270.488 335.081" stroke="#000000" stroke-width="1.05" stroke-linejoin="round" fill="none"/><path d="M2.01469 0.871172 5.62898 0.871172 5.62898 0 0.769453 0 0.769453 0.871172C1.16211 1.27805 1.69751 1.82383 2.37562 2.50852 3.05484 3.1943 3.48141 3.63672 3.65531 3.83578 3.98672 4.20766 4.21805 4.52266 4.3493 4.78078 4.48165 5.0389 4.54781 5.29266 4.54781 5.54203 4.54781 5.94891 4.40508 6.28031 4.11961 6.53625 3.83414 6.79329 3.46226 6.9218 3.00398 6.9218 2.67914 6.9218 2.33625 6.86547 1.97531 6.75281 1.61547 6.64015 1.23047 6.46898 0.820312 6.2393L0.820312 7.28602C1.23703 7.45336 1.62641 7.57969 1.98844 7.665 2.35156 7.75031 2.68352 7.79297 2.9843 7.79297 3.77726 7.79297 4.40946 7.59445 4.88086 7.19742 5.35226 6.80149 5.58797 6.27211 5.58797 5.6093 5.58797 5.2943 5.52891 4.9957 5.41078 4.71352 5.29376 4.43243 5.07937 4.10046 4.76766 3.71766 4.68234 3.61812 4.41054 3.33157 3.95227 2.85797 3.49507 2.38437 2.84922 1.72211 2.01469 0.871172Z" transform="matrix(1 0 0 -1 263.807 347.654)"/><path d="M3.46664 4.23937C3.0018 4.23937 2.6332 4.08023 2.36086 3.76195 2.08961 3.44477 1.95398 3.00945 1.95398 2.45602 1.95398 1.90586 2.08961 1.47055 2.36086 1.15008 2.6332 0.830703 3.0018 0.671016 3.46664 0.671016 3.93148 0.671016 4.29954 0.830703 4.57078 1.15008 4.84203 1.47055 4.97766 1.90586 4.97766 2.45602 4.97766 3.00945 4.84203 3.44477 4.57078 3.76195 4.29954 4.08023 3.93148 4.23937 3.46664 4.23937ZM5.52234 7.48617 5.52234 6.54281C5.26203 6.66532 4.99953 6.75883 4.73484 6.82336 4.47016 6.88898 4.20766 6.9218 3.94734 6.9218 3.26374 6.9218 2.74148 6.69101 2.38055 6.22945 2.02071 5.7679 1.81507 5.07063 1.76367 4.13766 1.96493 4.43515 2.21758 4.6632 2.52164 4.8218 2.8268 4.9804 3.16203 5.05969 3.52734 5.05969 4.29626 5.05969 4.90383 4.82618 5.35008 4.35914 5.79633 3.8932 6.01945 3.25882 6.01945 2.45602 6.01945 1.66961 5.78703 1.03852 5.32219 0.562734 4.85735 0.0880469 4.23883-0.149297 3.46664-0.149297 2.5807-0.149297 1.90367 0.189766 1.43555 0.867891 0.967422 1.54711 0.733359 2.53094 0.733359 3.81937 0.733359 5.02906 1.02047 5.99374 1.59469 6.71344 2.16891 7.43313 2.93946 7.79297 3.90633 7.79297 4.16665 7.79297 4.42915 7.76726 4.69383 7.71586 4.95851 7.66446 5.23469 7.58789 5.52234 7.48617Z" transform="matrix(1 0 0 -1 270.488 347.654)"/><g><path d="M293.465 330.488 293.465 14.175" stroke="#B0B0B0" stroke-width="1.05" stroke-linecap="square" stroke-linejoin="round" fill="none"/></g><path d="M293.465 330.487 293.465 335.081" stroke="#000000" stroke-width="1.05" stroke-linejoin="round" fill="none"/><path d="M2.01469 0.871172 5.62898 0.871172 5.62898 0 0.769453 0 0.769453 0.871172C1.16211 1.27805 1.69751 1.82383 2.37562 2.50852 3.05484 3.1943 3.48141 3.63672 3.65531 3.83578 3.98672 4.20766 4.21805 4.52266 4.3493 4.78078 4.48165 5.0389 4.54781 5.29266 4.54781 5.54203 4.54781 5.94891 4.40508 6.28031 4.11961 6.53625 3.83414 6.79329 3.46226 6.9218 3.00398 6.9218 2.67914 6.9218 2.33625 6.86547 1.97531 6.75281 1.61547 6.64015 1.23047 6.46898 0.820312 6.2393L0.820312 7.28602C1.23703 7.45336 1.62641 7.57969 1.98844 7.665 2.35156 7.75031 2.68352 7.79297 2.9843 7.79297 3.77726 7.79297 4.40946 7.59445 4.88086 7.19742 5.35226 6.80149 5.58797 6.27211 5.58797 5.6093 5.58797 5.2943 5.52891 4.9957 5.41078 4.71352 5.29376 4.43243 5.07937 4.10046 4.76766 3.71766 4.68234 3.61812 4.41054 3.33157 3.95227 2.85797 3.49507 2.38437 2.84922 1.72211 2.01469 0.871172Z" transform="matrix(1 0 0 -1 286.784 347.654)"/><path d="M3.33703 3.63562C2.84484 3.63562 2.45766 3.50383 2.17547 3.24023 1.89438 2.97663 1.75383 2.61461 1.75383 2.15414 1.75383 1.69258 1.89438 1.33 2.17547 1.06641 2.45766 0.802812 2.84484 0.671016 3.33703 0.671016 3.82922 0.671016 4.21695 0.80336 4.50023 1.06805 4.7846 1.33383 4.9268 1.69586 4.9268 2.15414 4.9268 2.61461 4.7857 2.97663 4.50352 3.24023 4.22243 3.50383 3.8336 3.63562 3.33703 3.63562ZM2.3018 4.07531C1.85773 4.18469 1.51156 4.39141 1.26328 4.69547 1.01609 5.00062 0.8925 5.37195 0.8925 5.80945 0.8925 6.42086 1.11016 6.90429 1.54547 7.25977 1.98187 7.61524 2.57906 7.79297 3.33703 7.79297 4.09938 7.79297 4.69765 7.61524 5.13188 7.25977 5.5661 6.90429 5.7832 6.42086 5.7832 5.80945 5.7832 5.37195 5.65906 5.00062 5.41078 4.69547 5.16359 4.39141 4.81961 4.18469 4.37883 4.07531 4.87758 3.95937 5.26586 3.73188 5.54367 3.39281 5.82258 3.05484 5.96203 2.64195 5.96203 2.15414 5.96203 1.41148 5.73562 0.841641 5.28281 0.444609 4.83 0.0486719 4.18141-0.149297 3.33703-0.149297 2.49375-0.149297 1.84516 0.0486719 1.39125 0.444609 0.938437 0.841641 0.712031 1.41148 0.712031 2.15414 0.712031 2.64195 0.852031 3.05484 1.13203 3.39281 1.41312 3.73188 1.80305 3.95937 2.3018 4.07531ZM1.92281 5.71102C1.92281 5.31508 2.0464 5.00609 2.29359 4.78406 2.54187 4.56204 2.88968 4.45102 3.33703 4.45102 3.78218 4.45102 4.12999 4.56204 4.38047 4.78406 4.63203 5.00609 4.75781 5.31508 4.75781 5.71102 4.75781 6.10805 4.63203 6.41758 4.38047 6.63961 4.12999 6.86164 3.78218 6.97266 3.33703 6.97266 2.88968 6.97266 2.54187 6.86164 2.29359 6.63961 2.0464 6.41758 1.92281 6.10805 1.92281 5.71102Z" transform="matrix(1 0 0 -1 293.464 347.654)"/><g><path d="M316.441 330.488 316.441 14.175" stroke="#B0B0B0" stroke-width="1.05" stroke-linecap="square" stroke-linejoin="round" fill="none"/></g><path d="M316.441 330.487 316.441 335.081" stroke="#000000" stroke-width="1.05" stroke-linejoin="round" fill="none"/><path d="M4.2607 4.12781C4.75617 4.02171 5.14282 3.80079 5.42062 3.465 5.69953 3.13031 5.83898 2.71687 5.83898 2.22469 5.83898 1.47 5.57922 0.885391 5.05969 0.470859 4.54015 0.0574219 3.80187-0.149297 2.84484-0.149297 2.52438-0.149297 2.19406-0.117578 1.85391-0.0541406 1.51375 0.00929688 1.16266 0.104453 0.800625 0.231328L0.800625 1.23047C1.08719 1.06313 1.40109 0.936797 1.74234 0.851484 2.08469 0.766172 2.44235 0.723516 2.81531 0.723516 3.4639 0.723516 3.95829 0.851484 4.29844 1.10742 4.63859 1.36336 4.80867 1.73578 4.80867 2.22469 4.80867 2.6764 4.65063 3.02913 4.33453 3.28289 4.01843 3.53773 3.57874 3.66516 3.01547 3.66516L2.12297 3.66516 2.12297 4.51664 3.05648 4.51664C3.56508 4.51664 3.95445 4.61836 4.22461 4.8218 4.49477 5.02523 4.62984 5.31836 4.62984 5.70117 4.62984 6.09382 4.49039 6.39516 4.21148 6.60516 3.93368 6.81626 3.53501 6.9218 3.01547 6.9218 2.7311 6.9218 2.42648 6.89062 2.10164 6.82828 1.7768 6.76704 1.41969 6.67188 1.03031 6.54281L1.03031 7.46484C1.42406 7.57422 1.79266 7.65626 2.13609 7.71094 2.47953 7.76562 2.80329 7.79297 3.10734 7.79297 3.89374 7.79297 4.51554 7.61414 4.97273 7.25648 5.43101 6.89993 5.66016 6.41758 5.66016 5.80945 5.66016 5.38507 5.53875 5.02688 5.29594 4.73484 5.05312 4.44281 4.70805 4.24047 4.2607 4.12781Z" transform="matrix(1 0 0 -1 309.76 347.654)"/><path d="M3.33703 6.97266C2.80437 6.97266 2.40352 6.71016 2.13445 6.18516 1.86649 5.66126 1.7325 4.87266 1.7325 3.81937 1.7325 2.77047 1.86649 1.98352 2.13445 1.45852 2.40352 0.933516 2.80437 0.671016 3.33703 0.671016 3.87406 0.671016 4.27657 0.933516 4.54453 1.45852 4.81359 1.98352 4.94812 2.77047 4.94812 3.81937 4.94812 4.87266 4.81359 5.66126 4.54453 6.18516 4.27657 6.71016 3.87406 6.97266 3.33703 6.97266ZM3.33703 7.79297C4.19562 7.79297 4.85133 7.45336 5.30414 6.77414 5.75695 6.09602 5.98336 5.11109 5.98336 3.81937 5.98336 2.53094 5.75695 1.54711 5.30414 0.867891 4.85133 0.189766 4.19562-0.149297 3.33703-0.149297 2.47953-0.149297 1.82437 0.189766 1.37156 0.867891 0.91875 1.54711 0.692344 2.53094 0.692344 3.81937 0.692344 5.11109 0.91875 6.09602 1.37156 6.77414 1.82437 7.45336 2.47953 7.79297 3.33703 7.79297Z" transform="matrix(1 0 0 -1 316.441 347.654)"/><g><path d="M339.418 330.488 339.418 14.175" stroke="#B0B0B0" stroke-width="1.05" stroke-linecap="square" stroke-linejoin="round" fill="none"/></g><path d="M339.418 330.487 339.418 335.081" stroke="#000000" stroke-width="1.05" stroke-linejoin="round" fill="none"/><path d="M4.2607 4.12781C4.75617 4.02171 5.14282 3.80079 5.42062 3.465 5.69953 3.13031 5.83898 2.71687 5.83898 2.22469 5.83898 1.47 5.57922 0.885391 5.05969 0.470859 4.54015 0.0574219 3.80187-0.149297 2.84484-0.149297 2.52438-0.149297 2.19406-0.117578 1.85391-0.0541406 1.51375 0.00929688 1.16266 0.104453 0.800625 0.231328L0.800625 1.23047C1.08719 1.06313 1.40109 0.936797 1.74234 0.851484 2.08469 0.766172 2.44235 0.723516 2.81531 0.723516 3.4639 0.723516 3.95829 0.851484 4.29844 1.10742 4.63859 1.36336 4.80867 1.73578 4.80867 2.22469 4.80867 2.6764 4.65063 3.02913 4.33453 3.28289 4.01843 3.53773 3.57874 3.66516 3.01547 3.66516L2.12297 3.66516 2.12297 4.51664 3.05648 4.51664C3.56508 4.51664 3.95445 4.61836 4.22461 4.8218 4.49477 5.02523 4.62984 5.31836 4.62984 5.70117 4.62984 6.09382 4.49039 6.39516 4.21148 6.60516 3.93368 6.81626 3.53501 6.9218 3.01547 6.9218 2.7311 6.9218 2.42648 6.89062 2.10164 6.82828 1.7768 6.76704 1.41969 6.67188 1.03031 6.54281L1.03031 7.46484C1.42406 7.57422 1.79266 7.65626 2.13609 7.71094 2.47953 7.76562 2.80329 7.79297 3.10734 7.79297 3.89374 7.79297 4.51554 7.61414 4.97273 7.25648 5.43101 6.89993 5.66016 6.41758 5.66016 5.80945 5.66016 5.38507 5.53875 5.02688 5.29594 4.73484 5.05312 4.44281 4.70805 4.24047 4.2607 4.12781Z" transform="matrix(1 0 0 -1 332.737 347.654)"/><path d="M2.01469 0.871172 5.62898 0.871172 5.62898 0 0.769453 0 0.769453 0.871172C1.16211 1.27805 1.69751 1.82383 2.37562 2.50852 3.05484 3.1943 3.48141 3.63672 3.65531 3.83578 3.98672 4.20766 4.21805 4.52266 4.3493 4.78078 4.48165 5.0389 4.54781 5.29266 4.54781 5.54203 4.54781 5.94891 4.40508 6.28031 4.11961 6.53625 3.83414 6.79329 3.46226 6.9218 3.00398 6.9218 2.67914 6.9218 2.33625 6.86547 1.97531 6.75281 1.61547 6.64015 1.23047 6.46898 0.820312 6.2393L0.820312 7.28602C1.23703 7.45336 1.62641 7.57969 1.98844 7.665 2.35156 7.75031 2.68352 7.79297 2.9843 7.79297 3.77726 7.79297 4.40946 7.59445 4.88086 7.19742 5.35226 6.80149 5.58797 6.27211 5.58797 5.6093 5.58797 5.2943 5.52891 4.9957 5.41078 4.71352 5.29376 4.43243 5.07937 4.10046 4.76766 3.71766 4.68234 3.61812 4.41054 3.33157 3.95227 2.85797 3.49507 2.38437 2.84922 1.72211 2.01469 0.871172Z" transform="matrix(1 0 0 -1 339.418 347.654)"/><g><path d="M362.394 330.488 362.394 14.175" stroke="#B0B0B0" stroke-width="1.05" stroke-linecap="square" stroke-linejoin="round" fill="none"/></g><path d="M362.394 330.487 362.394 335.081" stroke="#000000" stroke-width="1.05" stroke-linejoin="round" fill="none"/><path d="M4.2607 4.12781C4.75617 4.02171 5.14282 3.80079 5.42062 3.465 5.69953 3.13031 5.83898 2.71687 5.83898 2.22469 5.83898 1.47 5.57922 0.885391 5.05969 0.470859 4.54015 0.0574219 3.80187-0.149297 2.84484-0.149297 2.52438-0.149297 2.19406-0.117578 1.85391-0.0541406 1.51375 0.00929688 1.16266 0.104453 0.800625 0.231328L0.800625 1.23047C1.08719 1.06313 1.40109 0.936797 1.74234 0.851484 2.08469 0.766172 2.44235 0.723516 2.81531 0.723516 3.4639 0.723516 3.95829 0.851484 4.29844 1.10742 4.63859 1.36336 4.80867 1.73578 4.80867 2.22469 4.80867 2.6764 4.65063 3.02913 4.33453 3.28289 4.01843 3.53773 3.57874 3.66516 3.01547 3.66516L2.12297 3.66516 2.12297 4.51664 3.05648 4.51664C3.56508 4.51664 3.95445 4.61836 4.22461 4.8218 4.49477 5.02523 4.62984 5.31836 4.62984 5.70117 4.62984 6.09382 4.49039 6.39516 4.21148 6.60516 3.93368 6.81626 3.53501 6.9218 3.01547 6.9218 2.7311 6.9218 2.42648 6.89062 2.10164 6.82828 1.7768 6.76704 1.41969 6.67188 1.03031 6.54281L1.03031 7.46484C1.42406 7.57422 1.79266 7.65626 2.13609 7.71094 2.47953 7.76562 2.80329 7.79297 3.10734 7.79297 3.89374 7.79297 4.51554 7.61414 4.97273 7.25648 5.43101 6.89993 5.66016 6.41758 5.66016 5.80945 5.66016 5.38507 5.53875 5.02688 5.29594 4.73484 5.05312 4.44281 4.70805 4.24047 4.2607 4.12781Z" transform="matrix(1 0 0 -1 355.714 347.654)"/><path d="M3.96867 6.75281 1.35352 2.66602 3.96867 2.66602 3.96867 6.75281ZM3.69633 7.65516 4.99898 7.65516 4.99898 2.66602 6.09164 2.66602 6.09164 1.80469 4.99898 1.80469 4.99898 0 3.96867 0 3.96867 1.80469 0.513516 1.80469 0.513516 2.80383 3.69633 7.65516Z" transform="matrix(1 0 0 -1 362.394 347.654)"/><g><path d="M385.372 330.488 385.372 14.175" stroke="#B0B0B0" stroke-width="1.05" stroke-linecap="square" stroke-linejoin="round" fill="none"/></g><path d="M385.372 330.487 385.372 335.081" stroke="#000000" stroke-width="1.05" stroke-linejoin="round" fill="none"/><path d="M4.2607 4.12781C4.75617 4.02171 5.14282 3.80079 5.42062 3.465 5.69953 3.13031 5.83898 2.71687 5.83898 2.22469 5.83898 1.47 5.57922 0.885391 5.05969 0.470859 4.54015 0.0574219 3.80187-0.149297 2.84484-0.149297 2.52438-0.149297 2.19406-0.117578 1.85391-0.0541406 1.51375 0.00929688 1.16266 0.104453 0.800625 0.231328L0.800625 1.23047C1.08719 1.06313 1.40109 0.936797 1.74234 0.851484 2.08469 0.766172 2.44235 0.723516 2.81531 0.723516 3.4639 0.723516 3.95829 0.851484 4.29844 1.10742 4.63859 1.36336 4.80867 1.73578 4.80867 2.22469 4.80867 2.6764 4.65063 3.02913 4.33453 3.28289 4.01843 3.53773 3.57874 3.66516 3.01547 3.66516L2.12297 3.66516 2.12297 4.51664 3.05648 4.51664C3.56508 4.51664 3.95445 4.61836 4.22461 4.8218 4.49477 5.02523 4.62984 5.31836 4.62984 5.70117 4.62984 6.09382 4.49039 6.39516 4.21148 6.60516 3.93368 6.81626 3.53501 6.9218 3.01547 6.9218 2.7311 6.9218 2.42648 6.89062 2.10164 6.82828 1.7768 6.76704 1.41969 6.67188 1.03031 6.54281L1.03031 7.46484C1.42406 7.57422 1.79266 7.65626 2.13609 7.71094 2.47953 7.76562 2.80329 7.79297 3.10734 7.79297 3.89374 7.79297 4.51554 7.61414 4.97273 7.25648 5.43101 6.89993 5.66016 6.41758 5.66016 5.80945 5.66016 5.38507 5.53875 5.02688 5.29594 4.73484 5.05312 4.44281 4.70805 4.24047 4.2607 4.12781Z" transform="matrix(1 0 0 -1 378.692 347.654)"/><path d="M3.46664 4.23937C3.0018 4.23937 2.6332 4.08023 2.36086 3.76195 2.08961 3.44477 1.95398 3.00945 1.95398 2.45602 1.95398 1.90586 2.08961 1.47055 2.36086 1.15008 2.6332 0.830703 3.0018 0.671016 3.46664 0.671016 3.93148 0.671016 4.29954 0.830703 4.57078 1.15008 4.84203 1.47055 4.97766 1.90586 4.97766 2.45602 4.97766 3.00945 4.84203 3.44477 4.57078 3.76195 4.29954 4.08023 3.93148 4.23937 3.46664 4.23937ZM5.52234 7.48617 5.52234 6.54281C5.26203 6.66532 4.99953 6.75883 4.73484 6.82336 4.47016 6.88898 4.20766 6.9218 3.94734 6.9218 3.26374 6.9218 2.74148 6.69101 2.38055 6.22945 2.02071 5.7679 1.81507 5.07063 1.76367 4.13766 1.96493 4.43515 2.21758 4.6632 2.52164 4.8218 2.8268 4.9804 3.16203 5.05969 3.52734 5.05969 4.29626 5.05969 4.90383 4.82618 5.35008 4.35914 5.79633 3.8932 6.01945 3.25882 6.01945 2.45602 6.01945 1.66961 5.78703 1.03852 5.32219 0.562734 4.85735 0.0880469 4.23883-0.149297 3.46664-0.149297 2.5807-0.149297 1.90367 0.189766 1.43555 0.867891 0.967422 1.54711 0.733359 2.53094 0.733359 3.81937 0.733359 5.02906 1.02047 5.99374 1.59469 6.71344 2.16891 7.43313 2.93946 7.79297 3.90633 7.79297 4.16665 7.79297 4.42915 7.76726 4.69383 7.71586 4.95851 7.66446 5.23469 7.58789 5.52234 7.48617Z" transform="matrix(1 0 0 -1 385.372 347.654)"/><g><path d="M408.349 330.488 408.349 14.175" stroke="#B0B0B0" stroke-width="1.05" stroke-linecap="square" stroke-linejoin="round" fill="none"/></g><path d="M408.349 330.487 408.349 335.081" stroke="#000000" stroke-width="1.05" stroke-linejoin="round" fill="none"/><path d="M4.2607 4.12781C4.75617 4.02171 5.14282 3.80079 5.42062 3.465 5.69953 3.13031 5.83898 2.71687 5.83898 2.22469 5.83898 1.47 5.57922 0.885391 5.05969 0.470859 4.54015 0.0574219 3.80187-0.149297 2.84484-0.149297 2.52438-0.149297 2.19406-0.117578 1.85391-0.0541406 1.51375 0.00929688 1.16266 0.104453 0.800625 0.231328L0.800625 1.23047C1.08719 1.06313 1.40109 0.936797 1.74234 0.851484 2.08469 0.766172 2.44235 0.723516 2.81531 0.723516 3.4639 0.723516 3.95829 0.851484 4.29844 1.10742 4.63859 1.36336 4.80867 1.73578 4.80867 2.22469 4.80867 2.6764 4.65063 3.02913 4.33453 3.28289 4.01843 3.53773 3.57874 3.66516 3.01547 3.66516L2.12297 3.66516 2.12297 4.51664 3.05648 4.51664C3.56508 4.51664 3.95445 4.61836 4.22461 4.8218 4.49477 5.02523 4.62984 5.31836 4.62984 5.70117 4.62984 6.09382 4.49039 6.39516 4.21148 6.60516 3.93368 6.81626 3.53501 6.9218 3.01547 6.9218 2.7311 6.9218 2.42648 6.89062 2.10164 6.82828 1.7768 6.76704 1.41969 6.67188 1.03031 6.54281L1.03031 7.46484C1.42406 7.57422 1.79266 7.65626 2.13609 7.71094 2.47953 7.76562 2.80329 7.79297 3.10734 7.79297 3.89374 7.79297 4.51554 7.61414 4.97273 7.25648 5.43101 6.89993 5.66016 6.41758 5.66016 5.80945 5.66016 5.38507 5.53875 5.02688 5.29594 4.73484 5.05312 4.44281 4.70805 4.24047 4.2607 4.12781Z" transform="matrix(1 0 0 -1 401.668 347.654)"/><path d="M3.33703 3.63562C2.84484 3.63562 2.45766 3.50383 2.17547 3.24023 1.89438 2.97663 1.75383 2.61461 1.75383 2.15414 1.75383 1.69258 1.89438 1.33 2.17547 1.06641 2.45766 0.802812 2.84484 0.671016 3.33703 0.671016 3.82922 0.671016 4.21695 0.80336 4.50023 1.06805 4.7846 1.33383 4.9268 1.69586 4.9268 2.15414 4.9268 2.61461 4.7857 2.97663 4.50352 3.24023 4.22243 3.50383 3.8336 3.63562 3.33703 3.63562ZM2.3018 4.07531C1.85773 4.18469 1.51156 4.39141 1.26328 4.69547 1.01609 5.00062 0.8925 5.37195 0.8925 5.80945 0.8925 6.42086 1.11016 6.90429 1.54547 7.25977 1.98187 7.61524 2.57906 7.79297 3.33703 7.79297 4.09938 7.79297 4.69765 7.61524 5.13188 7.25977 5.5661 6.90429 5.7832 6.42086 5.7832 5.80945 5.7832 5.37195 5.65906 5.00062 5.41078 4.69547 5.16359 4.39141 4.81961 4.18469 4.37883 4.07531 4.87758 3.95937 5.26586 3.73188 5.54367 3.39281 5.82258 3.05484 5.96203 2.64195 5.96203 2.15414 5.96203 1.41148 5.73562 0.841641 5.28281 0.444609 4.83 0.0486719 4.18141-0.149297 3.33703-0.149297 2.49375-0.149297 1.84516 0.0486719 1.39125 0.444609 0.938437 0.841641 0.712031 1.41148 0.712031 2.15414 0.712031 2.64195 0.852031 3.05484 1.13203 3.39281 1.41312 3.73188 1.80305 3.95937 2.3018 4.07531ZM1.92281 5.71102C1.92281 5.31508 2.0464 5.00609 2.29359 4.78406 2.54187 4.56204 2.88968 4.45102 3.33703 4.45102 3.78218 4.45102 4.12999 4.56204 4.38047 4.78406 4.63203 5.00609 4.75781 5.31508 4.75781 5.71102 4.75781 6.10805 4.63203 6.41758 4.38047 6.63961 4.12999 6.86164 3.78218 6.97266 3.33703 6.97266 2.88968 6.97266 2.54187 6.86164 2.29359 6.63961 2.0464 6.41758 1.92281 6.10805 1.92281 5.71102Z" transform="matrix(1 0 0 -1 408.349 347.654)"/><g><path d="M431.326 330.488 431.326 14.175" stroke="#B0B0B0" stroke-width="1.05" stroke-linecap="square" stroke-linejoin="round" fill="none"/></g><path d="M431.326 330.487 431.326 335.081" stroke="#000000" stroke-width="1.05" stroke-linejoin="round" fill="none"/><path d="M3.96867 6.75281 1.35352 2.66602 3.96867 2.66602 3.96867 6.75281ZM3.69633 7.65516 4.99898 7.65516 4.99898 2.66602 6.09164 2.66602 6.09164 1.80469 4.99898 1.80469 4.99898 0 3.96867 0 3.96867 1.80469 0.513516 1.80469 0.513516 2.80383 3.69633 7.65516Z" transform="matrix(1 0 0 -1 424.645 347.654)"/><path d="M3.33703 6.97266C2.80437 6.97266 2.40352 6.71016 2.13445 6.18516 1.86649 5.66126 1.7325 4.87266 1.7325 3.81937 1.7325 2.77047 1.86649 1.98352 2.13445 1.45852 2.40352 0.933516 2.80437 0.671016 3.33703 0.671016 3.87406 0.671016 4.27657 0.933516 4.54453 1.45852 4.81359 1.98352 4.94812 2.77047 4.94812 3.81937 4.94812 4.87266 4.81359 5.66126 4.54453 6.18516 4.27657 6.71016 3.87406 6.97266 3.33703 6.97266ZM3.33703 7.79297C4.19562 7.79297 4.85133 7.45336 5.30414 6.77414 5.75695 6.09602 5.98336 5.11109 5.98336 3.81937 5.98336 2.53094 5.75695 1.54711 5.30414 0.867891 4.85133 0.189766 4.19562-0.149297 3.33703-0.149297 2.47953-0.149297 1.82437 0.189766 1.37156 0.867891 0.91875 1.54711 0.692344 2.53094 0.692344 3.81937 0.692344 5.11109 0.91875 6.09602 1.37156 6.77414 1.82437 7.45336 2.47953 7.79297 3.33703 7.79297Z" transform="matrix(1 0 0 -1 431.325 347.654)"/><g><path d="M454.302 330.488 454.302 14.175" stroke="#B0B0B0" stroke-width="1.05" stroke-linecap="square" stroke-linejoin="round" fill="none"/></g><path d="M454.302 330.487 454.302 335.081" stroke="#000000" stroke-width="1.05" stroke-linejoin="round" fill="none"/><path d="M3.96867 6.75281 1.35352 2.66602 3.96867 2.66602 3.96867 6.75281ZM3.69633 7.65516 4.99898 7.65516 4.99898 2.66602 6.09164 2.66602 6.09164 1.80469 4.99898 1.80469 4.99898 0 3.96867 0 3.96867 1.80469 0.513516 1.80469 0.513516 2.80383 3.69633 7.65516Z" transform="matrix(1 0 0 -1 447.622 347.654)"/><path d="M2.01469 0.871172 5.62898 0.871172 5.62898 0 0.769453 0 0.769453 0.871172C1.16211 1.27805 1.69751 1.82383 2.37562 2.50852 3.05484 3.1943 3.48141 3.63672 3.65531 3.83578 3.98672 4.20766 4.21805 4.52266 4.3493 4.78078 4.48165 5.0389 4.54781 5.29266 4.54781 5.54203 4.54781 5.94891 4.40508 6.28031 4.11961 6.53625 3.83414 6.79329 3.46226 6.9218 3.00398 6.9218 2.67914 6.9218 2.33625 6.86547 1.97531 6.75281 1.61547 6.64015 1.23047 6.46898 0.820312 6.2393L0.820312 7.28602C1.23703 7.45336 1.62641 7.57969 1.98844 7.665 2.35156 7.75031 2.68352 7.79297 2.9843 7.79297 3.77726 7.79297 4.40946 7.59445 4.88086 7.19742 5.35226 6.80149 5.58797 6.27211 5.58797 5.6093 5.58797 5.2943 5.52891 4.9957 5.41078 4.71352 5.29376 4.43243 5.07937 4.10046 4.76766 3.71766 4.68234 3.61812 4.41054 3.33157 3.95227 2.85797 3.49507 2.38437 2.84922 1.72211 2.01469 0.871172Z" transform="matrix(1 0 0 -1 454.302 347.654)"/><g><path d="M477.279 330.488 477.279 14.175" stroke="#B0B0B0" stroke-width="1.05" stroke-linecap="square" stroke-linejoin="round" fill="none"/></g><path d="M477.279 330.487 477.279 335.081" stroke="#000000" stroke-width="1.05" stroke-linejoin="round" fill="none"/><path d="M3.96867 6.75281 1.35352 2.66602 3.96867 2.66602 3.96867 6.75281ZM3.69633 7.65516 4.99898 7.65516 4.99898 2.66602 6.09164 2.66602 6.09164 1.80469 4.99898 1.80469 4.99898 0 3.96867 0 3.96867 1.80469 0.513516 1.80469 0.513516 2.80383 3.69633 7.65516Z" transform="matrix(1 0 0 -1 470.598 347.654)"/><path d="M3.96867 6.75281 1.35352 2.66602 3.96867 2.66602 3.96867 6.75281ZM3.69633 7.65516 4.99898 7.65516 4.99898 2.66602 6.09164 2.66602 6.09164 1.80469 4.99898 1.80469 4.99898 0 3.96867 0 3.96867 1.80469 0.513516 1.80469 0.513516 2.80383 3.69633 7.65516Z" transform="matrix(1 0 0 -1 477.279 347.654)"/><g><path d="M500.257 330.488 500.257 14.175" stroke="#B0B0B0" stroke-width="1.05" stroke-linecap="square" stroke-linejoin="round" fill="none"/></g><path d="M500.257 330.487 500.257 335.081" stroke="#000000" stroke-width="1.05" stroke-linejoin="round" fill="none"/><path d="M3.96867 6.75281 1.35352 2.66602 3.96867 2.66602 3.96867 6.75281ZM3.69633 7.65516 4.99898 7.65516 4.99898 2.66602 6.09164 2.66602 6.09164 1.80469 4.99898 1.80469 4.99898 0 3.96867 0 3.96867 1.80469 0.513516 1.80469 0.513516 2.80383 3.69633 7.65516Z" transform="matrix(1 0 0 -1 493.576 347.654)"/><path d="M3.46664 4.23937C3.0018 4.23937 2.6332 4.08023 2.36086 3.76195 2.08961 3.44477 1.95398 3.00945 1.95398 2.45602 1.95398 1.90586 2.08961 1.47055 2.36086 1.15008 2.6332 0.830703 3.0018 0.671016 3.46664 0.671016 3.93148 0.671016 4.29954 0.830703 4.57078 1.15008 4.84203 1.47055 4.97766 1.90586 4.97766 2.45602 4.97766 3.00945 4.84203 3.44477 4.57078 3.76195 4.29954 4.08023 3.93148 4.23937 3.46664 4.23937ZM5.52234 7.48617 5.52234 6.54281C5.26203 6.66532 4.99953 6.75883 4.73484 6.82336 4.47016 6.88898 4.20766 6.9218 3.94734 6.9218 3.26374 6.9218 2.74148 6.69101 2.38055 6.22945 2.02071 5.7679 1.81507 5.07063 1.76367 4.13766 1.96493 4.43515 2.21758 4.6632 2.52164 4.8218 2.8268 4.9804 3.16203 5.05969 3.52734 5.05969 4.29626 5.05969 4.90383 4.82618 5.35008 4.35914 5.79633 3.8932 6.01945 3.25882 6.01945 2.45602 6.01945 1.66961 5.78703 1.03852 5.32219 0.562734 4.85735 0.0880469 4.23883-0.149297 3.46664-0.149297 2.5807-0.149297 1.90367 0.189766 1.43555 0.867891 0.967422 1.54711 0.733359 2.53094 0.733359 3.81937 0.733359 5.02906 1.02047 5.99374 1.59469 6.71344 2.16891 7.43313 2.93946 7.79297 3.90633 7.79297 4.16665 7.79297 4.42915 7.76726 4.69383 7.71586 4.95851 7.66446 5.23469 7.58789 5.52234 7.48617Z" transform="matrix(1 0 0 -1 500.257 347.654)"/><g><path d="M523.233 330.488 523.233 14.175" stroke="#B0B0B0" stroke-width="1.05" stroke-linecap="square" stroke-linejoin="round" fill="none"/></g><path d="M523.233 330.487 523.233 335.081" stroke="#000000" stroke-width="1.05" stroke-linejoin="round" fill="none"/><path d="M3.96867 6.75281 1.35352 2.66602 3.96867 2.66602 3.96867 6.75281ZM3.69633 7.65516 4.99898 7.65516 4.99898 2.66602 6.09164 2.66602 6.09164 1.80469 4.99898 1.80469 4.99898 0 3.96867 0 3.96867 1.80469 0.513516 1.80469 0.513516 2.80383 3.69633 7.65516Z" transform="matrix(1 0 0 -1 516.553 347.654)"/><path d="M3.33703 3.63562C2.84484 3.63562 2.45766 3.50383 2.17547 3.24023 1.89438 2.97663 1.75383 2.61461 1.75383 2.15414 1.75383 1.69258 1.89438 1.33 2.17547 1.06641 2.45766 0.802812 2.84484 0.671016 3.33703 0.671016 3.82922 0.671016 4.21695 0.80336 4.50023 1.06805 4.7846 1.33383 4.9268 1.69586 4.9268 2.15414 4.9268 2.61461 4.7857 2.97663 4.50352 3.24023 4.22243 3.50383 3.8336 3.63562 3.33703 3.63562ZM2.3018 4.07531C1.85773 4.18469 1.51156 4.39141 1.26328 4.69547 1.01609 5.00062 0.8925 5.37195 0.8925 5.80945 0.8925 6.42086 1.11016 6.90429 1.54547 7.25977 1.98187 7.61524 2.57906 7.79297 3.33703 7.79297 4.09938 7.79297 4.69765 7.61524 5.13188 7.25977 5.5661 6.90429 5.7832 6.42086 5.7832 5.80945 5.7832 5.37195 5.65906 5.00062 5.41078 4.69547 5.16359 4.39141 4.81961 4.18469 4.37883 4.07531 4.87758 3.95937 5.26586 3.73188 5.54367 3.39281 5.82258 3.05484 5.96203 2.64195 5.96203 2.15414 5.96203 1.41148 5.73562 0.841641 5.28281 0.444609 4.83 0.0486719 4.18141-0.149297 3.33703-0.149297 2.49375-0.149297 1.84516 0.0486719 1.39125 0.444609 0.938437 0.841641 0.712031 1.41148 0.712031 2.15414 0.712031 2.64195 0.852031 3.05484 1.13203 3.39281 1.41312 3.73188 1.80305 3.95937 2.3018 4.07531ZM1.92281 5.71102C1.92281 5.31508 2.0464 5.00609 2.29359 4.78406 2.54187 4.56204 2.88968 4.45102 3.33703 4.45102 3.78218 4.45102 4.12999 4.56204 4.38047 4.78406 4.63203 5.00609 4.75781 5.31508 4.75781 5.71102 4.75781 6.10805 4.63203 6.41758 4.38047 6.63961 4.12999 6.86164 3.78218 6.97266 3.33703 6.97266 2.88968 6.97266 2.54187 6.86164 2.29359 6.63961 2.0464 6.41758 1.92281 6.10805 1.92281 5.71102Z" transform="matrix(1 0 0 -1 523.233 347.654)"/><g><path d="M546.21 330.488 546.21 14.175" stroke="#B0B0B0" stroke-width="1.05" stroke-linecap="square" stroke-linejoin="round" fill="none"/></g><path d="M546.21 330.487 546.21 335.081" stroke="#000000" stroke-width="1.05" stroke-linejoin="round" fill="none"/><path d="M1.13367 7.65516 5.19914 7.65516 5.19914 6.78234 2.08195 6.78234 2.08195 4.90711C2.23179 4.95851 2.38165 4.9968 2.53148 5.02195 2.68242 5.0471 2.83336 5.05969 2.9843 5.05969 3.83852 5.05969 4.515 4.82562 5.01375 4.3575 5.5136 3.88938 5.76352 3.25554 5.76352 2.45602 5.76352 1.63242 5.50704 0.992032 4.99406 0.534844 4.48109 0.07875 3.75813-0.149297 2.82516-0.149297 2.50359-0.149297 2.17601-0.121953 1.84242-0.0672656 1.50992-0.0125781 1.16594 0.0694531 0.810469 0.178828L0.810469 1.22062C1.11781 1.05328 1.43555 0.928594 1.76367 0.846562 2.0918 0.764531 2.43851 0.723516 2.80383 0.723516 3.39555 0.723516 3.86367 0.878829 4.2082 1.18945 4.55383 1.50008 4.72664 1.92227 4.72664 2.45602 4.72664 2.98868 4.55383 3.41032 4.2082 3.72094 3.86367 4.03266 3.39555 4.18852 2.80383 4.18852 2.5271 4.18852 2.25094 4.15789 1.97531 4.09664 1.70079 4.0354 1.42023 3.93968 1.13367 3.80953L1.13367 7.65516Z" transform="matrix(1 0 0 -1 539.529 347.654)"/><path d="M3.33703 6.97266C2.80437 6.97266 2.40352 6.71016 2.13445 6.18516 1.86649 5.66126 1.7325 4.87266 1.7325 3.81937 1.7325 2.77047 1.86649 1.98352 2.13445 1.45852 2.40352 0.933516 2.80437 0.671016 3.33703 0.671016 3.87406 0.671016 4.27657 0.933516 4.54453 1.45852 4.81359 1.98352 4.94812 2.77047 4.94812 3.81937 4.94812 4.87266 4.81359 5.66126 4.54453 6.18516 4.27657 6.71016 3.87406 6.97266 3.33703 6.97266ZM3.33703 7.79297C4.19562 7.79297 4.85133 7.45336 5.30414 6.77414 5.75695 6.09602 5.98336 5.11109 5.98336 3.81937 5.98336 2.53094 5.75695 1.54711 5.30414 0.867891 4.85133 0.189766 4.19562-0.149297 3.33703-0.149297 2.47953-0.149297 1.82437 0.189766 1.37156 0.867891 0.91875 1.54711 0.692344 2.53094 0.692344 3.81937 0.692344 5.11109 0.91875 6.09602 1.37156 6.77414 1.82437 7.45336 2.47953 7.79297 3.33703 7.79297Z" transform="matrix(1 0 0 -1 546.21 347.654)"/><path d="M6.24914 1.09266 6.24914 3.14836 4.55766 3.14836 4.55766 3.99984 7.27453 3.99984 7.27453 0.712031C6.87532 0.428749 6.43453 0.214376 5.95219 0.0689062 5.47094-0.0765625 4.95687-0.149297 4.41-0.149297 3.21344-0.149297 2.27719 0.200156 1.60125 0.899062 0.926407 1.59906 0.588984 2.5725 0.588984 3.81937 0.588984 5.07063 0.926407 6.0457 1.60125 6.74461 2.27719 7.44352 3.21344 7.79297 4.41 7.79297 4.90875 7.79297 5.38289 7.73117 5.83242 7.60758 6.28195 7.48507 6.69649 7.30406 7.07602 7.06453L7.07602 5.96203C6.69321 6.28687 6.28633 6.53133 5.85539 6.69539 5.42445 6.85945 4.97164 6.94148 4.49695 6.94148 3.55961 6.94148 2.85579 6.68008 2.38547 6.15727 1.91625 5.63445 1.68164 4.85515 1.68164 3.81937 1.68164 2.78688 1.91625 2.00922 2.38547 1.48641 2.85579 0.963593 3.55961 0.702187 4.49695 0.702187 4.86227 0.702187 5.1882 0.733906 5.47477 0.797344 5.76242 0.860782 6.02055 0.959219 6.24914 1.09266Z" transform="matrix(1 0 0 -1 217.813 363.065)"/><path d="M4.31648 4.86117C4.21039 4.92242 4.095 4.96727 3.97031 4.9957 3.84562 5.02523 3.70835 5.04 3.55852 5.04 3.02477 5.04 2.61516 4.86664 2.32969 4.51992 2.04422 4.17321 1.90148 3.675 1.90148 3.02531L1.90148 0 0.953203 0 0.953203 5.74219 1.90148 5.74219 1.90148 4.84969C2.10054 5.1986 2.35868 5.45726 2.67586 5.6257 2.99414 5.79523 3.38079 5.88 3.83578 5.88 3.90031 5.88 3.97195 5.87562 4.0507 5.86687 4.12945 5.85921 4.21641 5.84665 4.31156 5.82914L4.31648 4.86117Z" transform="matrix(1 0 0 -1 225.95 363.065)"/><path d="M3.21398 5.08102C2.70867 5.08102 2.3089 4.8836 2.01469 4.48875 1.72047 4.0939 1.57336 3.55305 1.57336 2.86617 1.57336 2.17929 1.71937 1.63844 2.01141 1.24359 2.30454 0.848749 2.70539 0.651328 3.21398 0.651328 3.71711 0.651328 4.11523 0.849297 4.40836 1.24523 4.70257 1.64227 4.84969 2.18257 4.84969 2.86617 4.84969 3.54649 4.70257 4.0857 4.40836 4.48383 4.11523 4.88196 3.71711 5.08102 3.21398 5.08102ZM3.21398 5.88C4.0343 5.88 4.67852 5.61312 5.14664 5.07937 5.61586 4.54671 5.85047 3.80899 5.85047 2.86617 5.85047 1.92664 5.61586 1.18891 5.14664 0.652969 4.67852 0.118125 4.0343-0.149297 3.21398-0.149297 2.39039-0.149297 1.74508 0.118125 1.27805 0.652969 0.812109 1.18891 0.579141 1.92664 0.579141 2.86617 0.579141 3.80899 0.812109 4.54671 1.27805 5.07937 1.74508 5.61312 2.39039 5.88 3.21398 5.88Z" transform="matrix(1 0 0 -1 230.03 363.065)"/><path d="M0.8925 2.2657 0.8925 5.74219 1.83586 5.74219 1.83586 2.3018C1.83586 1.75821 1.9414 1.35023 2.1525 1.07789 2.36468 0.806641 2.68296 0.671016 3.10734 0.671016 3.61594 0.671016 4.01789 0.833438 4.3132 1.15828 4.60961 1.48312 4.75781 1.92609 4.75781 2.48719L4.75781 5.74219 5.70117 5.74219 5.70117 0 4.75781 0 4.75781 0.882656C4.52922 0.533749 4.26344 0.274531 3.96047 0.105 3.65859-0.0645312 3.3075-0.149297 2.90719-0.149297 2.24766-0.149297 1.74672 0.0557812 1.40437 0.465937 1.06313 0.876094 0.8925 1.47602 0.8925 2.2657ZM3.26648 5.88 3.26648 5.88Z" transform="matrix(1 0 0 -1 236.454 363.065)"/><path d="M5.76352 3.46664 5.76352 0 4.82016 0 4.82016 3.43547C4.82016 3.97906 4.71406 4.38539 4.50187 4.65445 4.28969 4.92461 3.97195 5.05969 3.54867 5.05969 3.03898 5.05969 2.63703 4.89727 2.34281 4.57242 2.0486 4.24868 1.90148 3.80625 1.90148 3.24516L1.90148 0 0.953203 0 0.953203 5.74219 1.90148 5.74219 1.90148 4.84969C2.12789 5.19532 2.39367 5.45344 2.69883 5.62406 3.00508 5.79469 3.35836 5.88 3.75867 5.88 4.4182 5.88 4.91695 5.67602 5.25492 5.26805 5.59399 4.86007 5.76352 4.2596 5.76352 3.46664Z" transform="matrix(1 0 0 -1 243.109 363.065)"/><path d="M4.76766 4.87102 4.76766 7.97836 5.71102 7.97836 5.71102 0 4.76766 0 4.76766 0.861328C4.56968 0.520078 4.31922 0.266328 4.01625 0.100078 3.71437-0.0661718 3.35126-0.149297 2.92687-0.149297 2.23343-0.149297 1.66852 0.127422 1.23211 0.680859 0.796797 1.23539 0.579141 1.96383 0.579141 2.86617 0.579141 3.76852 0.796797 4.49641 1.23211 5.04984 1.66852 5.60328 2.23343 5.88 2.92687 5.88 3.35126 5.88 3.71437 5.79687 4.01625 5.63062 4.31922 5.46546 4.56968 5.21227 4.76766 4.87102ZM1.55367 2.86617C1.55367 2.17273 1.69641 1.62859 1.98187 1.23375 2.26734 0.838906 2.65945 0.641484 3.1582 0.641484 3.65695 0.641484 4.0496 0.838906 4.33617 1.23375 4.62382 1.62859 4.76766 2.17273 4.76766 2.86617 4.76766 3.55961 4.62382 4.10374 4.33617 4.49859 4.0496 4.89344 3.65695 5.09086 3.1582 5.09086 2.65945 5.09086 2.26734 4.89344 1.98187 4.49859 1.69641 4.10374 1.55367 3.55961 1.55367 2.86617Z" transform="matrix(1 0 0 -1 249.764 363.065)"/><path d="M1.90148 0.861328 1.90148-2.18367 0.953203-2.18367 0.953203 5.74219 1.90148 5.74219 1.90148 4.87102C2.10054 5.21227 2.35102 5.46546 2.65289 5.63062 2.95586 5.79687 3.31734 5.88 3.73734 5.88 4.43515 5.88 5.00172 5.60328 5.43703 5.04984 5.87344 4.49641 6.09164 3.76852 6.09164 2.86617 6.09164 1.96383 5.87344 1.23539 5.43703 0.680859 5.00172 0.127422 4.43515-0.149297 3.73734-0.149297 3.31734-0.149297 2.95586-0.0661718 2.65289 0.100078 2.35102 0.266328 2.10054 0.520078 1.90148 0.861328ZM5.11219 2.86617C5.11219 3.55961 4.96945 4.10374 4.68398 4.49859 4.39852 4.89344 4.00641 5.09086 3.50766 5.09086 3.00781 5.09086 2.61516 4.89344 2.32969 4.49859 2.04422 4.10374 1.90148 3.55961 1.90148 2.86617 1.90148 2.17273 2.04422 1.62859 2.32969 1.23375 2.61516 0.838906 3.00781 0.641484 3.50766 0.641484 4.00641 0.641484 4.39852 0.838906 4.68398 1.23375 4.96945 1.62859 5.11219 2.17273 5.11219 2.86617Z" transform="matrix(1 0 0 -1 259.767 363.065)"/><path d="M0.989297 7.97836 1.93266 7.97836 1.93266 0 0.989297 0 0.989297 7.97836Z" transform="matrix(1 0 0 -1 266.432 363.065)"/><path d="M3.59953 2.88586C2.83718 2.88586 2.3089 2.79891 2.01469 2.625 1.72047 2.45109 1.57336 2.1536 1.57336 1.7325 1.57336 1.39781 1.68382 1.13203 1.90477 0.935156 2.12571 0.739376 2.42538 0.641484 2.80383 0.641484 3.32773 0.641484 3.74773 0.826875 4.06383 1.19766 4.37993 1.56844 4.53797 2.06117 4.53797 2.67586L4.53797 2.88586 3.59953 2.88586ZM5.48133 3.27633 5.48133 0 4.53797 0 4.53797 0.871172C4.3225 0.523359 4.05398 0.266328 3.73242 0.100078 3.41086-0.0661718 3.01765-0.149297 2.55281-0.149297 1.96547-0.149297 1.49789 0.0158594 1.15008 0.346172 0.80336 0.676484 0.63 1.11836 0.63 1.6718 0.63 2.3171 0.846016 2.80383 1.27805 3.13195 1.71117 3.46008 2.35648 3.62414 3.21398 3.62414L4.53797 3.62414 4.53797 3.71766C4.53797 4.15188 4.39523 4.48765 4.10977 4.725 3.8243 4.96235 3.42344 5.08102 2.90719 5.08102 2.57906 5.08102 2.25914 5.04164 1.94742 4.96289 1.6368 4.88414 1.3382 4.76602 1.05164 4.60852L1.05164 5.48133C1.39617 5.61476 1.73086 5.7143 2.0557 5.77992 2.38055 5.84665 2.69665 5.88 3.00398 5.88 3.83524 5.88 4.45594 5.66454 4.86609 5.23359 5.27625 4.80375 5.48133 4.15132 5.48133 3.27633Z" transform="matrix(1 0 0 -1 269.349 363.065)"/><path d="M5.76352 3.46664 5.76352 0 4.82016 0 4.82016 3.43547C4.82016 3.97906 4.71406 4.38539 4.50187 4.65445 4.28969 4.92461 3.97195 5.05969 3.54867 5.05969 3.03898 5.05969 2.63703 4.89727 2.34281 4.57242 2.0486 4.24868 1.90148 3.80625 1.90148 3.24516L1.90148 0 0.953203 0 0.953203 5.74219 1.90148 5.74219 1.90148 4.84969C2.12789 5.19532 2.39367 5.45344 2.69883 5.62406 3.00508 5.79469 3.35836 5.88 3.75867 5.88 4.4182 5.88 4.91695 5.67602 5.25492 5.26805 5.59399 4.86007 5.76352 4.2596 5.76352 3.46664Z" transform="matrix(1 0 0 -1 275.783 363.065)"/><path d="M5.90133 3.10734 5.90133 2.64633 1.56352 2.64633C1.60508 1.99664 1.80086 1.50172 2.15086 1.16156 2.50085 0.821407 2.98868 0.651328 3.6143 0.651328 3.97633 0.651328 4.32743 0.695625 4.66758 0.784219 5.00773 0.872812 5.3457 1.00625 5.68148 1.18453L5.68148 0.292031C5.34242 0.14875 4.99516 0.039375 4.63969-0.0360937 4.28421-0.111562 3.92383-0.149297 3.55852-0.149297 2.64195-0.149297 1.91625 0.117031 1.38141 0.649687 0.846562 1.18344 0.579141 1.90531 0.579141 2.81531 0.579141 3.75485 0.832891 4.50023 1.34039 5.05148 1.84789 5.60383 2.53258 5.88 3.39445 5.88 4.16665 5.88 4.7775 5.63117 5.22703 5.13352 5.67656 4.63695 5.90133 3.96157 5.90133 3.10734ZM4.95797 3.38461C4.95141 3.89977 4.80703 4.31102 4.52484 4.61836 4.24266 4.9268 3.86914 5.08102 3.4043 5.08102 2.8782 5.08102 2.45711 4.93226 2.14102 4.63477 1.82492 4.33727 1.64281 3.91835 1.59469 3.37805L4.95797 3.38461Z" transform="matrix(1 0 0 -1 282.438 363.065)"/><path d="M4.64953 5.5732 4.64953 4.6807C4.38375 4.81742 4.10703 4.91969 3.81937 4.9875 3.53281 5.05641 3.23531 5.09086 2.92687 5.09086 2.45876 5.09086 2.10766 5.01921 1.87359 4.87594 1.63953 4.73266 1.5225 4.51718 1.5225 4.22953 1.5225 4.01079 1.60617 3.83906 1.77352 3.71437 1.94086 3.58969 2.27773 3.47102 2.78414 3.35836L3.10734 3.28617C3.77672 3.1429 4.2525 2.94054 4.53469 2.67914 4.81687 2.41774 4.95797 2.05296 4.95797 1.58484 4.95797 1.05109 4.74687 0.628359 4.32469 0.316641 3.90251 0.00601563 3.32227-0.149297 2.58398-0.149297 2.27665-0.149297 1.95617-0.119219 1.62258-0.0590625 1.28898 0.00109375 0.937891 0.0907812 0.569297 0.21L0.569297 1.18453C0.918204 1.00297 1.26164 0.866796 1.59961 0.776016 1.93758 0.686328 2.27281 0.641484 2.60531 0.641484 3.04938 0.641484 3.39063 0.717499 3.62906 0.869531 3.86859 1.02156 3.98836 1.23594 3.98836 1.51266 3.98836 1.76859 3.90195 1.96493 3.72914 2.10164 3.55742 2.23835 3.17899 2.37016 2.59383 2.49703L2.2657 2.57414C1.68164 2.69665 1.25945 2.88532 0.999141 3.14016 0.739922 3.39499 0.610312 3.74445 0.610312 4.18852 0.610312 4.72882 0.801719 5.14554 1.18453 5.43867 1.56734 5.73288 2.11094 5.88 2.81531 5.88 3.16312 5.88 3.49071 5.85429 3.79805 5.80289 4.10648 5.75257 4.39031 5.67602 4.64953 5.5732Z" transform="matrix(1 0 0 -1 292.236 363.065)"/><path d="M0.989297 5.74219 1.93266 5.74219 1.93266 0 0.989297 0 0.989297 5.74219ZM0.989297 7.97836 1.93266 7.97836 1.93266 6.78234 0.989297 6.78234 0.989297 7.97836Z" transform="matrix(1 0 0 -1 297.706 363.065)"/><path d="M4.76766 4.87102 4.76766 7.97836 5.71102 7.97836 5.71102 0 4.76766 0 4.76766 0.861328C4.56968 0.520078 4.31922 0.266328 4.01625 0.100078 3.71437-0.0661718 3.35126-0.149297 2.92687-0.149297 2.23343-0.149297 1.66852 0.127422 1.23211 0.680859 0.796797 1.23539 0.579141 1.96383 0.579141 2.86617 0.579141 3.76852 0.796797 4.49641 1.23211 5.04984 1.66852 5.60328 2.23343 5.88 2.92687 5.88 3.35126 5.88 3.71437 5.79687 4.01625 5.63062 4.31922 5.46546 4.56968 5.21227 4.76766 4.87102ZM1.55367 2.86617C1.55367 2.17273 1.69641 1.62859 1.98187 1.23375 2.26734 0.838906 2.65945 0.641484 3.1582 0.641484 3.65695 0.641484 4.0496 0.838906 4.33617 1.23375 4.62382 1.62859 4.76766 2.17273 4.76766 2.86617 4.76766 3.55961 4.62382 4.10374 4.33617 4.49859 4.0496 4.89344 3.65695 5.09086 3.1582 5.09086 2.65945 5.09086 2.26734 4.89344 1.98187 4.49859 1.69641 4.10374 1.55367 3.55961 1.55367 2.86617Z" transform="matrix(1 0 0 -1 300.623 363.065)"/><path d="M5.90133 3.10734 5.90133 2.64633 1.56352 2.64633C1.60508 1.99664 1.80086 1.50172 2.15086 1.16156 2.50085 0.821407 2.98868 0.651328 3.6143 0.651328 3.97633 0.651328 4.32743 0.695625 4.66758 0.784219 5.00773 0.872812 5.3457 1.00625 5.68148 1.18453L5.68148 0.292031C5.34242 0.14875 4.99516 0.039375 4.63969-0.0360937 4.28421-0.111562 3.92383-0.149297 3.55852-0.149297 2.64195-0.149297 1.91625 0.117031 1.38141 0.649687 0.846562 1.18344 0.579141 1.90531 0.579141 2.81531 0.579141 3.75485 0.832891 4.50023 1.34039 5.05148 1.84789 5.60383 2.53258 5.88 3.39445 5.88 4.16665 5.88 4.7775 5.63117 5.22703 5.13352 5.67656 4.63695 5.90133 3.96157 5.90133 3.10734ZM4.95797 3.38461C4.95141 3.89977 4.80703 4.31102 4.52484 4.61836 4.24266 4.9268 3.86914 5.08102 3.4043 5.08102 2.8782 5.08102 2.45711 4.93226 2.14102 4.63477 1.82492 4.33727 1.64281 3.91835 1.59469 3.37805L4.95797 3.38461Z" transform="matrix(1 0 0 -1 307.289 363.065)"/><path d="M0.989297 7.97836 1.93266 7.97836 1.93266 0 0.989297 0 0.989297 7.97836Z" transform="matrix(1 0 0 -1 317.086 363.065)"/><path d="M5.90133 3.10734 5.90133 2.64633 1.56352 2.64633C1.60508 1.99664 1.80086 1.50172 2.15086 1.16156 2.50085 0.821407 2.98868 0.651328 3.6143 0.651328 3.97633 0.651328 4.32743 0.695625 4.66758 0.784219 5.00773 0.872812 5.3457 1.00625 5.68148 1.18453L5.68148 0.292031C5.34242 0.14875 4.99516 0.039375 4.63969-0.0360937 4.28421-0.111562 3.92383-0.149297 3.55852-0.149297 2.64195-0.149297 1.91625 0.117031 1.38141 0.649687 0.846562 1.18344 0.579141 1.90531 0.579141 2.81531 0.579141 3.75485 0.832891 4.50023 1.34039 5.05148 1.84789 5.60383 2.53258 5.88 3.39445 5.88 4.16665 5.88 4.7775 5.63117 5.22703 5.13352 5.67656 4.63695 5.90133 3.96157 5.90133 3.10734ZM4.95797 3.38461C4.95141 3.89977 4.80703 4.31102 4.52484 4.61836 4.24266 4.9268 3.86914 5.08102 3.4043 5.08102 2.8782 5.08102 2.45711 4.93226 2.14102 4.63477 1.82492 4.33727 1.64281 3.91835 1.59469 3.37805L4.95797 3.38461Z" transform="matrix(1 0 0 -1 320.003 363.065)"/><path d="M5.76352 3.46664 5.76352 0 4.82016 0 4.82016 3.43547C4.82016 3.97906 4.71406 4.38539 4.50187 4.65445 4.28969 4.92461 3.97195 5.05969 3.54867 5.05969 3.03898 5.05969 2.63703 4.89727 2.34281 4.57242 2.0486 4.24868 1.90148 3.80625 1.90148 3.24516L1.90148 0 0.953203 0 0.953203 5.74219 1.90148 5.74219 1.90148 4.84969C2.12789 5.19532 2.39367 5.45344 2.69883 5.62406 3.00508 5.79469 3.35836 5.88 3.75867 5.88 4.4182 5.88 4.91695 5.67602 5.25492 5.26805 5.59399 4.86007 5.76352 4.2596 5.76352 3.46664Z" transform="matrix(1 0 0 -1 326.463 363.065)"/><path d="M4.76766 2.93836C4.76766 3.62196 4.62656 4.15132 4.34437 4.52648 4.06329 4.90273 3.6679 5.09086 3.1582 5.09086 2.65289 5.09086 2.25914 4.90273 1.97695 4.52648 1.69477 4.15132 1.55367 3.62196 1.55367 2.93836 1.55367 2.25804 1.69477 1.72976 1.97695 1.35352 2.25914 0.977266 2.65289 0.789141 3.1582 0.789141 3.6679 0.789141 4.06329 0.977266 4.34437 1.35352 4.62656 1.72976 4.76766 2.25804 4.76766 2.93836ZM5.71102 0.712031C5.71102-0.264687 5.49391-0.991484 5.05969-1.46836 4.62656-1.94524 3.96211-2.18367 3.06633-2.18367 2.73492-2.18367 2.4221-2.15906 2.12789-2.10984 1.83368-2.06062 1.5482-1.98461 1.27148-1.8818L1.27148-0.964687C1.5482-1.11453 1.82164-1.225 2.0918-1.29609 2.36196-1.36828 2.63703-1.40437 2.91703-1.40437 3.53609-1.40437 3.9993-1.24305 4.30664-0.920391 4.61398-0.597734 4.76766-0.109922 4.76766 0.543047L4.76766 1.01063C4.57296 0.671562 4.32359 0.418359 4.01953 0.251016 3.71547 0.0836719 3.35126 0 2.92687 0 2.22359 0 1.65649 0.267968 1.22555 0.803906 0.794609 1.34094 0.579141 2.05242 0.579141 2.93836 0.579141 3.82648 0.794609 4.53851 1.22555 5.07445 1.65649 5.61148 2.22359 5.88 2.92687 5.88 3.35126 5.88 3.71547 5.79633 4.01953 5.62898 4.32359 5.46164 4.57296 5.20898 4.76766 4.87102L4.76766 5.74219 5.71102 5.74219 5.71102 0.712031Z" transform="matrix(1 0 0 -1 333.118 363.065)"/><path d="M1.92281 7.37297 1.92281 5.74219 3.86531 5.74219 3.86531 5.00883 1.92281 5.00883 1.92281 1.89164C1.92281 1.42352 1.9868 1.12273 2.11477 0.989297 2.24273 0.85586 2.50359 0.789141 2.89734 0.789141L3.86531 0.789141 3.86531 0 2.89734 0C2.16891 0 1.66633 0.135625 1.38961 0.406875 1.11289 0.679219 0.974531 1.17414 0.974531 1.89164L0.974531 5.00883 0.282187 5.00883 0.282187 5.74219 0.974531 5.74219 0.974531 7.37297 1.92281 7.37297Z" transform="matrix(1 0 0 -1 339.783 363.065)"/><path d="M5.76352 3.46664 5.76352 0 4.82016 0 4.82016 3.43547C4.82016 3.97906 4.71406 4.38539 4.50187 4.65445 4.28969 4.92461 3.97195 5.05969 3.54867 5.05969 3.03898 5.05969 2.63703 4.89727 2.34281 4.57242 2.0486 4.24868 1.90148 3.80625 1.90148 3.24516L1.90148 0 0.953203 0 0.953203 7.97836 1.90148 7.97836 1.90148 4.84969C2.12789 5.19532 2.39367 5.45344 2.69883 5.62406 3.00508 5.79469 3.35836 5.88 3.75867 5.88 4.4182 5.88 4.91695 5.67602 5.25492 5.26805 5.59399 4.86007 5.76352 4.2596 5.76352 3.46664Z" transform="matrix(1 0 0 -1 343.9 363.065)"/><path d="M5.76352 5.74219 3.68648 2.9482 5.87016 0 4.75781 0 3.08602 2.25586 1.41586 0 0.301875 0 2.53312 3.00398 0.492187 5.74219 1.60453 5.74219 3.12703 3.69633 4.64953 5.74219 5.76352 5.74219Z" transform="matrix(1 0 0 -1 353.892 363.065)"/><path d="M3.255 7.96687C2.79781 7.18156 2.45766 6.4039 2.23453 5.63391 2.01251 4.86499 1.90148 4.0857 1.90148 3.29602 1.90148 2.50742 2.01359 1.72594 2.23781 0.951562 2.46204 0.177187 2.80109-0.601563 3.255-1.38469L2.43469-1.38469C1.92281-0.580781 1.53945 0.208906 1.28461 0.984375 1.02977 1.75985 0.902344 2.53039 0.902344 3.29602 0.902344 4.05836 1.02867 4.82562 1.28133 5.59781 1.53508 6.37109 1.91953 7.16079 2.43469 7.96687L3.255 7.96687Z" transform="matrix(1 0 0 -1 363.444 363.065)"/><path d="M5.46 4.63969C5.69625 5.06407 5.97844 5.37687 6.30656 5.57812 6.63469 5.77938 7.02078 5.88 7.46484 5.88 8.06313 5.88 8.52469 5.67054 8.84953 5.25164 9.17437 4.83382 9.3368 4.23883 9.3368 3.46664L9.3368 0 8.38852 0 8.38852 3.43547C8.38852 3.98562 8.29062 4.39359 8.09484 4.65937 7.90015 4.92626 7.6032 5.05969 7.20398 5.05969 6.71508 5.05969 6.32843 4.89727 6.04406 4.57242 5.76078 4.24868 5.61914 3.80625 5.61914 3.24516L5.61914 0 4.67086 0 4.67086 3.43547C4.67086 3.9889 4.57352 4.39797 4.37883 4.66266 4.18413 4.92734 3.88336 5.05969 3.47648 5.05969 2.99414 5.05969 2.61078 4.89672 2.32641 4.57078 2.04312 4.24484 1.90148 3.80297 1.90148 3.24516L1.90148 0 0.953203 0 0.953203 5.74219 1.90148 5.74219 1.90148 4.84969C2.11695 5.20188 2.37508 5.46164 2.67586 5.62898 2.97663 5.79633 3.33375 5.88 3.74719 5.88 4.16501 5.88 4.51992 5.7739 4.81195 5.56172 5.10398 5.35062 5.32 5.04328 5.46 4.63969Z" transform="matrix(1 0 0 -1 367.54 363.065)"/><path d="M5.46 4.63969C5.69625 5.06407 5.97844 5.37687 6.30656 5.57812 6.63469 5.77938 7.02078 5.88 7.46484 5.88 8.06313 5.88 8.52469 5.67054 8.84953 5.25164 9.17437 4.83382 9.3368 4.23883 9.3368 3.46664L9.3368 0 8.38852 0 8.38852 3.43547C8.38852 3.98562 8.29062 4.39359 8.09484 4.65937 7.90015 4.92626 7.6032 5.05969 7.20398 5.05969 6.71508 5.05969 6.32843 4.89727 6.04406 4.57242 5.76078 4.24868 5.61914 3.80625 5.61914 3.24516L5.61914 0 4.67086 0 4.67086 3.43547C4.67086 3.9889 4.57352 4.39797 4.37883 4.66266 4.18413 4.92734 3.88336 5.05969 3.47648 5.05969 2.99414 5.05969 2.61078 4.89672 2.32641 4.57078 2.04312 4.24484 1.90148 3.80297 1.90148 3.24516L1.90148 0 0.953203 0 0.953203 5.74219 1.90148 5.74219 1.90148 4.84969C2.11695 5.20188 2.37508 5.46164 2.67586 5.62898 2.97663 5.79633 3.33375 5.88 3.74719 5.88 4.16501 5.88 4.51992 5.7739 4.81195 5.56172 5.10398 5.35062 5.32 5.04328 5.46 4.63969Z" transform="matrix(1 0 0 -1 377.768 363.065)"/><path d="M0.841641 7.96687 1.66195 7.96687C2.17383 7.16079 2.55719 6.37109 2.81203 5.59781 3.06687 4.82562 3.1943 4.05836 3.1943 3.29602 3.1943 2.53039 3.06687 1.75985 2.81203 0.984375 2.55719 0.208906 2.17383-0.580781 1.66195-1.38469L0.841641-1.38469C1.29555-0.601563 1.63461 0.177187 1.85883 0.951562 2.08305 1.72594 2.19516 2.50742 2.19516 3.29602 2.19516 4.0857 2.08305 4.86499 1.85883 5.63391 1.63461 6.4039 1.29555 7.18156 0.841641 7.96687Z" transform="matrix(1 0 0 -1 387.997 363.065)"/><g><path d="M63.6956 330.488 546.21 330.488" stroke="#B0B0B0" stroke-width="1.05" stroke-linecap="square" stroke-linejoin="round" fill="none"/></g><path d="M63.6956 330.487 59.1019 330.487" stroke="#000000" stroke-width="1.05" stroke-linejoin="round" fill="none"/><path d="M1.11234 3.7275 7.68469 3.7275 7.68469 2.85633 1.11234 2.85633 1.11234 3.7275Z" transform="matrix(1 0 0 -1 29.0112 334.476)"/><path d="M2.01469 0.871172 5.62898 0.871172 5.62898 0 0.769453 0 0.769453 0.871172C1.16211 1.27805 1.69751 1.82383 2.37562 2.50852 3.05484 3.1943 3.48141 3.63672 3.65531 3.83578 3.98672 4.20766 4.21805 4.52266 4.3493 4.78078 4.48165 5.0389 4.54781 5.29266 4.54781 5.54203 4.54781 5.94891 4.40508 6.28031 4.11961 6.53625 3.83414 6.79329 3.46226 6.9218 3.00398 6.9218 2.67914 6.9218 2.33625 6.86547 1.97531 6.75281 1.61547 6.64015 1.23047 6.46898 0.820312 6.2393L0.820312 7.28602C1.23703 7.45336 1.62641 7.57969 1.98844 7.665 2.35156 7.75031 2.68352 7.79297 2.9843 7.79297 3.77726 7.79297 4.40946 7.59445 4.88086 7.19742 5.35226 6.80149 5.58797 6.27211 5.58797 5.6093 5.58797 5.2943 5.52891 4.9957 5.41078 4.71352 5.29376 4.43243 5.07937 4.10046 4.76766 3.71766 4.68234 3.61812 4.41054 3.33157 3.95227 2.85797 3.49507 2.38437 2.84922 1.72211 2.01469 0.871172Z" transform="matrix(1 0 0 -1 37.8091 334.476)"/><path d="M1.12219 1.30266 2.205 1.30266 2.205 0 1.12219 0 1.12219 1.30266Z" transform="matrix(1 0 0 -1 44.4895 334.476)"/><path d="M3.33703 6.97266C2.80437 6.97266 2.40352 6.71016 2.13445 6.18516 1.86649 5.66126 1.7325 4.87266 1.7325 3.81937 1.7325 2.77047 1.86649 1.98352 2.13445 1.45852 2.40352 0.933516 2.80437 0.671016 3.33703 0.671016 3.87406 0.671016 4.27657 0.933516 4.54453 1.45852 4.81359 1.98352 4.94812 2.77047 4.94812 3.81937 4.94812 4.87266 4.81359 5.66126 4.54453 6.18516 4.27657 6.71016 3.87406 6.97266 3.33703 6.97266ZM3.33703 7.79297C4.19562 7.79297 4.85133 7.45336 5.30414 6.77414 5.75695 6.09602 5.98336 5.11109 5.98336 3.81937 5.98336 2.53094 5.75695 1.54711 5.30414 0.867891 4.85133 0.189766 4.19562-0.149297 3.33703-0.149297 2.47953-0.149297 1.82437 0.189766 1.37156 0.867891 0.91875 1.54711 0.692344 2.53094 0.692344 3.81937 0.692344 5.11109 0.91875 6.09602 1.37156 6.77414 1.82437 7.45336 2.47953 7.79297 3.33703 7.79297Z" transform="matrix(1 0 0 -1 47.8271 334.476)"/><g><path d="M63.6956 255.175 546.21 255.175" stroke="#B0B0B0" stroke-width="1.05" stroke-linecap="square" stroke-linejoin="round" fill="none"/></g><path d="M63.6956 255.175 59.1019 255.175" stroke="#000000" stroke-width="1.05" stroke-linejoin="round" fill="none"/><path d="M1.11234 3.7275 7.68469 3.7275 7.68469 2.85633 1.11234 2.85633 1.11234 3.7275Z" transform="matrix(1 0 0 -1 29.0112 259.164)"/><path d="M1.30266 0.871172 2.99414 0.871172 2.99414 6.7118 1.15336 6.34266 1.15336 7.28602 2.9843 7.65516 4.01953 7.65516 4.01953 0.871172 5.71102 0.871172 5.71102 0 1.30266 0 1.30266 0.871172Z" transform="matrix(1 0 0 -1 37.8091 259.164)"/><path d="M1.12219 1.30266 2.205 1.30266 2.205 0 1.12219 0 1.12219 1.30266Z" transform="matrix(1 0 0 -1 44.4895 259.164)"/><path d="M1.13367 7.65516 5.19914 7.65516 5.19914 6.78234 2.08195 6.78234 2.08195 4.90711C2.23179 4.95851 2.38165 4.9968 2.53148 5.02195 2.68242 5.0471 2.83336 5.05969 2.9843 5.05969 3.83852 5.05969 4.515 4.82562 5.01375 4.3575 5.5136 3.88938 5.76352 3.25554 5.76352 2.45602 5.76352 1.63242 5.50704 0.992032 4.99406 0.534844 4.48109 0.07875 3.75813-0.149297 2.82516-0.149297 2.50359-0.149297 2.17601-0.121953 1.84242-0.0672656 1.50992-0.0125781 1.16594 0.0694531 0.810469 0.178828L0.810469 1.22062C1.11781 1.05328 1.43555 0.928594 1.76367 0.846562 2.0918 0.764531 2.43851 0.723516 2.80383 0.723516 3.39555 0.723516 3.86367 0.878829 4.2082 1.18945 4.55383 1.50008 4.72664 1.92227 4.72664 2.45602 4.72664 2.98868 4.55383 3.41032 4.2082 3.72094 3.86367 4.03266 3.39555 4.18852 2.80383 4.18852 2.5271 4.18852 2.25094 4.15789 1.97531 4.09664 1.70079 4.0354 1.42023 3.93968 1.13367 3.80953L1.13367 7.65516Z" transform="matrix(1 0 0 -1 47.8271 259.164)"/><g><path d="M63.6956 179.862 546.21 179.862" stroke="#B0B0B0" stroke-width="1.05" stroke-linecap="square" stroke-linejoin="round" fill="none"/></g><path d="M63.6956 179.862 59.1019 179.862" stroke="#000000" stroke-width="1.05" stroke-linejoin="round" fill="none"/><path d="M1.11234 3.7275 7.68469 3.7275 7.68469 2.85633 1.11234 2.85633 1.11234 3.7275Z" transform="matrix(1 0 0 -1 29.0112 183.851)"/><path d="M1.30266 0.871172 2.99414 0.871172 2.99414 6.7118 1.15336 6.34266 1.15336 7.28602 2.9843 7.65516 4.01953 7.65516 4.01953 0.871172 5.71102 0.871172 5.71102 0 1.30266 0 1.30266 0.871172Z" transform="matrix(1 0 0 -1 37.8091 183.851)"/><path d="M1.12219 1.30266 2.205 1.30266 2.205 0 1.12219 0 1.12219 1.30266Z" transform="matrix(1 0 0 -1 44.4895 183.851)"/><path d="M3.33703 6.97266C2.80437 6.97266 2.40352 6.71016 2.13445 6.18516 1.86649 5.66126 1.7325 4.87266 1.7325 3.81937 1.7325 2.77047 1.86649 1.98352 2.13445 1.45852 2.40352 0.933516 2.80437 0.671016 3.33703 0.671016 3.87406 0.671016 4.27657 0.933516 4.54453 1.45852 4.81359 1.98352 4.94812 2.77047 4.94812 3.81937 4.94812 4.87266 4.81359 5.66126 4.54453 6.18516 4.27657 6.71016 3.87406 6.97266 3.33703 6.97266ZM3.33703 7.79297C4.19562 7.79297 4.85133 7.45336 5.30414 6.77414 5.75695 6.09602 5.98336 5.11109 5.98336 3.81937 5.98336 2.53094 5.75695 1.54711 5.30414 0.867891 4.85133 0.189766 4.19562-0.149297 3.33703-0.149297 2.47953-0.149297 1.82437 0.189766 1.37156 0.867891 0.91875 1.54711 0.692344 2.53094 0.692344 3.81937 0.692344 5.11109 0.91875 6.09602 1.37156 6.77414 1.82437 7.45336 2.47953 7.79297 3.33703 7.79297Z" transform="matrix(1 0 0 -1 47.8271 183.851)"/><g><path d="M63.6956 104.55 546.21 104.55" stroke="#B0B0B0" stroke-width="1.05" stroke-linecap="square" stroke-linejoin="round" fill="none"/></g><path d="M63.6956 104.55 59.1019 104.55" stroke="#000000" stroke-width="1.05" stroke-linejoin="round" fill="none"/><path d="M1.11234 3.7275 7.68469 3.7275 7.68469 2.85633 1.11234 2.85633 1.11234 3.7275Z" transform="matrix(1 0 0 -1 29.0112 108.539)"/><path d="M3.33703 6.97266C2.80437 6.97266 2.40352 6.71016 2.13445 6.18516 1.86649 5.66126 1.7325 4.87266 1.7325 3.81937 1.7325 2.77047 1.86649 1.98352 2.13445 1.45852 2.40352 0.933516 2.80437 0.671016 3.33703 0.671016 3.87406 0.671016 4.27657 0.933516 4.54453 1.45852 4.81359 1.98352 4.94812 2.77047 4.94812 3.81937 4.94812 4.87266 4.81359 5.66126 4.54453 6.18516 4.27657 6.71016 3.87406 6.97266 3.33703 6.97266ZM3.33703 7.79297C4.19562 7.79297 4.85133 7.45336 5.30414 6.77414 5.75695 6.09602 5.98336 5.11109 5.98336 3.81937 5.98336 2.53094 5.75695 1.54711 5.30414 0.867891 4.85133 0.189766 4.19562-0.149297 3.33703-0.149297 2.47953-0.149297 1.82437 0.189766 1.37156 0.867891 0.91875 1.54711 0.692344 2.53094 0.692344 3.81937 0.692344 5.11109 0.91875 6.09602 1.37156 6.77414 1.82437 7.45336 2.47953 7.79297 3.33703 7.79297Z" transform="matrix(1 0 0 -1 37.8091 108.539)"/><path d="M1.12219 1.30266 2.205 1.30266 2.205 0 1.12219 0 1.12219 1.30266Z" transform="matrix(1 0 0 -1 44.4895 108.539)"/><path d="M1.13367 7.65516 5.19914 7.65516 5.19914 6.78234 2.08195 6.78234 2.08195 4.90711C2.23179 4.95851 2.38165 4.9968 2.53148 5.02195 2.68242 5.0471 2.83336 5.05969 2.9843 5.05969 3.83852 5.05969 4.515 4.82562 5.01375 4.3575 5.5136 3.88938 5.76352 3.25554 5.76352 2.45602 5.76352 1.63242 5.50704 0.992032 4.99406 0.534844 4.48109 0.07875 3.75813-0.149297 2.82516-0.149297 2.50359-0.149297 2.17601-0.121953 1.84242-0.0672656 1.50992-0.0125781 1.16594 0.0694531 0.810469 0.178828L0.810469 1.22062C1.11781 1.05328 1.43555 0.928594 1.76367 0.846562 2.0918 0.764531 2.43851 0.723516 2.80383 0.723516 3.39555 0.723516 3.86367 0.878829 4.2082 1.18945 4.55383 1.50008 4.72664 1.92227 4.72664 2.45602 4.72664 2.98868 4.55383 3.41032 4.2082 3.72094 3.86367 4.03266 3.39555 4.18852 2.80383 4.18852 2.5271 4.18852 2.25094 4.15789 1.97531 4.09664 1.70079 4.0354 1.42023 3.93968 1.13367 3.80953L1.13367 7.65516Z" transform="matrix(1 0 0 -1 47.8271 108.539)"/><g><path d="M63.6956 29.2375 546.21 29.2375" stroke="#B0B0B0" stroke-width="1.05" stroke-linecap="square" stroke-linejoin="round" fill="none"/></g><path d="M63.6956 29.2375 59.1019 29.2375" stroke="#000000" stroke-width="1.05" stroke-linejoin="round" fill="none"/><path d="M3.33703 6.97266C2.80437 6.97266 2.40352 6.71016 2.13445 6.18516 1.86649 5.66126 1.7325 4.87266 1.7325 3.81937 1.7325 2.77047 1.86649 1.98352 2.13445 1.45852 2.40352 0.933516 2.80437 0.671016 3.33703 0.671016 3.87406 0.671016 4.27657 0.933516 4.54453 1.45852 4.81359 1.98352 4.94812 2.77047 4.94812 3.81937 4.94812 4.87266 4.81359 5.66126 4.54453 6.18516 4.27657 6.71016 3.87406 6.97266 3.33703 6.97266ZM3.33703 7.79297C4.19562 7.79297 4.85133 7.45336 5.30414 6.77414 5.75695 6.09602 5.98336 5.11109 5.98336 3.81937 5.98336 2.53094 5.75695 1.54711 5.30414 0.867891 4.85133 0.189766 4.19562-0.149297 3.33703-0.149297 2.47953-0.149297 1.82437 0.189766 1.37156 0.867891 0.91875 1.54711 0.692344 2.53094 0.692344 3.81937 0.692344 5.11109 0.91875 6.09602 1.37156 6.77414 1.82437 7.45336 2.47953 7.79297 3.33703 7.79297Z" transform="matrix(1 0 0 -1 37.8098 33.2267)"/><path d="M1.12219 1.30266 2.205 1.30266 2.205 0 1.12219 0 1.12219 1.30266Z" transform="matrix(1 0 0 -1 44.4903 33.2267)"/><path d="M3.33703 6.97266C2.80437 6.97266 2.40352 6.71016 2.13445 6.18516 1.86649 5.66126 1.7325 4.87266 1.7325 3.81937 1.7325 2.77047 1.86649 1.98352 2.13445 1.45852 2.40352 0.933516 2.80437 0.671016 3.33703 0.671016 3.87406 0.671016 4.27657 0.933516 4.54453 1.45852 4.81359 1.98352 4.94812 2.77047 4.94812 3.81937 4.94812 4.87266 4.81359 5.66126 4.54453 6.18516 4.27657 6.71016 3.87406 6.97266 3.33703 6.97266ZM3.33703 7.79297C4.19562 7.79297 4.85133 7.45336 5.30414 6.77414 5.75695 6.09602 5.98336 5.11109 5.98336 3.81937 5.98336 2.53094 5.75695 1.54711 5.30414 0.867891 4.85133 0.189766 4.19562-0.149297 3.33703-0.149297 2.47953-0.149297 1.82437 0.189766 1.37156 0.867891 0.91875 1.54711 0.692344 2.53094 0.692344 3.81937 0.692344 5.11109 0.91875 6.09602 1.37156 6.77414 1.82437 7.45336 2.47953 7.79297 3.33703 7.79297Z" transform="matrix(1 0 0 -1 47.8279 33.2267)"/><path d="M4.66102 3.58969C4.88304 3.51422 5.09906 3.35344 5.30906 3.10734 5.51906 2.86125 5.73016 2.52274 5.94234 2.0918L6.99398 0 5.88 0 4.90219 1.96383C4.64843 2.4768 4.4029 2.81695 4.16555 2.9843 3.9282 3.15164 3.60445 3.23531 3.1943 3.23531L2.06555 3.23531 2.06555 0 1.03031 0 1.03031 7.65516 3.3682 7.65516C4.2432 7.65516 4.89617 7.47195 5.32711 7.10555 5.75805 6.74023 5.97352 6.18844 5.97352 5.45016 5.97352 4.96781 5.86141 4.5675 5.63719 4.24922 5.41296 3.93204 5.08758 3.71219 4.66102 3.58969ZM2.06555 6.80367 2.06555 4.0868 3.3682 4.0868C3.86695 4.0868 4.24376 4.20218 4.49859 4.43297 4.75343 4.66376 4.88086 5.00281 4.88086 5.45016 4.88086 5.89751 4.75343 6.23492 4.49859 6.46242 4.24376 6.68993 3.86695 6.80367 3.3682 6.80367L2.06555 6.80367Z" transform="matrix(6.12324e-17 -1 -1 -6.12324e-17 21.5775 218.513)"/><path d="M5.90133 3.10734 5.90133 2.64633 1.56352 2.64633C1.60508 1.99664 1.80086 1.50172 2.15086 1.16156 2.50085 0.821407 2.98868 0.651328 3.6143 0.651328 3.97633 0.651328 4.32743 0.695625 4.66758 0.784219 5.00773 0.872812 5.3457 1.00625 5.68148 1.18453L5.68148 0.292031C5.34242 0.14875 4.99516 0.039375 4.63969-0.0360937 4.28421-0.111562 3.92383-0.149297 3.55852-0.149297 2.64195-0.149297 1.91625 0.117031 1.38141 0.649687 0.846562 1.18344 0.579141 1.90531 0.579141 2.81531 0.579141 3.75485 0.832891 4.50023 1.34039 5.05148 1.84789 5.60383 2.53258 5.88 3.39445 5.88 4.16665 5.88 4.7775 5.63117 5.22703 5.13352 5.67656 4.63695 5.90133 3.96157 5.90133 3.10734ZM4.95797 3.38461C4.95141 3.89977 4.80703 4.31102 4.52484 4.61836 4.24266 4.9268 3.86914 5.08102 3.4043 5.08102 2.8782 5.08102 2.45711 4.93226 2.14102 4.63477 1.82492 4.33727 1.64281 3.91835 1.59469 3.37805L4.95797 3.38461Z" transform="matrix(6.12324e-17 -1 -1 -6.12324e-17 21.5775 211.69)"/><path d="M0.989297 7.97836 1.93266 7.97836 1.93266 0 0.989297 0 0.989297 7.97836Z" transform="matrix(6.12324e-17 -1 -1 -6.12324e-17 21.5775 205.23)"/><path d="M3.59953 2.88586C2.83718 2.88586 2.3089 2.79891 2.01469 2.625 1.72047 2.45109 1.57336 2.1536 1.57336 1.7325 1.57336 1.39781 1.68382 1.13203 1.90477 0.935156 2.12571 0.739376 2.42538 0.641484 2.80383 0.641484 3.32773 0.641484 3.74773 0.826875 4.06383 1.19766 4.37993 1.56844 4.53797 2.06117 4.53797 2.67586L4.53797 2.88586 3.59953 2.88586ZM5.48133 3.27633 5.48133 0 4.53797 0 4.53797 0.871172C4.3225 0.523359 4.05398 0.266328 3.73242 0.100078 3.41086-0.0661718 3.01765-0.149297 2.55281-0.149297 1.96547-0.149297 1.49789 0.0158594 1.15008 0.346172 0.80336 0.676484 0.63 1.11836 0.63 1.6718 0.63 2.3171 0.846016 2.80383 1.27805 3.13195 1.71117 3.46008 2.35648 3.62414 3.21398 3.62414L4.53797 3.62414 4.53797 3.71766C4.53797 4.15188 4.39523 4.48765 4.10977 4.725 3.8243 4.96235 3.42344 5.08102 2.90719 5.08102 2.57906 5.08102 2.25914 5.04164 1.94742 4.96289 1.6368 4.88414 1.3382 4.76602 1.05164 4.60852L1.05164 5.48133C1.39617 5.61476 1.73086 5.7143 2.0557 5.77992 2.38055 5.84665 2.69665 5.88 3.00398 5.88 3.83524 5.88 4.45594 5.66454 4.86609 5.23359 5.27625 4.80375 5.48133 4.15132 5.48133 3.27633Z" transform="matrix(6.12324e-17 -1 -1 -6.12324e-17 21.5775 202.313)"/><path d="M1.92281 7.37297 1.92281 5.74219 3.86531 5.74219 3.86531 5.00883 1.92281 5.00883 1.92281 1.89164C1.92281 1.42352 1.9868 1.12273 2.11477 0.989297 2.24273 0.85586 2.50359 0.789141 2.89734 0.789141L3.86531 0.789141 3.86531 0 2.89734 0C2.16891 0 1.66633 0.135625 1.38961 0.406875 1.11289 0.679219 0.974531 1.17414 0.974531 1.89164L0.974531 5.00883 0.282187 5.00883 0.282187 5.74219 0.974531 5.74219 0.974531 7.37297 1.92281 7.37297Z" transform="matrix(6.12324e-17 -1 -1 -6.12324e-17 21.5775 195.878)"/><path d="M0.989297 5.74219 1.93266 5.74219 1.93266 0 0.989297 0 0.989297 5.74219ZM0.989297 7.97836 1.93266 7.97836 1.93266 6.78234 0.989297 6.78234 0.989297 7.97836Z" transform="matrix(6.12324e-17 -1 -1 -6.12324e-17 21.5775 191.761)"/><path d="M0.313359 5.74219 1.3125 5.74219 3.10734 0.923672 4.90219 5.74219 5.90133 5.74219 3.74719 0 2.46586 0 0.313359 5.74219Z" transform="matrix(6.12324e-17 -1 -1 -6.12324e-17 21.5775 188.844)"/><path d="M5.90133 3.10734 5.90133 2.64633 1.56352 2.64633C1.60508 1.99664 1.80086 1.50172 2.15086 1.16156 2.50085 0.821407 2.98868 0.651328 3.6143 0.651328 3.97633 0.651328 4.32743 0.695625 4.66758 0.784219 5.00773 0.872812 5.3457 1.00625 5.68148 1.18453L5.68148 0.292031C5.34242 0.14875 4.99516 0.039375 4.63969-0.0360937 4.28421-0.111562 3.92383-0.149297 3.55852-0.149297 2.64195-0.149297 1.91625 0.117031 1.38141 0.649687 0.846562 1.18344 0.579141 1.90531 0.579141 2.81531 0.579141 3.75485 0.832891 4.50023 1.34039 5.05148 1.84789 5.60383 2.53258 5.88 3.39445 5.88 4.16665 5.88 4.7775 5.63117 5.22703 5.13352 5.67656 4.63695 5.90133 3.96157 5.90133 3.10734ZM4.95797 3.38461C4.95141 3.89977 4.80703 4.31102 4.52484 4.61836 4.24266 4.9268 3.86914 5.08102 3.4043 5.08102 2.8782 5.08102 2.45711 4.93226 2.14102 4.63477 1.82492 4.33727 1.64281 3.91835 1.59469 3.37805L4.95797 3.38461Z" transform="matrix(6.12324e-17 -1 -1 -6.12324e-17 21.5775 182.63)"/><path d="M4.66102 3.58969C4.88304 3.51422 5.09906 3.35344 5.30906 3.10734 5.51906 2.86125 5.73016 2.52274 5.94234 2.0918L6.99398 0 5.88 0 4.90219 1.96383C4.64843 2.4768 4.4029 2.81695 4.16555 2.9843 3.9282 3.15164 3.60445 3.23531 3.1943 3.23531L2.06555 3.23531 2.06555 0 1.03031 0 1.03031 7.65516 3.3682 7.65516C4.2432 7.65516 4.89617 7.47195 5.32711 7.10555 5.75805 6.74023 5.97352 6.18844 5.97352 5.45016 5.97352 4.96781 5.86141 4.5675 5.63719 4.24922 5.41296 3.93204 5.08758 3.71219 4.66102 3.58969ZM2.06555 6.80367 2.06555 4.0868 3.3682 4.0868C3.86695 4.0868 4.24376 4.20218 4.49859 4.43297 4.75343 4.66376 4.88086 5.00281 4.88086 5.45016 4.88086 5.89751 4.75343 6.23492 4.49859 6.46242 4.24376 6.68993 3.86695 6.80367 3.3682 6.80367L2.06555 6.80367Z" transform="matrix(6.12324e-17 -1 -1 -6.12324e-17 21.5775 172.833)"/><path d="M1.03031 7.65516 2.06555 7.65516 2.06555 0.871172 5.79305 0.871172 5.79305 0 1.03031 0 1.03031 7.65516Z" transform="matrix(6.12324e-17 -1 -1 -6.12324e-17 21.5775 165.537)"/><path d="M6.24914 1.09266 6.24914 3.14836 4.55766 3.14836 4.55766 3.99984 7.27453 3.99984 7.27453 0.712031C6.87532 0.428749 6.43453 0.214376 5.95219 0.0689062 5.47094-0.0765625 4.95687-0.149297 4.41-0.149297 3.21344-0.149297 2.27719 0.200156 1.60125 0.899062 0.926407 1.59906 0.588984 2.5725 0.588984 3.81937 0.588984 5.07063 0.926407 6.0457 1.60125 6.74461 2.27719 7.44352 3.21344 7.79297 4.41 7.79297 4.90875 7.79297 5.38289 7.73117 5.83242 7.60758 6.28195 7.48507 6.69649 7.30406 7.07602 7.06453L7.07602 5.96203C6.69321 6.28687 6.28633 6.53133 5.85539 6.69539 5.42445 6.85945 4.97164 6.94148 4.49695 6.94148 3.55961 6.94148 2.85579 6.68008 2.38547 6.15727 1.91625 5.63445 1.68164 4.85515 1.68164 3.81937 1.68164 2.78688 1.91625 2.00922 2.38547 1.48641 2.85579 0.963593 3.55961 0.702187 4.49695 0.702187 4.86227 0.702187 5.1882 0.733906 5.47477 0.797344 5.76242 0.860782 6.02055 0.959219 6.24914 1.09266Z" transform="matrix(6.12324e-17 -1 -1 -6.12324e-17 21.5775 159.687)"/><path d="M3.255 7.96687C2.79781 7.18156 2.45766 6.4039 2.23453 5.63391 2.01251 4.86499 1.90148 4.0857 1.90148 3.29602 1.90148 2.50742 2.01359 1.72594 2.23781 0.951562 2.46204 0.177187 2.80109-0.601563 3.255-1.38469L2.43469-1.38469C1.92281-0.580781 1.53945 0.208906 1.28461 0.984375 1.02977 1.75985 0.902344 2.53039 0.902344 3.29602 0.902344 4.05836 1.02867 4.82562 1.28133 5.59781 1.53508 6.37109 1.91953 7.16079 2.43469 7.96687L3.255 7.96687Z" transform="matrix(6.12324e-17 -1 -1 -6.12324e-17 21.5775 148.213)"/><path d="M4.76766 4.87102 4.76766 7.97836 5.71102 7.97836 5.71102 0 4.76766 0 4.76766 0.861328C4.56968 0.520078 4.31922 0.266328 4.01625 0.100078 3.71437-0.0661718 3.35126-0.149297 2.92687-0.149297 2.23343-0.149297 1.66852 0.127422 1.23211 0.680859 0.796797 1.23539 0.579141 1.96383 0.579141 2.86617 0.579141 3.76852 0.796797 4.49641 1.23211 5.04984 1.66852 5.60328 2.23343 5.88 2.92687 5.88 3.35126 5.88 3.71437 5.79687 4.01625 5.63062 4.31922 5.46546 4.56968 5.21227 4.76766 4.87102ZM1.55367 2.86617C1.55367 2.17273 1.69641 1.62859 1.98187 1.23375 2.26734 0.838906 2.65945 0.641484 3.1582 0.641484 3.65695 0.641484 4.0496 0.838906 4.33617 1.23375 4.62382 1.62859 4.76766 2.17273 4.76766 2.86617 4.76766 3.55961 4.62382 4.10374 4.33617 4.49859 4.0496 4.89344 3.65695 5.09086 3.1582 5.09086 2.65945 5.09086 2.26734 4.89344 1.98187 4.49859 1.69641 4.10374 1.55367 3.55961 1.55367 2.86617Z" transform="matrix(6.12324e-17 -1 -1 -6.12324e-17 21.5775 144.116)"/><path d="M2.06555 3.65531 2.06555 0.851484 3.7275 0.851484C4.28421 0.851484 4.69657 0.966874 4.96453 1.19766 5.23359 1.42844 5.36812 1.78118 5.36812 2.25586 5.36812 2.73492 5.23359 3.08766 4.96453 3.31406 4.69657 3.54157 4.28421 3.65531 3.7275 3.65531L2.06555 3.65531ZM2.06555 6.80367 2.06555 4.49695 3.59953 4.49695C4.10484 4.49695 4.48109 4.59157 4.72828 4.78078 4.97656 4.97109 5.1007 5.26094 5.1007 5.65031 5.1007 6.0364 4.97656 6.32515 4.72828 6.51656 4.48109 6.70797 4.10484 6.80367 3.59953 6.80367L2.06555 6.80367ZM1.03031 7.65516 3.67664 7.65516C4.46632 7.65516 5.07445 7.49109 5.50102 7.16297 5.92868 6.83484 6.1425 6.36836 6.1425 5.76352 6.1425 5.2943 6.03312 4.92133 5.81437 4.64461 5.59563 4.36789 5.27407 4.19562 4.84969 4.12781 5.35938 4.01843 5.75531 3.78984 6.0375 3.44203 6.31969 3.09532 6.46078 2.66219 6.46078 2.14266 6.46078 1.45906 6.22835 0.930781 5.76352 0.557813 5.29868 0.185937 4.63695 0 3.77836 0L1.03031 0 1.03031 7.65516Z" transform="matrix(6.12324e-17 -1 -1 -6.12324e-17 21.5775 137.451)"/><path d="M0.841641 7.96687 1.66195 7.96687C2.17383 7.16079 2.55719 6.37109 2.81203 5.59781 3.06687 4.82562 3.1943 4.05836 3.1943 3.29602 3.1943 2.53039 3.06687 1.75985 2.81203 0.984375 2.55719 0.208906 2.17383-0.580781 1.66195-1.38469L0.841641-1.38469C1.29555-0.601563 1.63461 0.177187 1.85883 0.951562 2.08305 1.72594 2.19516 2.50742 2.19516 3.29602 2.19516 4.0857 2.08305 4.86499 1.85883 5.63391 1.63461 6.4039 1.29555 7.18156 0.841641 7.96687Z" transform="matrix(6.12324e-17 -1 -1 -6.12324e-17 21.5775 130.248)"/><g clip-path="url(#clip1)"><path d="M46.5903 379.312 52.2072 328.554 57.9515 303.055 63.6956 292.835 69.4398 285.422 75.1841 274.738 80.9282 257.754 86.6725 237.24 92.4167 216.95 98.161 198.769 103.905 184.117 109.649 174.412 115.394 170.365 121.138 169.86 126.882 170.074 132.627 168.184 138.37 161.939 144.115 151.389 149.859 138.177 155.603 128.042 161.347 126.125 167.092 131.091 172.835 139.985 178.58 149.849 184.325 158.225 190.068 164.618 195.813 169.032 201.557 171.466 207.301 171.969 213.045 170.754 218.79 168.081 224.533 164.211 230.278 159.402 236.022 153.913 241.766 148.005 247.511 141.938 253.255 135.97 259 130.361 264.743 125.318 270.488 120.831 276.231 116.839 281.976 113.281 287.72 110.095 293.465 107.219 299.208 104.591 304.953 102.15 310.698 99.8335 316.441 97.5804 322.186 95.3395 327.929 93.1021 333.674 90.8699 339.418 88.6449 345.163 86.429 350.906 84.224 356.651 82.0319 362.394 79.8546 368.139 77.6938 373.884 75.5516 379.628 73.4296 385.372 71.33 391.116 69.2546 396.861 67.2051 402.604 65.1836 408.349 63.1919 414.092 61.2319 419.837 59.3056 425.582 57.4147 431.326 55.561 437.07 53.7467 442.814 51.9736 448.559 50.2433 454.302 48.558 460.047 46.9195 465.79 45.3296 471.535 43.7902 477.279 42.3035 483.024 40.8709 488.768 39.4946 494.512 38.1763 500.257 36.918 506 35.7217 511.745 34.589 517.489 33.522 523.233 32.5226 528.977 31.5924 534.722 30.7336 540.465 29.9481 546.21 29.2375" stroke="#1F77B4" stroke-width="2.625" stroke-linecap="square" stroke-linejoin="round" fill="none"/></g><path d="M63.6956 330.488 63.6956 14.175" stroke="#000000" stroke-width="1.05" stroke-linecap="square" fill="none"/><path d="M546.21 330.488 546.21 14.175" stroke="#000000" stroke-width="1.05" stroke-linecap="square" fill="none"/><path d="M63.6956 330.488 546.21 330.488" stroke="#000000" stroke-width="1.05" stroke-linecap="square" fill="none"/><path d="M63.6956 14.175 546.21 14.175" stroke="#000000" stroke-width="1.05" stroke-linecap="square" fill="none"/></g></svg>