<svg width="266" height="227" xmlns="http://www.w3.org/2000/svg" xmlns:xlink="http://www.w3.org/1999/xlink" xml:space="preserve" overflow="hidden"><defs><clipPath id="clip0"><rect x="0" y="0" width="266" height="227"/></clipPath></defs><g clip-path="url(#clip0)"><path d="M0 298.073 397.43 298.073 397.43 0 0 0Z" fill="#FFFFFF" transform="matrix(1 0 0 1.00186 -65.7151 -35.8137)"/><g><path d="M264.309-147.546 264.309-43.2205 262.812-45.3281 261.322-47.4357 259.837-49.5433 258.36-51.6508 256.889-53.7585 255.426-55.866 253.971-57.9737 252.523-60.0812 251.085-62.1888 249.656-64.2964 248.236-66.404 246.827-68.5115 245.429-70.6191 244.042-72.7267 242.667-74.8343 241.305-76.9419 239.957-79.0494 238.624-81.1571 237.305-83.2646 236.003-85.3722 234.719-87.4795 233.453-89.5874 232.208-91.6953 230.982-93.8023 229.78-95.9102 228.601-98.0181 227.447-100.125 226.32-102.233 225.222-104.34 224.155-106.448 223.12-108.556 222.119-110.663 221.156-112.771 220.23-114.879 219.346-116.986 218.506-119.094 217.712-121.202 216.966-123.309 216.272-125.416 215.63-127.523 215.044-129.631 214.517-131.739 214.05-133.846 213.645-135.954 213.305-138.062 213.03-140.169 212.824-142.277 212.686-144.385 212.616-146.492 212.616-148.6 212.686-150.707 212.824-152.815 213.03-154.923 213.305-157.03 213.645-159.138 214.05-161.246 214.517-163.353 215.044-165.46 215.63-167.568 216.272-169.675 216.966-171.783 217.712-173.89 218.506-175.998 219.346-178.106 220.23-180.213 221.156-182.321 222.119-184.429 223.12-186.536 224.155-188.644 225.222-190.752 226.32-192.859 227.447-194.967 228.601-197.074 229.78-199.182 230.982-201.29 232.208-203.397 233.453-205.505 234.719-207.612 236.003-209.719 237.305-211.827 238.624-213.935 239.957-216.042 241.305-218.15 242.667-220.257 244.042-222.365 245.429-224.473 246.827-226.58 248.236-228.688 249.656-230.796 251.085-232.903 252.523-235.011 253.971-237.119 255.426-239.226 256.889-241.334 258.36-243.441 259.837-245.549 261.322-247.656 262.812-249.763 264.309-251.871 264.309-147.546 264.309-147.546 262.812-147.546 261.322-147.546 259.837-147.546 258.36-147.546 256.889-147.546 255.426-147.546 253.971-147.546 252.523-147.546 251.085-147.546 249.656-147.546 248.236-147.546 246.827-147.546 245.429-147.546 244.042-147.546 242.667-147.546 241.305-147.546 239.957-147.546 238.624-147.546 237.305-147.546 236.003-147.546 234.719-147.546 233.453-147.546 232.208-147.546 230.982-147.546 229.78-147.546 228.601-147.546 227.447-147.546 226.32-147.546 225.222-147.546 224.155-147.546 223.12-147.546 222.119-147.546 221.156-147.546 220.23-147.546 219.346-147.546 218.506-147.546 217.712-147.546 216.966-147.546 216.272-147.546 215.63-147.546 215.044-147.546 214.517-147.546 214.05-147.546 213.645-147.546 213.305-147.546 213.03-147.546 212.824-147.546 212.686-147.546 212.616-147.546 212.616-147.546 212.686-147.546 212.824-147.546 213.03-147.546 213.305-147.546 213.645-147.546 214.05-147.546 214.517-147.546 215.044-147.546 215.63-147.546 216.272-147.546 216.966-147.546 217.712-147.546 218.506-147.546 219.346-147.546 220.23-147.546 221.156-147.546 222.119-147.546 223.12-147.546 224.155-147.546 225.222-147.546 226.32-147.546 227.447-147.546 228.601-147.546 229.78-147.546 230.982-147.546 232.208-147.546 233.453-147.546 234.719-147.546 236.003-147.546 237.305-147.546 238.624-147.546 239.957-147.546 241.305-147.546 242.667-147.546 244.042-147.546 245.429-147.546 246.827-147.546 248.236-147.546 249.656-147.546 251.085-147.546 252.523-147.546 253.971-147.546 255.426-147.546 256.889-147.546 258.36-147.546 259.837-147.546 261.322-147.546 262.812-147.546 264.309-147.546Z" stroke="#B0C4DE" stroke-width="0.862479" stroke-linejoin="round" fill="#B0C4DE" transform="matrix(1 0 0 1.00186 -65.7151 262.814)"/></g><g><path d="M264.309 254.852 262.812 252.744 261.322 250.637 259.837 248.529 258.36 246.421 256.889 244.314 255.426 242.206 253.971 240.099 252.523 237.991 251.085 235.884 249.656 233.777 248.236 231.669 246.827 229.561 245.429 227.454 244.042 225.346 242.667 223.238 241.305 221.131 239.957 219.023 238.624 216.916 237.305 214.808 236.003 212.7 234.719 210.593 233.453 208.485 232.208 206.377 230.982 204.27 229.78 202.162 228.601 200.055 227.447 197.947 226.32 195.84 225.222 193.733 224.155 191.625 223.12 189.517 222.119 187.41 221.156 185.302 220.23 183.194 219.346 181.087 218.506 178.979 217.712 176.871 216.966 174.764 216.272 172.656 215.63 170.549 215.044 168.441 214.517 166.333 214.05 164.226 213.645 162.118 213.305 160.01 213.03 157.903 212.824 155.796 212.686 153.688 212.616 151.581 212.616 149.473 212.686 147.366 212.824 145.258 213.03 143.15 213.305 141.043 213.645 138.935 214.05 136.827 214.517 134.72 215.044 132.612 215.63 130.504 216.272 128.397 216.966 126.289 217.712 124.182 218.506 122.074 219.346 119.966 220.23 117.859 221.156 115.752 222.119 113.644 223.12 111.537 224.155 109.429 225.222 107.321 226.32 105.214 227.447 103.106 228.601 100.999 229.78 98.8909 230.982 96.783 232.208 94.676 233.453 92.5681 234.719 90.4602 236.003 88.3532 237.305 86.2454 238.624 84.1378 239.957 82.0302 241.305 79.9226 242.667 77.815 244.042 75.7074 245.429 73.5999 246.827 71.4922 248.236 69.3847 249.656 67.2771 251.085 65.1695 252.523 63.0619 253.971 60.9544 255.426 58.8467 256.889 56.7392 258.36 54.6315 259.837 52.524 261.322 50.4164 262.812 48.3088 264.309 46.2013" stroke="#1F77B4" stroke-width="1.72496" stroke-linecap="square" stroke-linejoin="round" fill="none" transform="matrix(1 0 0 1.00186 -65.7151 -35.8137)"/></g><g><path d="M264.309 254.852 264.309 46.2013" stroke="#1F77B4" stroke-width="1.72496" stroke-linecap="square" stroke-linejoin="round" fill="none" transform="matrix(1 0 0 1.00186 -65.7151 -35.8137)"/></g><g><path d="M108.282 150.527 249.798 233.987" stroke="#696969" stroke-width="0.862479" stroke-linejoin="round" stroke-dasharray="3.19117 1.37997" fill="none" transform="matrix(1 0 0 1.00186 -65.7151 -35.8137)"/></g><g><path d="M249.798 233.987 299.084 233.987" stroke="#696969" stroke-width="0.862479" stroke-linejoin="round" stroke-dasharray="3.19117 1.37997" fill="none" transform="matrix(1 0 0 1.00186 -65.7151 -35.8137)"/></g><g><path d="M108.282 150.527 232.083 206.167" stroke="#696969" stroke-width="0.862479" stroke-linejoin="round" stroke-dasharray="3.19117 1.37997" fill="none" transform="matrix(1 0 0 1.00186 -65.7151 -35.8137)"/></g><g><path d="M232.083 206.167 299.084 206.167" stroke="#696969" stroke-width="0.862479" stroke-linejoin="round" stroke-dasharray="3.19117 1.37997" fill="none" transform="matrix(1 0 0 1.00186 -65.7151 -35.8137)"/></g><g><path d="M108.282 150.527 218.263 178.347" stroke="#696969" stroke-width="0.862479" stroke-linejoin="round" stroke-dasharray="3.19117 1.37997" fill="none" transform="matrix(1 0 0 1.00186 -65.7151 -35.8137)"/></g><g><path d="M218.263 178.347 299.084 178.347" stroke="#696969" stroke-width="0.862479" stroke-linejoin="round" stroke-dasharray="3.19117 1.37997" fill="none" transform="matrix(1 0 0 1.00186 -65.7151 -35.8137)"/></g><g><path d="M108.282 150.527 212.607 150.527" stroke="#696969" stroke-width="0.862479" stroke-linejoin="round" stroke-dasharray="3.19117 1.37997" fill="none" transform="matrix(1 0 0 1.00186 -65.7151 -35.8137)"/></g><g><path d="M212.607 150.527 299.084 150.527" stroke="#696969" stroke-width="0.862479" stroke-linejoin="round" stroke-dasharray="3.19117 1.37997" fill="none" transform="matrix(1 0 0 1.00186 -65.7151 -35.8137)"/></g><g><path d="M108.282 150.527 218.263 122.707" stroke="#696969" stroke-width="0.862479" stroke-linejoin="round" stroke-dasharray="3.19117 1.37997" fill="none" transform="matrix(1 0 0 1.00186 -65.7151 -35.8137)"/></g><g><path d="M218.263 122.707 299.084 122.707" stroke="#696969" stroke-width="0.862479" stroke-linejoin="round" stroke-dasharray="3.19117 1.37997" fill="none" transform="matrix(1 0 0 1.00186 -65.7151 -35.8137)"/></g><g><path d="M108.282 150.527 232.083 94.8864" stroke="#696969" stroke-width="0.862479" stroke-linejoin="round" stroke-dasharray="3.19117 1.37997" fill="none" transform="matrix(1 0 0 1.00186 -65.7151 -35.8137)"/></g><g><path d="M232.083 94.8864 299.084 94.8864" stroke="#696969" stroke-width="0.862479" stroke-linejoin="round" stroke-dasharray="3.19117 1.37997" fill="none" transform="matrix(1 0 0 1.00186 -65.7151 -35.8137)"/></g><g><path d="M108.282 150.527 249.798 67.0663" stroke="#696969" stroke-width="0.862479" stroke-linejoin="round" stroke-dasharray="3.19117 1.37997" fill="none" transform="matrix(1 0 0 1.00186 -65.7151 -35.8137)"/></g><g><path d="M249.798 67.0663 299.084 67.0663" stroke="#696969" stroke-width="0.862479" stroke-linejoin="round" stroke-dasharray="3.19117 1.37997" fill="none" transform="matrix(1 0 0 1.00186 -65.7151 -35.8137)"/></g><g><path d="M0 2.58744C0.686196 2.58744 1.34438 2.31481 1.82959 1.82959 2.31481 1.34438 2.58744 0.686196 2.58744 0 2.58744-0.686196 2.31481-1.34438 1.82959-1.82959 1.34438-2.31481 0.686196-2.58744 0-2.58744-0.686196-2.58744-1.34438-2.31481-1.82959-1.82959-2.31481-1.34438-2.58744-0.686196-2.58744 0-2.58744 0.686196-2.31481 1.34438-1.82959 1.82959-1.34438 2.31481-0.686196 2.58744 0 2.58744Z" stroke="#000000" stroke-width="0.862479" stroke-linejoin="round" transform="matrix(1 0 0 1.00186 184.083 31.3775)"/></g><g><path d="M0 2.58744C0.686196 2.58744 1.34438 2.31481 1.82959 1.82959 2.31481 1.34438 2.58744 0.686196 2.58744 0 2.58744-0.686196 2.31481-1.34438 1.82959-1.82959 1.34438-2.31481 0.686196-2.58744 0-2.58744-0.686196-2.58744-1.34438-2.31481-1.82959-1.82959-2.31481-1.34438-2.58744-0.686196-2.58744 0-2.58744 0.686196-2.31481 1.34438-1.82959 1.82959-1.34438 2.31481-0.686196 2.58744 0 2.58744Z" stroke="#000000" stroke-width="0.862479" stroke-linejoin="round" transform="matrix(1 0 0 1.00186 198.594 31.3775)"/></g><g><path d="M0 2.58744C0.686196 2.58744 1.34438 2.31481 1.82959 1.82959 2.31481 1.34438 2.58744 0.686196 2.58744 0 2.58744-0.686196 2.31481-1.34438 1.82959-1.82959 1.34438-2.31481 0.686196-2.58744 0-2.58744-0.686196-2.58744-1.34438-2.31481-1.82959-1.82959-2.31481-1.34438-2.58744-0.686196-2.58744 0-2.58744 0.686196-2.31481 1.34438-1.82959 1.82959-1.34438 2.31481-0.686196 2.58744 0 2.58744Z" stroke="#000000" stroke-width="0.862479" stroke-linejoin="round" transform="matrix(1 0 0 1.00186 146.892 114.993)"/></g><g><path d="M0 2.58744C0.686196 2.58744 1.34438 2.31481 1.82959 1.82959 2.31481 1.34438 2.58744 0.686196 2.58744 0 2.58744-0.686196 2.31481-1.34438 1.82959-1.82959 1.34438-2.31481 0.686196-2.58744 0-2.58744-0.686196-2.58744-1.34438-2.31481-1.82959-1.82959-2.31481-1.34438-2.58744-0.686196-2.58744 0-2.58744 0.686196-2.31481 1.34438-1.82959 1.82959-1.34438 2.31481-0.686196 2.58744 0 2.58744Z" stroke="#000000" stroke-width="0.862479" stroke-linejoin="round" transform="matrix(1 0 0 1.00186 198.594 114.993)"/></g><path d="M2.67368 6.54406C2.29814 5.89899 2.01874 5.26022 1.83546 4.62774 1.65309 3.99615 1.56189 3.35603 1.56189 2.70737 1.56189 2.05961 1.65398 1.4177 1.83816 0.781621 2.02234 0.145543 2.30084-0.494129 2.67368-1.13739L1.99987-1.13739C1.57941-0.477058 1.26452 0.171597 1.05519 0.808574 0.845858 1.44555 0.741193 2.07848 0.741193 2.70737 0.741193 3.33357 0.844959 3.9638 1.05249 4.59809 1.26093 5.23326 1.57672 5.88193 1.99987 6.54406L2.67368 6.54406Z" transform="matrix(1 0 0 -1.00186 21.7014 111.498)"/><path d="M2.74106 5.7274C2.30353 5.7274 1.97427 5.51178 1.75326 5.08054 1.53315 4.6502 1.42309 4.00244 1.42309 3.13727 1.42309 2.27569 1.53315 1.62928 1.75326 1.19804 1.97427 0.766797 2.30353 0.551178 2.74106 0.551178 3.18218 0.551178 3.51281 0.766797 3.73292 1.19804 3.95393 1.62928 4.06443 2.27569 4.06443 3.13727 4.06443 4.00244 3.95393 4.6502 3.73292 5.08054 3.51281 5.51178 3.18218 5.7274 2.74106 5.7274ZM2.74106 6.40121C3.44632 6.40121 3.98492 6.12225 4.35686 5.56433 4.72881 5.00732 4.91478 4.19829 4.91478 3.13727 4.91478 2.07894 4.72881 1.27081 4.35686 0.712892 3.98492 0.155875 3.44632-0.122634 2.74106-0.122634 2.0367-0.122634 1.49856 0.155875 1.12661 0.712892 0.754669 1.27081 0.568697 2.07894 0.568697 3.13727 0.568697 4.19829 0.754669 5.00732 1.12661 5.56433 1.49856 6.12225 2.0367 6.40121 2.74106 6.40121Z" transform="matrix(1 0 0 -1.00186 25.0663 111.498)"/><path d="M1.01072 1.07001 1.8988 1.07001 1.8988 0.344991 1.20882-1.00263 0.665726-1.00263 1.01072 0.344991 1.01072 1.07001Z" transform="matrix(1 0 0 -1.00186 30.5537 111.498)"/><path d="M2.74106 5.7274C2.30353 5.7274 1.97427 5.51178 1.75326 5.08054 1.53315 4.6502 1.42309 4.00244 1.42309 3.13727 1.42309 2.27569 1.53315 1.62928 1.75326 1.19804 1.97427 0.766797 2.30353 0.551178 2.74106 0.551178 3.18218 0.551178 3.51281 0.766797 3.73292 1.19804 3.95393 1.62928 4.06443 2.27569 4.06443 3.13727 4.06443 4.00244 3.95393 4.6502 3.73292 5.08054 3.51281 5.51178 3.18218 5.7274 2.74106 5.7274ZM2.74106 6.40121C3.44632 6.40121 3.98492 6.12225 4.35686 5.56433 4.72881 5.00732 4.91478 4.19829 4.91478 3.13727 4.91478 2.07894 4.72881 1.27081 4.35686 0.712892 3.98492 0.155875 3.44632-0.122634 2.74106-0.122634 2.0367-0.122634 1.49856 0.155875 1.12661 0.712892 0.754669 1.27081 0.568697 2.07894 0.568697 3.13727 0.568697 4.19829 0.754669 5.00732 1.12661 5.56433 1.49856 6.12225 2.0367 6.40121 2.74106 6.40121Z" transform="matrix(1 0 0 -1.00186 34.9755 111.498)"/><path d="M0.69133 6.54406 1.36514 6.54406C1.7856 5.88193 2.1005 5.23326 2.30983 4.59809 2.51915 3.9638 2.62382 3.33357 2.62382 2.70737 2.62382 2.07848 2.51915 1.44555 2.30983 0.808574 2.1005 0.171597 1.7856-0.477058 1.36514-1.13739L0.69133-1.13739C1.06417-0.494129 1.34268 0.145543 1.52686 0.781621 1.71104 1.4177 1.80312 2.05961 1.80312 2.70737 1.80312 3.35603 1.71104 3.99615 1.52686 4.62774 1.34268 5.26022 1.06417 5.89899 0.69133 6.54406Z" transform="matrix(1 0 0 -1.00186 40.4629 111.498)"/><path d="M2.67368 6.54406C2.29814 5.89899 2.01874 5.26022 1.83546 4.62774 1.65309 3.99615 1.56189 3.35603 1.56189 2.70737 1.56189 2.05961 1.65398 1.4177 1.83816 0.781621 2.02234 0.145543 2.30084-0.494129 2.67368-1.13739L1.99987-1.13739C1.57941-0.477058 1.26452 0.171597 1.05519 0.808574 0.845858 1.44555 0.741193 2.07848 0.741193 2.70737 0.741193 3.33357 0.844959 3.9638 1.05249 4.59809 1.26093 5.23326 1.57672 5.88193 1.99987 6.54406L2.67368 6.54406Z" transform="matrix(1 0 0 -1.00186 150.369 27.8827)"/><path d="M5.17622 4.71668 3.01059 2.40416 4.338 0 3.44857 0 2.45133 1.8705 0.715588 0-0.223705 0 2.0969 2.48502 0.863826 4.71668 1.75191 4.71668 2.65751 3.01059 4.23693 4.71668 5.17622 4.71668Z" transform="matrix(1 0 0 -1.00186 153.734 27.8827)"/><path d="M0.749009 0.500911 1.72159 0.500911 1.72159 3.85919 0.663165 3.64694 0.663165 4.18936 1.71593 4.40161 2.31117 4.40161 2.31117 0.500911 3.28375 0.500911 3.28375 0 0.749009 0 0.749009 0.500911Z" transform="matrix(1 0 0 -1.00186 158.838 29.3003)"/><path d="M1.01072 1.07001 1.8988 1.07001 1.8988 0.344991 1.20882-1.00263 0.665726-1.00263 1.01072 0.344991 1.01072 1.07001Z" transform="matrix(1 0 0 -1.00186 162.915 27.8827)"/><path d="M2.14003-0.437977C1.78065-1.04171 1.48778-1.4186 1.26137-1.56863 1.03497-1.71866 0.746583-1.79369 0.396201-1.79369L-0.214272-1.79369-0.0849002-1.14548 0.362511-1.14548C0.57813-1.14548 0.761856-1.08663 0.913688-0.968941 1.06552-0.851249 1.23532-0.620805 1.42309-0.27761L1.66297 0.172496 0.618559 4.71668 1.44061 4.71668 2.22358 1.1037 4.38786 4.71668 5.20048 4.71668 2.14003-0.437977Z" transform="matrix(1 0 0 -1.00186 167.337 27.8827)"/><path d="M0.749009 0.500911 1.72159 0.500911 1.72159 3.85919 0.663165 3.64694 0.663165 4.18936 1.71593 4.40161 2.31117 4.40161 2.31117 0.500911 3.28375 0.500911 3.28375 0 0.749009 0 0.749009 0.500911Z" transform="matrix(1 0 0 -1.00186 172.441 29.3003)"/><path d="M0.69133 6.54406 1.36514 6.54406C1.7856 5.88193 2.1005 5.23326 2.30983 4.59809 2.51915 3.9638 2.62382 3.33357 2.62382 2.70737 2.62382 2.07848 2.51915 1.44555 2.30983 0.808574 2.1005 0.171597 1.7856-0.477058 1.36514-1.13739L0.69133-1.13739C1.06417-0.494129 1.34268 0.145543 1.52686 0.781621 1.71104 1.4177 1.80312 2.05961 1.80312 2.70737 1.80312 3.35603 1.71104 3.99615 1.52686 4.62774 1.34268 5.26022 1.06417 5.89899 0.69133 6.54406Z" transform="matrix(1 0 0 -1.00186 176.518 27.8827)"/><path d="M2.67368 6.54406C2.29814 5.89899 2.01874 5.26022 1.83546 4.62774 1.65309 3.99615 1.56189 3.35603 1.56189 2.70737 1.56189 2.05961 1.65398 1.4177 1.83816 0.781621 2.02234 0.145543 2.30084-0.494129 2.67368-1.13739L1.99987-1.13739C1.57941-0.477058 1.26452 0.171597 1.05519 0.808574 0.845858 1.44555 0.741193 2.07848 0.741193 2.70737 0.741193 3.33357 0.844959 3.9638 1.05249 4.59809 1.26093 5.23326 1.57672 5.88193 1.99987 6.54406L2.67368 6.54406Z" transform="matrix(1 0 0 -1.00186 202.072 27.8827)"/><path d="M5.17622 4.71668 3.01059 2.40416 4.338 0 3.44857 0 2.45133 1.8705 0.715588 0-0.223705 0 2.0969 2.48502 0.863826 4.71668 1.75191 4.71668 2.65751 3.01059 4.23693 4.71668 5.17622 4.71668Z" transform="matrix(1 0 0 -1.00186 205.436 27.8827)"/><path d="M1.15842 0.500911 3.23659 0.500911 3.23659 0 0.442425 0 0.442425 0.500911C0.668196 0.734859 0.976041 1.04868 1.36595 1.44236 1.75649 1.83668 2.00176 2.09106 2.10175 2.20552 2.29231 2.41935 2.42532 2.60047 2.50078 2.74888 2.57688 2.8973 2.61493 3.0432 2.61493 3.18659 2.61493 3.42054 2.53286 3.61109 2.36872 3.75825 2.20458 3.90604 1.99075 3.97993 1.72725 3.97993 1.54047 3.97993 1.34331 3.94755 1.13578 3.88277 0.928872 3.81799 0.707502 3.71957 0.471668 3.58751L0.471668 4.18936C0.711275 4.28558 0.93516 4.35821 1.14332 4.40727 1.35211 4.45632 1.54299 4.48085 1.71593 4.48085 2.17187 4.48085 2.53538 4.3667 2.80642 4.13841 3.07747 3.91076 3.213 3.60637 3.213 3.22527 3.213 3.04415 3.17904 2.87246 3.11112 2.7102 3.04383 2.54858 2.92057 2.35771 2.74133 2.1376 2.69228 2.08037 2.536 1.9156 2.2725 1.64329 2.00962 1.37098 1.63826 0.990192 1.15842 0.500911Z" transform="matrix(1 0 0 -1.00186 210.541 29.3003)"/><path d="M1.01072 1.07001 1.8988 1.07001 1.8988 0.344991 1.20882-1.00263 0.665726-1.00263 1.01072 0.344991 1.01072 1.07001Z" transform="matrix(1 0 0 -1.00186 214.618 27.8827)"/><path d="M2.14003-0.437977C1.78065-1.04171 1.48778-1.4186 1.26137-1.56863 1.03497-1.71866 0.746583-1.79369 0.396201-1.79369L-0.214272-1.79369-0.0849002-1.14548 0.362511-1.14548C0.57813-1.14548 0.761856-1.08663 0.913688-0.968941 1.06552-0.851249 1.23532-0.620805 1.42309-0.27761L1.66297 0.172496 0.618559 4.71668 1.44061 4.71668 2.22358 1.1037 4.38786 4.71668 5.20048 4.71668 2.14003-0.437977Z" transform="matrix(1 0 0 -1.00186 219.039 27.8827)"/><path d="M1.15842 0.500911 3.23659 0.500911 3.23659 0 0.442425 0 0.442425 0.500911C0.668196 0.734859 0.976041 1.04868 1.36595 1.44236 1.75649 1.83668 2.00176 2.09106 2.10175 2.20552 2.29231 2.41935 2.42532 2.60047 2.50078 2.74888 2.57688 2.8973 2.61493 3.0432 2.61493 3.18659 2.61493 3.42054 2.53286 3.61109 2.36872 3.75825 2.20458 3.90604 1.99075 3.97993 1.72725 3.97993 1.54047 3.97993 1.34331 3.94755 1.13578 3.88277 0.928872 3.81799 0.707502 3.71957 0.471668 3.58751L0.471668 4.18936C0.711275 4.28558 0.93516 4.35821 1.14332 4.40727 1.35211 4.45632 1.54299 4.48085 1.71593 4.48085 2.17187 4.48085 2.53538 4.3667 2.80642 4.13841 3.07747 3.91076 3.213 3.60637 3.213 3.22527 3.213 3.04415 3.17904 2.87246 3.11112 2.7102 3.04383 2.54858 2.92057 2.35771 2.74133 2.1376 2.69228 2.08037 2.536 1.9156 2.2725 1.64329 2.00962 1.37098 1.63826 0.990192 1.15842 0.500911Z" transform="matrix(1 0 0 -1.00186 224.144 29.3003)"/><path d="M0.69133 6.54406 1.36514 6.54406C1.7856 5.88193 2.1005 5.23326 2.30983 4.59809 2.51915 3.9638 2.62382 3.33357 2.62382 2.70737 2.62382 2.07848 2.51915 1.44555 2.30983 0.808574 2.1005 0.171597 1.7856-0.477058 1.36514-1.13739L0.69133-1.13739C1.06417-0.494129 1.34268 0.145543 1.52686 0.781621 1.71104 1.4177 1.80312 2.05961 1.80312 2.70737 1.80312 3.35603 1.71104 3.99615 1.52686 4.62774 1.34268 5.26022 1.06417 5.89899 0.69133 6.54406Z" transform="matrix(1 0 0 -1.00186 228.221 27.8827)"/><path d="M2.67368 6.54406C2.29814 5.89899 2.01874 5.26022 1.83546 4.62774 1.65309 3.99615 1.56189 3.35603 1.56189 2.70737 1.56189 2.05961 1.65398 1.4177 1.83816 0.781621 2.02234 0.145543 2.30084-0.494129 2.67368-1.13739L1.99987-1.13739C1.57941-0.477058 1.26452 0.171597 1.05519 0.808574 0.845858 1.44555 0.741193 2.07848 0.741193 2.70737 0.741193 3.33357 0.844959 3.9638 1.05249 4.59809 1.26093 5.23326 1.57672 5.88193 1.99987 6.54406L2.67368 6.54406Z" transform="matrix(1 0 0 -1.00186 122.549 111.498)"/><path d="M1.45678 6.28801 5.06167 6.28801 4.92287 5.57107 2.16428 5.57107 1.80312 3.71809 4.29622 3.71809 4.15607 3.0025 1.66297 3.0025 1.0781 0 0.231791 0 1.45678 6.28801Z" transform="matrix(1 0 0 -1.00186 125.914 111.498)"/><path d="M1.01072 1.07001 1.8988 1.07001 1.8988 0.344991 1.20882-1.00263 0.665726-1.00263 1.01072 0.344991 1.01072 1.07001Z" transform="matrix(1 0 0 -1.00186 130.875 111.498)"/><path d="M2.74106 5.7274C2.30353 5.7274 1.97427 5.51178 1.75326 5.08054 1.53315 4.6502 1.42309 4.00244 1.42309 3.13727 1.42309 2.27569 1.53315 1.62928 1.75326 1.19804 1.97427 0.766797 2.30353 0.551178 2.74106 0.551178 3.18218 0.551178 3.51281 0.766797 3.73292 1.19804 3.95393 1.62928 4.06443 2.27569 4.06443 3.13727 4.06443 4.00244 3.95393 4.6502 3.73292 5.08054 3.51281 5.51178 3.18218 5.7274 2.74106 5.7274ZM2.74106 6.40121C3.44632 6.40121 3.98492 6.12225 4.35686 5.56433 4.72881 5.00732 4.91478 4.19829 4.91478 3.13727 4.91478 2.07894 4.72881 1.27081 4.35686 0.712892 3.98492 0.155875 3.44632-0.122634 2.74106-0.122634 2.0367-0.122634 1.49856 0.155875 1.12661 0.712892 0.754669 1.27081 0.568697 2.07894 0.568697 3.13727 0.568697 4.19829 0.754669 5.00732 1.12661 5.56433 1.49856 6.12225 2.0367 6.40121 2.74106 6.40121Z" transform="matrix(1 0 0 -1.00186 135.297 111.498)"/><path d="M0.69133 6.54406 1.36514 6.54406C1.7856 5.88193 2.1005 5.23326 2.30983 4.59809 2.51915 3.9638 2.62382 3.33357 2.62382 2.70737 2.62382 2.07848 2.51915 1.44555 2.30983 0.808574 2.1005 0.171597 1.7856-0.477058 1.36514-1.13739L0.69133-1.13739C1.06417-0.494129 1.34268 0.145543 1.52686 0.781621 1.71104 1.4177 1.80312 2.05961 1.80312 2.70737 1.80312 3.35603 1.71104 3.99615 1.52686 4.62774 1.34268 5.26022 1.06417 5.89899 0.69133 6.54406Z" transform="matrix(1 0 0 -1.00186 140.784 111.498)"/><path d="M2.67368 6.54406C2.29814 5.89899 2.01874 5.26022 1.83546 4.62774 1.65309 3.99615 1.56189 3.35603 1.56189 2.70737 1.56189 2.05961 1.65398 1.4177 1.83816 0.781621 2.02234 0.145543 2.30084-0.494129 2.67368-1.13739L1.99987-1.13739C1.57941-0.477058 1.26452 0.171597 1.05519 0.808574 0.845858 1.44555 0.741193 2.07848 0.741193 2.70737 0.741193 3.33357 0.844959 3.9638 1.05249 4.59809 1.26093 5.23326 1.57672 5.88193 1.99987 6.54406L2.67368 6.54406Z" transform="matrix(1 0 0 -1.00186 202.072 111.498)"/><path d="M1.45678 6.28801 5.06167 6.28801 4.92287 5.57107 2.16428 5.57107 1.80312 3.71809 4.29622 3.71809 4.15607 3.0025 1.66297 3.0025 1.0781 0 0.231791 0 1.45678 6.28801Z" transform="matrix(1 0 0 -1.00186 205.436 111.498)"/><path d="M3.9674 5.40801 3.9674 3.0618 6.31227 3.0618 6.31227 2.34621 3.9674 2.34621 3.9674 0 3.2599 0 3.2599 2.34621 0.913688 2.34621 0.913688 3.0618 3.2599 3.0618 3.2599 5.40801 3.9674 5.40801Z" transform="matrix(1 0 0 -1.00186 212.078 111.498)"/><path d="M0.509401 6.28801 5.82847 6.28801 5.69371 5.57107 3.44857 5.57107 2.37047 0 1.51608 0 2.59417 5.57107 0.370596 5.57107 0.509401 6.28801Z" transform="matrix(1 0 0 -1.00186 220.985 111.498)"/><path d="M1.01072 1.07001 1.8988 1.07001 1.8988 0.344991 1.20882-1.00263 0.665726-1.00263 1.01072 0.344991 1.01072 1.07001Z" transform="matrix(1 0 0 -1.00186 226.253 111.498)"/><path d="M2.74106 5.7274C2.30353 5.7274 1.97427 5.51178 1.75326 5.08054 1.53315 4.6502 1.42309 4.00244 1.42309 3.13727 1.42309 2.27569 1.53315 1.62928 1.75326 1.19804 1.97427 0.766797 2.30353 0.551178 2.74106 0.551178 3.18218 0.551178 3.51281 0.766797 3.73292 1.19804 3.95393 1.62928 4.06443 2.27569 4.06443 3.13727 4.06443 4.00244 3.95393 4.6502 3.73292 5.08054 3.51281 5.51178 3.18218 5.7274 2.74106 5.7274ZM2.74106 6.40121C3.44632 6.40121 3.98492 6.12225 4.35686 5.56433 4.72881 5.00732 4.91478 4.19829 4.91478 3.13727 4.91478 2.07894 4.72881 1.27081 4.35686 0.712892 3.98492 0.155875 3.44632-0.122634 2.74106-0.122634 2.0367-0.122634 1.49856 0.155875 1.12661 0.712892 0.754669 1.27081 0.568697 2.07894 0.568697 3.13727 0.568697 4.19829 0.754669 5.00732 1.12661 5.56433 1.49856 6.12225 2.0367 6.40121 2.74106 6.40121Z" transform="matrix(1 0 0 -1.00186 230.675 111.498)"/><path d="M0.69133 6.54406 1.36514 6.54406C1.7856 5.88193 2.1005 5.23326 2.30983 4.59809 2.51915 3.9638 2.62382 3.33357 2.62382 2.70737 2.62382 2.07848 2.51915 1.44555 2.30983 0.808574 2.1005 0.171597 1.7856-0.477058 1.36514-1.13739L0.69133-1.13739C1.06417-0.494129 1.34268 0.145543 1.52686 0.781621 1.71104 1.4177 1.80312 2.05961 1.80312 2.70737 1.80312 3.35603 1.71104 3.99615 1.52686 4.62774 1.34268 5.26022 1.06417 5.89899 0.69133 6.54406Z" transform="matrix(1 0 0 -1.00186 236.162 111.498)"/><path d="M1.45678 6.28801 3.2855 6.28801C4.2567 6.28801 4.9898 6.08227 5.48483 5.6708 5.98075 5.25933 6.22871 4.64795 6.22871 3.83668 6.22871 3.30033 6.13438 2.78419 5.94571 2.28826 5.75795 1.79324 5.4983 1.37592 5.16679 1.03632 4.83348 0.687736 4.40987 0.427645 3.89598 0.256048 3.38209 0.0853494 2.77431 0 2.07264 0L0.231791 0 1.45678 6.28801ZM2.17372 5.58859 1.22499 0.699416 2.33678 0.699416C3.2891 0.699416 4.02625 0.972984 4.54823 1.52012 5.0702 2.06816 5.3312 2.84034 5.3312 3.83668 5.3312 4.44042 5.16274 4.88334 4.82584 5.16544 4.48893 5.44754 3.96111 5.58859 3.24238 5.58859L2.17372 5.58859Z" transform="matrix(1 0 0 -1.00186 184.684 6.66345)"/><path d="M1.65488 0.715588 4.62369 0.715588 4.62369 0 0.632035 0 0.632035 0.715588C0.954566 1.0498 1.39434 1.49811 1.95136 2.06052 2.50927 2.62382 2.85966 2.98724 3.0025 3.15074 3.27472 3.45621 3.46474 3.71495 3.57255 3.92697 3.68126 4.13899 3.73561 4.34743 3.73561 4.55227 3.73561 4.88648 3.61837 5.1587 3.38388 5.36893 3.14939 5.58006 2.84393 5.68562 2.4675 5.68562 2.20067 5.68562 1.91901 5.63936 1.62254 5.54682 1.32696 5.45427 1.01072 5.31368 0.673811 5.12501L0.673811 5.98479C1.01611 6.12225 1.33594 6.22602 1.63332 6.29609 1.93159 6.36617 2.20427 6.40121 2.45133 6.40121 3.10267 6.40121 3.62197 6.23815 4.00918 5.91202 4.39639 5.5868 4.59 5.15196 4.59 4.60752 4.59 4.34878 4.54149 4.10351 4.44446 3.87172 4.34833 3.64083 4.17224 3.36815 3.91619 3.05371 3.84612 2.97195 3.62285 2.73658 3.24642 2.34756 2.87088 1.95854 2.34038 1.41456 1.65488 0.715588Z" transform="matrix(1 0 0 -1.00186 185.288 15.7768)"/><path d="M0 1.6468 0 2.18585 6.64126 2.18585 6.64126 1.6468 0 1.6468Z" transform="matrix(1 0 0 -1.00186 184.684 10.4735)"/><path d="M0.913688 3.0618 6.31227 3.0618 6.31227 2.34621 0.913688 2.34621 0.913688 3.0618Z" transform="matrix(1 0 0 -1.00186 174.251 219.487)"/><path d="M1.45678 6.28801 3.2855 6.28801C4.2567 6.28801 4.9898 6.08227 5.48483 5.6708 5.98075 5.25933 6.22871 4.64795 6.22871 3.83668 6.22871 3.30033 6.13438 2.78419 5.94571 2.28826 5.75795 1.79324 5.4983 1.37592 5.16679 1.03632 4.83348 0.687736 4.40987 0.427645 3.89598 0.256048 3.38209 0.0853494 2.77431 0 2.07264 0L0.231791 0 1.45678 6.28801ZM2.17372 5.58859 1.22499 0.699416 2.33678 0.699416C3.2891 0.699416 4.02625 0.972984 4.54823 1.52012 5.0702 2.06816 5.3312 2.84034 5.3312 3.83668 5.3312 4.44042 5.16274 4.88334 4.82584 5.16544 4.48893 5.44754 3.96111 5.58859 3.24238 5.58859L2.17372 5.58859Z" transform="matrix(1 0 0 -1.00186 181.478 215.703)"/><path d="M1.65488 0.715588 4.62369 0.715588 4.62369 0 0.632035 0 0.632035 0.715588C0.954566 1.0498 1.39434 1.49811 1.95136 2.06052 2.50927 2.62382 2.85966 2.98724 3.0025 3.15074 3.27472 3.45621 3.46474 3.71495 3.57255 3.92697 3.68126 4.13899 3.73561 4.34743 3.73561 4.55227 3.73561 4.88648 3.61837 5.1587 3.38388 5.36893 3.14939 5.58006 2.84393 5.68562 2.4675 5.68562 2.20067 5.68562 1.91901 5.63936 1.62254 5.54682 1.32696 5.45427 1.01072 5.31368 0.673811 5.12501L0.673811 5.98479C1.01611 6.12225 1.33594 6.22602 1.63332 6.29609 1.93159 6.36617 2.20427 6.40121 2.45133 6.40121 3.10267 6.40121 3.62197 6.23815 4.00918 5.91202 4.39639 5.5868 4.59 5.15196 4.59 4.60752 4.59 4.34878 4.54149 4.10351 4.44446 3.87172 4.34833 3.64083 4.17224 3.36815 3.91619 3.05371 3.84612 2.97195 3.62285 2.73658 3.24642 2.34756 2.87088 1.95854 2.34038 1.41456 1.65488 0.715588Z" transform="matrix(1 0 0 -1.00186 182.082 224.816)"/><path d="M7.22663 1.6468 7.22663 2.18585 13.8679 2.18585 13.8679 1.6468 7.22663 1.6468Z" transform="matrix(1 0 0 -1.00186 174.251 219.513)"/></g></svg>