<svg width="400" height="228" xmlns="http://www.w3.org/2000/svg" xmlns:xlink="http://www.w3.org/1999/xlink" xml:space="preserve" overflow="hidden"><defs><clipPath id="clip0"><rect x="0" y="0" width="400" height="228"/></clipPath></defs><g clip-path="url(#clip0)"><path d="M0 299.943 399.924 299.943 399.924 0 0 0Z" fill="#FFFFFF" transform="matrix(1.00019 0 0 1 0 -35.9715)"/><g><path d="M204.454-43.4917 204.454-148.472 206.344-148.472 208.234-148.472 210.125-148.472 212.017-148.472 213.91-148.472 215.803-148.472 217.695-148.472 219.587-148.472 221.477-148.472 223.366-148.472 225.251-148.472 227.134-148.472 229.012-148.472 230.885-148.472 232.752-148.472 234.61-148.472 236.459-148.472 238.298-148.472 240.125-148.472 241.938-148.472 243.736-148.472 245.514-148.472 247.273-148.472 249.009-148.472 250.72-148.472 252.402-148.472 254.053-148.472 255.67-148.472 257.25-148.472 258.788-148.472 260.283-148.472 261.729-148.472 263.124-148.472 264.463-148.472 265.742-148.472 266.959-148.472 268.108-148.472 269.186-148.472 270.189-148.472 271.115-148.472 271.959-148.472 272.717-148.472 273.388-148.472 273.969-148.472 274.457-148.472 274.849-148.472 275.145-148.472 275.343-148.472 275.442-148.472 275.442-148.472 275.343-148.472 275.145-148.472 274.849-148.472 274.457-148.472 273.969-148.472 273.388-148.472 272.717-148.472 271.959-148.472 271.115-148.472 270.189-148.472 269.186-148.472 268.108-148.472 266.959-148.472 265.742-148.472 264.463-148.472 263.124-148.472 261.729-148.472 260.283-148.472 258.788-148.472 257.25-148.472 255.67-148.472 254.053-148.472 252.402-148.472 250.72-148.472 249.009-148.472 247.273-148.472 245.514-148.472 243.736-148.472 241.938-148.472 240.125-148.472 238.298-148.472 236.459-148.472 234.61-148.472 232.752-148.472 230.885-148.472 229.012-148.472 227.134-148.472 225.251-148.472 223.366-148.472 221.477-148.472 219.587-148.472 217.695-148.472 215.803-148.472 213.91-148.472 212.017-148.472 210.125-148.472 208.234-148.472 206.344-148.472 204.454-148.472 204.454-253.452 204.454-253.452 206.344-252.241 208.234-251.007 210.125-249.749 212.017-248.466 213.91-247.156 215.803-245.819 217.695-244.454 219.587-243.059 221.477-241.634 223.366-240.177 225.251-238.686 227.134-237.162 229.012-235.603 230.885-234.006 232.752-232.372 234.61-230.698 236.459-228.983 238.298-227.228 240.125-225.429 241.938-223.586 243.736-221.697 245.514-219.763 247.273-217.781 249.009-215.75 250.72-213.67 252.402-211.54 254.053-209.36 255.67-207.128 257.25-204.845 258.788-202.51 260.283-200.124 261.729-197.687 263.124-195.199 264.463-192.661 265.742-190.075 266.959-187.441 268.108-184.761 269.186-182.037 270.189-179.271 271.115-176.466 271.959-173.623 272.717-170.747 273.388-167.841 273.969-164.908 274.457-161.952 274.849-158.977 275.145-155.986 275.343-152.985 275.442-149.977 275.442-146.967 275.343-143.959 275.145-140.958 274.849-137.967 274.457-134.992 273.969-132.036 273.388-129.102 272.717-126.197 271.959-123.32 271.115-120.478 270.189-117.673 269.186-114.907 268.108-112.183 266.959-109.503 265.742-106.869 264.463-104.282 263.124-101.745 261.729-99.2563 260.283-96.8193 258.788-94.4334 257.25-92.0988 255.67-89.8154 254.053-87.584 252.402-85.4035 250.72-83.2735 249.009-81.1936 247.273-79.163 245.514-77.1807 243.736-75.2459 241.938-73.3576 240.125-71.5145 238.298-69.7157 236.459-67.9597 234.61-66.2457 232.752-64.5719 230.885-62.9375 229.012-61.3411 227.134-59.7813 225.251-58.257 223.366-56.7669 221.477-55.3098 219.587-53.8845 217.695-52.4898 215.803-51.1246 213.91-49.7877 212.017-48.478 210.125-47.1947 208.234-45.9365 206.344-44.7024 204.454-43.4917Z" stroke="#B0C4DE" stroke-width="0.867891" stroke-linejoin="round" fill="#B0C4DE" transform="matrix(1.00019 0 0 1 0 263.971)"/></g><g><path d="M204.454 256.451 206.344 255.241 208.234 254.006 210.125 252.748 212.017 251.465 213.91 250.156 215.803 248.818 217.695 247.453 219.587 246.058 221.477 244.633 223.366 243.176 225.251 241.686 227.134 240.162 229.012 238.602 230.885 237.005 232.752 235.371 234.61 233.698 236.459 231.983 238.298 230.227 240.125 228.429 241.938 226.585 243.736 224.697 245.514 222.762 247.273 220.78 249.009 218.749 250.72 216.67 252.402 214.54 254.053 212.359 255.67 210.128 257.25 207.844 258.788 205.51 260.283 203.124 261.729 200.687 263.124 198.198 264.463 195.661 265.742 193.074 266.959 190.44 268.108 187.76 269.186 185.036 270.189 182.27 271.115 179.465 271.959 176.623 272.717 173.746 273.388 170.841 273.969 167.907 274.457 164.951 274.849 161.976 275.145 158.985 275.343 155.984 275.442 152.976 275.442 149.966 275.343 146.958 275.145 143.957 274.849 140.966 274.457 137.991 273.969 135.035 273.388 132.102 272.717 129.196 271.959 126.32 271.115 123.477 270.189 120.672 269.186 117.906 268.108 115.182 266.959 112.502 265.742 109.868 264.463 107.282 263.124 104.744 261.729 102.256 260.283 99.8187 258.788 97.4329 257.25 95.0982 255.67 92.8148 254.053 90.5835 252.402 88.4025 250.72 86.2729 249.009 84.193 247.273 82.1624 245.514 80.1802 243.736 78.2454 241.938 76.357 240.125 74.514 238.298 72.7151 236.459 70.9592 234.61 69.2451 232.752 67.5714 230.885 65.937 229.012 64.3405 227.134 62.7808 225.251 61.2564 223.366 59.7663 221.477 58.3092 219.587 56.8839 217.695 55.4892 215.803 54.124 213.91 52.7871 212.017 51.4775 210.125 50.1941 208.234 48.9359 206.344 47.7019 204.454 46.4912" stroke="#1F77B4" stroke-width="1.73578" stroke-linecap="square" stroke-linejoin="round" fill="none" transform="matrix(1.00019 0 0 1 0 -35.9715)"/></g><g><path d="M204.454 256.451 204.454 46.4912" stroke="#1F77B4" stroke-width="1.73578" stroke-linecap="square" stroke-linejoin="round" fill="none" transform="matrix(1.00019 0 0 1 0 -35.9715)"/></g><g><path d="M99.4741 151.471 204.454 235.455" stroke="#696969" stroke-width="0.867891" stroke-linejoin="round" stroke-dasharray="3.2112 1.38862" fill="none" transform="matrix(1.00019 0 0 1 0 -35.9715)"/></g><g><path d="M204.454 235.455 223.177 243.324" stroke="#696969" stroke-width="0.867891" stroke-linejoin="round" stroke-dasharray="3.2112 1.38862" fill="none" transform="matrix(1.00019 0 0 1 0 -35.9715)"/></g><g><path d="M223.177 243.324 310.448 243.324" stroke="#696969" stroke-width="0.867891" stroke-linejoin="round" stroke-dasharray="3.2112 1.38862" fill="none" transform="matrix(1.00019 0 0 1 0 -35.9715)"/></g><g><path d="M99.4741 151.471 204.454 207.461" stroke="#696969" stroke-width="0.867891" stroke-linejoin="round" stroke-dasharray="3.2112 1.38862" fill="none" transform="matrix(1.00019 0 0 1 0 -35.9715)"/></g><g><path d="M204.454 207.461 247.448 220.58" stroke="#696969" stroke-width="0.867891" stroke-linejoin="round" stroke-dasharray="3.2112 1.38862" fill="none" transform="matrix(1.00019 0 0 1 0 -35.9715)"/></g><g><path d="M247.448 220.58 310.448 220.58" stroke="#696969" stroke-width="0.867891" stroke-linejoin="round" stroke-dasharray="3.2112 1.38862" fill="none" transform="matrix(1.00019 0 0 1 0 -35.9715)"/></g><g><path d="M99.4741 151.471 204.454 179.466" stroke="#696969" stroke-width="0.867891" stroke-linejoin="round" stroke-dasharray="3.2112 1.38862" fill="none" transform="matrix(1.00019 0 0 1 0 -35.9715)"/></g><g><path d="M204.454 179.466 267.31 189.641" stroke="#696969" stroke-width="0.867891" stroke-linejoin="round" stroke-dasharray="3.2112 1.38862" fill="none" transform="matrix(1.00019 0 0 1 0 -35.9715)"/></g><g><path d="M267.31 189.641 310.448 189.641" stroke="#696969" stroke-width="0.867891" stroke-linejoin="round" stroke-dasharray="3.2112 1.38862" fill="none" transform="matrix(1.00019 0 0 1 0 -35.9715)"/></g><g><path d="M99.4741 151.471 204.454 151.471" stroke="#696969" stroke-width="0.867891" stroke-linejoin="round" stroke-dasharray="3.2112 1.38862" fill="none" transform="matrix(1.00019 0 0 1 0 -35.9715)"/></g><g><path d="M204.454 151.471 275.455 151.471" stroke="#696969" stroke-width="0.867891" stroke-linejoin="round" stroke-dasharray="3.2112 1.38862" fill="none" transform="matrix(1.00019 0 0 1 0 -35.9715)"/></g><g><path d="M275.455 151.471 310.448 151.471" stroke="#696969" stroke-width="0.867891" stroke-linejoin="round" stroke-dasharray="3.2112 1.38862" fill="none" transform="matrix(1.00019 0 0 1 0 -35.9715)"/></g><g><path d="M99.4741 151.471 204.454 123.477" stroke="#696969" stroke-width="0.867891" stroke-linejoin="round" stroke-dasharray="3.2112 1.38862" fill="none" transform="matrix(1.00019 0 0 1 0 -35.9715)"/></g><g><path d="M204.454 123.477 267.31 113.301" stroke="#696969" stroke-width="0.867891" stroke-linejoin="round" stroke-dasharray="3.2112 1.38862" fill="none" transform="matrix(1.00019 0 0 1 0 -35.9715)"/></g><g><path d="M267.31 113.301 310.448 113.301" stroke="#696969" stroke-width="0.867891" stroke-linejoin="round" stroke-dasharray="3.2112 1.38862" fill="none" transform="matrix(1.00019 0 0 1 0 -35.9715)"/></g><g><path d="M99.4741 151.471 204.454 95.4818" stroke="#696969" stroke-width="0.867891" stroke-linejoin="round" stroke-dasharray="3.2112 1.38862" fill="none" transform="matrix(1.00019 0 0 1 0 -35.9715)"/></g><g><path d="M204.454 95.4818 247.448 82.3633" stroke="#696969" stroke-width="0.867891" stroke-linejoin="round" stroke-dasharray="3.2112 1.38862" fill="none" transform="matrix(1.00019 0 0 1 0 -35.9715)"/></g><g><path d="M247.448 82.3633 310.448 82.3633" stroke="#696969" stroke-width="0.867891" stroke-linejoin="round" stroke-dasharray="3.2112 1.38862" fill="none" transform="matrix(1.00019 0 0 1 0 -35.9715)"/></g><g><path d="M99.4741 151.471 204.454 67.4872" stroke="#696969" stroke-width="0.867891" stroke-linejoin="round" stroke-dasharray="3.2112 1.38862" fill="none" transform="matrix(1.00019 0 0 1 0 -35.9715)"/></g><g><path d="M204.454 67.4872 223.177 59.6191" stroke="#696969" stroke-width="0.867891" stroke-linejoin="round" stroke-dasharray="3.2112 1.38862" fill="none" transform="matrix(1.00019 0 0 1 0 -35.9715)"/></g><g><path d="M223.177 59.6191 310.448 59.6191" stroke="#696969" stroke-width="0.867891" stroke-linejoin="round" stroke-dasharray="3.2112 1.38862" fill="none" transform="matrix(1.00019 0 0 1 0 -35.9715)"/></g><g><path d="M0 2.60367C0.690502 2.60367 1.35282 2.32933 1.84107 1.84107 2.32933 1.35282 2.60367 0.690502 2.60367 0 2.60367-0.690502 2.32933-1.35282 1.84107-1.84107 1.35282-2.32933 0.690502-2.60367 0-2.60367-0.690502-2.60367-1.35282-2.32933-1.84107-1.84107-2.32933-1.35282-2.60367-0.690502-2.60367 0-2.60367 0.690502-2.32933 1.35282-1.84107 1.84107-1.35282 2.32933-0.690502 2.60367 0 2.60367Z" stroke="#000000" stroke-width="0.867891" stroke-linejoin="round" transform="matrix(1.00019 0 0 1 204.493 31.5157)"/></g><g><path d="M0 2.60367C0.690502 2.60367 1.35282 2.32933 1.84107 1.84107 2.32933 1.35282 2.60367 0.690502 2.60367 0 2.60367-0.690502 2.32933-1.35282 1.84107-1.84107 1.35282-2.32933 0.690502-2.60367 0-2.60367-0.690502-2.60367-1.35282-2.32933-1.84107-1.84107-2.32933-1.35282-2.60367-0.690502-2.60367 0-2.60367 0.690502-2.32933 1.35282-1.84107 1.84107-1.35282 2.32933-0.690502 2.60367 0 2.60367Z" stroke="#000000" stroke-width="0.867891" stroke-linejoin="round" transform="matrix(1.00019 0 0 1 223.22 23.6476)"/></g><g><path d="M0 2.60367C0.690502 2.60367 1.35282 2.32933 1.84107 1.84107 2.32933 1.35282 2.60367 0.690502 2.60367 0 2.60367-0.690502 2.32933-1.35282 1.84107-1.84107 1.35282-2.32933 0.690502-2.60367 0-2.60367-0.690502-2.60367-1.35282-2.32933-1.84107-1.84107-2.32933-1.35282-2.60367-0.690502-2.60367 0-2.60367 0.690502-2.32933 1.35282-1.84107 1.84107-1.35282 2.32933-0.690502 2.60367 0 2.60367Z" stroke="#000000" stroke-width="0.867891" stroke-linejoin="round" transform="matrix(1.00019 0 0 1 204.493 115.5)"/></g><g><path d="M0 2.60367C0.690502 2.60367 1.35282 2.32933 1.84107 1.84107 2.32933 1.35282 2.60367 0.690502 2.60367 0 2.60367-0.690502 2.32933-1.35282 1.84107-1.84107 1.35282-2.32933 0.690502-2.60367 0-2.60367-0.690502-2.60367-1.35282-2.32933-1.84107-1.84107-2.32933-1.35282-2.60367-0.690502-2.60367 0-2.60367 0.690502-2.32933 1.35282-1.84107 1.84107-1.35282 2.32933-0.690502 2.60367 0 2.60367Z" stroke="#000000" stroke-width="0.867891" stroke-linejoin="round" transform="matrix(1.00019 0 0 1 275.507 115.5)"/></g><path d="M2.69046 6.58512C2.31256 5.93601 2.03141 5.29322 1.84698 4.65678 1.66346 4.02122 1.5717 3.37708 1.5717 2.72436 1.5717 2.07254 1.66436 1.4266 1.84969 0.786526 2.03503 0.146457 2.31527-0.497229 2.69046-1.14453L2.01242-1.14453C1.58932-0.480052 1.27245 0.172674 1.06181 0.813647 0.851166 1.45463 0.745843 2.09152 0.745843 2.72436 0.745843 3.35449 0.850262 3.98868 1.0591 4.62694 1.26884 5.2661 1.58661 5.91884 2.01242 6.58512L2.69046 6.58512Z" transform="matrix(1.00019 0 0 -1 78.4931 111.99)"/><path d="M2.75826 5.76334C2.31799 5.76334 1.98666 5.54636 1.76426 5.11242 1.54277 4.67938 1.43202 4.02755 1.43202 3.15695 1.43202 2.28997 1.54277 1.6395 1.76426 1.20555 1.98666 0.771609 2.31799 0.554636 2.75826 0.554636 3.20215 0.554636 3.53485 0.771609 3.75634 1.20555 3.97874 1.6395 4.08993 2.28997 4.08993 3.15695 4.08993 4.02755 3.97874 4.67938 3.75634 5.11242 3.53485 5.54636 3.20215 5.76334 2.75826 5.76334ZM2.75826 6.44138C3.46794 6.44138 4.00993 6.16067 4.3842 5.59925 4.75848 5.03874 4.94562 4.22463 4.94562 3.15695 4.94562 2.09198 4.75848 1.27878 4.3842 0.717366 4.00993 0.156854 3.46794-0.123403 2.75826-0.123403 2.04948-0.123403 1.50796 0.156854 1.13368 0.717366 0.759404 1.27878 0.572265 2.09198 0.572265 3.15695 0.572265 4.22463 0.759404 5.03874 1.13368 5.59925 1.50796 6.16067 2.04948 6.44138 2.75826 6.44138Z" transform="matrix(1.00019 0 0 -1 81.8797 111.99)"/><path d="M1.01706 1.07673 1.91072 1.07673 1.91072 0.347156 1.2164-1.00892 0.669903-1.00892 1.01706 0.347156 1.01706 1.07673Z" transform="matrix(1.00019 0 0 -1 87.4026 111.99)"/><path d="M2.75826 5.76334C2.31799 5.76334 1.98666 5.54636 1.76426 5.11242 1.54277 4.67938 1.43202 4.02755 1.43202 3.15695 1.43202 2.28997 1.54277 1.6395 1.76426 1.20555 1.98666 0.771609 2.31799 0.554636 2.75826 0.554636 3.20215 0.554636 3.53485 0.771609 3.75634 1.20555 3.97874 1.6395 4.08993 2.28997 4.08993 3.15695 4.08993 4.02755 3.97874 4.67938 3.75634 5.11242 3.53485 5.54636 3.20215 5.76334 2.75826 5.76334ZM2.75826 6.44138C3.46794 6.44138 4.00993 6.16067 4.3842 5.59925 4.75848 5.03874 4.94562 4.22463 4.94562 3.15695 4.94562 2.09198 4.75848 1.27878 4.3842 0.717366 4.00993 0.156854 3.46794-0.123403 2.75826-0.123403 2.04948-0.123403 1.50796 0.156854 1.13368 0.717366 0.759404 1.27878 0.572265 2.09198 0.572265 3.15695 0.572265 4.22463 0.759404 5.03874 1.13368 5.59925 1.50796 6.16067 2.04948 6.44138 2.75826 6.44138Z" transform="matrix(1.00019 0 0 -1 91.853 111.99)"/><path d="M0.695669 6.58512 1.37371 6.58512C1.7968 5.91884 2.11368 5.2661 2.32432 4.62694 2.53496 3.98868 2.64029 3.35449 2.64029 2.72436 2.64029 2.09152 2.53496 1.45463 2.32432 0.813647 2.11368 0.172674 1.7968-0.480052 1.37371-1.14453L0.695669-1.14453C1.07085-0.497229 1.35111 0.146457 1.53644 0.786526 1.72177 1.4266 1.81443 2.07254 1.81443 2.72436 1.81443 3.37708 1.72177 4.02122 1.53644 4.65678 1.35111 5.29322 1.07085 5.93601 0.695669 6.58512Z" transform="matrix(1.00019 0 0 -1 97.3759 111.99)"/><path d="M2.69046 6.58512C2.31256 5.93601 2.03141 5.29322 1.84698 4.65678 1.66346 4.02122 1.5717 3.37708 1.5717 2.72436 1.5717 2.07254 1.66436 1.4266 1.84969 0.786526 2.03503 0.146457 2.31527-0.497229 2.69046-1.14453L2.01242-1.14453C1.58932-0.480052 1.27245 0.172674 1.06181 0.813647 0.851166 1.45463 0.745843 2.09152 0.745843 2.72436 0.745843 3.35449 0.850262 3.98868 1.0591 4.62694 1.26884 5.2661 1.58661 5.91884 2.01242 6.58512L2.69046 6.58512Z" transform="matrix(1.00019 0 0 -1 172.993 28.0055)"/><path d="M5.2087 4.74628 3.02948 2.41925 4.36522 0 3.47021 0 2.46671 1.88224 0.720078 0-0.225109 0 2.11006 2.50061 0.869247 4.74628 1.7629 4.74628 2.67419 3.02948 4.26351 4.74628 5.2087 4.74628Z" transform="matrix(1.00019 0 0 -1 176.38 28.0055)"/><path d="M0.753709 0.504055 1.73239 0.504055 1.73239 3.8834 0.667327 3.66982 0.667327 4.21564 1.7267 4.42923 2.32568 4.42923 2.32568 0.504055 3.30436 0.504055 3.30436 0 0.753709 0 0.753709 0.504055Z" transform="matrix(1.00019 0 0 -1 181.517 29.4294)"/><path d="M1.01706 1.07673 1.91072 1.07673 1.91072 0.347156 1.2164-1.00892 0.669903-1.00892 1.01706 0.347156 1.01706 1.07673Z" transform="matrix(1.00019 0 0 -1 185.62 28.0055)"/><path d="M2.15345-0.440726C1.79183-1.04825 1.49711-1.4275 1.26929-1.57848 1.04147-1.72945 0.751268-1.80494 0.398687-1.80494L-0.215617-1.80494-0.085433-1.15267 0.364785-1.15267C0.581758-1.15267 0.766636-1.09345 0.919422-0.975021 1.07221-0.85659 1.24307-0.624701 1.43202-0.279352L1.6734 0.173578 0.62244 4.74628 1.44965 4.74628 2.23753 1.11063 4.41539 4.74628 5.23311 4.74628 2.15345-0.440726Z" transform="matrix(1.00019 0 0 -1 190.071 28.0055)"/><path d="M0.753709 0.504055 1.73239 0.504055 1.73239 3.8834 0.667327 3.66982 0.667327 4.21564 1.7267 4.42923 2.32568 4.42923 2.32568 0.504055 3.30436 0.504055 3.30436 0 0.753709 0 0.753709 0.504055Z" transform="matrix(1.00019 0 0 -1 195.208 29.4294)"/><path d="M0.695669 6.58512 1.37371 6.58512C1.7968 5.91884 2.11368 5.2661 2.32432 4.62694 2.53496 3.98868 2.64029 3.35449 2.64029 2.72436 2.64029 2.09152 2.53496 1.45463 2.32432 0.813647 2.11368 0.172674 1.7968-0.480052 1.37371-1.14453L0.695669-1.14453C1.07085-0.497229 1.35111 0.146457 1.53644 0.786526 1.72177 1.4266 1.81443 2.07254 1.81443 2.72436 1.81443 3.37708 1.72177 4.02122 1.53644 4.65678 1.35111 5.29322 1.07085 5.93601 0.695669 6.58512Z" transform="matrix(1.00019 0 0 -1 199.311 28.0055)"/><path d="M2.69046 6.58512C2.31256 5.93601 2.03141 5.29322 1.84698 4.65678 1.66346 4.02122 1.5717 3.37708 1.5717 2.72436 1.5717 2.07254 1.66436 1.4266 1.84969 0.786526 2.03503 0.146457 2.31527-0.497229 2.69046-1.14453L2.01242-1.14453C1.58932-0.480052 1.27245 0.172674 1.06181 0.813647 0.851166 1.45463 0.745843 2.09152 0.745843 2.72436 0.745843 3.35449 0.850262 3.98868 1.0591 4.62694 1.26884 5.2661 1.58661 5.91884 2.01242 6.58512L2.69046 6.58512Z" transform="matrix(1.00019 0 0 -1 218.493 14.0082)"/><path d="M5.2087 4.74628 3.02948 2.41925 4.36522 0 3.47021 0 2.46671 1.88224 0.720078 0-0.225109 0 2.11006 2.50061 0.869247 4.74628 1.7629 4.74628 2.67419 3.02948 4.26351 4.74628 5.2087 4.74628Z" transform="matrix(1.00019 0 0 -1 221.88 14.0082)"/><path d="M1.16569 0.504055 3.2569 0.504055 3.2569 0 0.445201 0 0.445201 0.504055C0.672389 0.73947 0.982166 1.05526 1.37452 1.45141 1.76751 1.8482 2.01432 2.10419 2.11494 2.21936 2.30669 2.43453 2.44054 2.61678 2.51648 2.76613 2.59305 2.91548 2.63134 3.0623 2.63134 3.20658 2.63134 3.442 2.54875 3.63375 2.38358 3.78183 2.21841 3.93055 2.00324 4.00491 1.73809 4.00491 1.55013 4.00491 1.35174 3.97232 1.1429 3.90714 0.9347 3.84195 0.711942 3.74291 0.474628 3.61002L0.474628 4.21564C0.715739 4.31247 0.941028 4.38556 1.1505 4.43492 1.3606 4.48428 1.55267 4.50896 1.7267 4.50896 2.1855 4.50896 2.55129 4.3941 2.82403 4.16438 3.09678 3.9353 3.23316 3.629 3.23316 3.2455 3.23316 3.06325 3.19899 2.89048 3.13064 2.72721 3.06293 2.56457 2.93889 2.3725 2.75854 2.15101 2.70917 2.09342 2.55191 1.92762 2.28676 1.6536 2.02223 1.37958 1.64854 0.996405 1.16569 0.504055Z" transform="matrix(1.00019 0 0 -1 227.017 15.432)"/><path d="M1.01706 1.07673 1.91072 1.07673 1.91072 0.347156 1.2164-1.00892 0.669903-1.00892 1.01706 0.347156 1.01706 1.07673Z" transform="matrix(1.00019 0 0 -1 231.12 14.0082)"/><path d="M2.15345-0.440726C1.79183-1.04825 1.49711-1.4275 1.26929-1.57848 1.04147-1.72945 0.751268-1.80494 0.398687-1.80494L-0.215617-1.80494-0.085433-1.15267 0.364785-1.15267C0.581758-1.15267 0.766636-1.09345 0.919422-0.975021 1.07221-0.85659 1.24307-0.624701 1.43202-0.279352L1.6734 0.173578 0.62244 4.74628 1.44965 4.74628 2.23753 1.11063 4.41539 4.74628 5.23311 4.74628 2.15345-0.440726Z" transform="matrix(1.00019 0 0 -1 235.571 14.0082)"/><path d="M1.16569 0.504055 3.2569 0.504055 3.2569 0 0.445201 0 0.445201 0.504055C0.672389 0.73947 0.982166 1.05526 1.37452 1.45141 1.76751 1.8482 2.01432 2.10419 2.11494 2.21936 2.30669 2.43453 2.44054 2.61678 2.51648 2.76613 2.59305 2.91548 2.63134 3.0623 2.63134 3.20658 2.63134 3.442 2.54875 3.63375 2.38358 3.78183 2.21841 3.93055 2.00324 4.00491 1.73809 4.00491 1.55013 4.00491 1.35174 3.97232 1.1429 3.90714 0.9347 3.84195 0.711942 3.74291 0.474628 3.61002L0.474628 4.21564C0.715739 4.31247 0.941028 4.38556 1.1505 4.43492 1.3606 4.48428 1.55267 4.50896 1.7267 4.50896 2.1855 4.50896 2.55129 4.3941 2.82403 4.16438 3.09678 3.9353 3.23316 3.629 3.23316 3.2455 3.23316 3.06325 3.19899 2.89048 3.13064 2.72721 3.06293 2.56457 2.93889 2.3725 2.75854 2.15101 2.70917 2.09342 2.55191 1.92762 2.28676 1.6536 2.02223 1.37958 1.64854 0.996405 1.16569 0.504055Z" transform="matrix(1.00019 0 0 -1 240.708 15.432)"/><path d="M0.695669 6.58512 1.37371 6.58512C1.7968 5.91884 2.11368 5.2661 2.32432 4.62694 2.53496 3.98868 2.64029 3.35449 2.64029 2.72436 2.64029 2.09152 2.53496 1.45463 2.32432 0.813647 2.11368 0.172674 1.7968-0.480052 1.37371-1.14453L0.695669-1.14453C1.07085-0.497229 1.35111 0.146457 1.53644 0.786526 1.72177 1.4266 1.81443 2.07254 1.81443 2.72436 1.81443 3.37708 1.72177 4.02122 1.53644 4.65678 1.35111 5.29322 1.07085 5.93601 0.695669 6.58512Z" transform="matrix(1.00019 0 0 -1 244.811 14.0082)"/><path d="M2.69046 6.58512C2.31256 5.93601 2.03141 5.29322 1.84698 4.65678 1.66346 4.02122 1.5717 3.37708 1.5717 2.72436 1.5717 2.07254 1.66436 1.4266 1.84969 0.786526 2.03503 0.146457 2.31527-0.497229 2.69046-1.14453L2.01242-1.14453C1.58932-0.480052 1.27245 0.172674 1.06181 0.813647 0.851166 1.45463 0.745843 2.09152 0.745843 2.72436 0.745843 3.35449 0.850262 3.98868 1.0591 4.62694 1.26884 5.2661 1.58661 5.91884 2.01242 6.58512L2.69046 6.58512Z" transform="matrix(1.00019 0 0 -1 178.243 111.99)"/><path d="M1.46592 6.32746 5.09343 6.32746 4.95376 5.60603 2.17786 5.60603 1.81443 3.74142 4.32318 3.74142 4.18215 3.02134 1.6734 3.02134 1.08486 0 0.233246 0 1.46592 6.32746Z" transform="matrix(1.00019 0 0 -1 181.63 111.99)"/><path d="M1.01706 1.07673 1.91072 1.07673 1.91072 0.347156 1.2164-1.00892 0.669903-1.00892 1.01706 0.347156 1.01706 1.07673Z" transform="matrix(1.00019 0 0 -1 186.623 111.99)"/><path d="M2.75826 5.76334C2.31799 5.76334 1.98666 5.54636 1.76426 5.11242 1.54277 4.67938 1.43202 4.02755 1.43202 3.15695 1.43202 2.28997 1.54277 1.6395 1.76426 1.20555 1.98666 0.771609 2.31799 0.554636 2.75826 0.554636 3.20215 0.554636 3.53485 0.771609 3.75634 1.20555 3.97874 1.6395 4.08993 2.28997 4.08993 3.15695 4.08993 4.02755 3.97874 4.67938 3.75634 5.11242 3.53485 5.54636 3.20215 5.76334 2.75826 5.76334ZM2.75826 6.44138C3.46794 6.44138 4.00993 6.16067 4.3842 5.59925 4.75848 5.03874 4.94562 4.22463 4.94562 3.15695 4.94562 2.09198 4.75848 1.27878 4.3842 0.717366 4.00993 0.156854 3.46794-0.123403 2.75826-0.123403 2.04948-0.123403 1.50796 0.156854 1.13368 0.717366 0.759404 1.27878 0.572265 2.09198 0.572265 3.15695 0.572265 4.22463 0.759404 5.03874 1.13368 5.59925 1.50796 6.16067 2.04948 6.44138 2.75826 6.44138Z" transform="matrix(1.00019 0 0 -1 191.073 111.99)"/><path d="M0.695669 6.58512 1.37371 6.58512C1.7968 5.91884 2.11368 5.2661 2.32432 4.62694 2.53496 3.98868 2.64029 3.35449 2.64029 2.72436 2.64029 2.09152 2.53496 1.45463 2.32432 0.813647 2.11368 0.172674 1.7968-0.480052 1.37371-1.14453L0.695669-1.14453C1.07085-0.497229 1.35111 0.146457 1.53644 0.786526 1.72177 1.4266 1.81443 2.07254 1.81443 2.72436 1.81443 3.37708 1.72177 4.02122 1.53644 4.65678 1.35111 5.29322 1.07085 5.93601 0.695669 6.58512Z" transform="matrix(1.00019 0 0 -1 196.596 111.99)"/><path d="M2.69046 6.58512C2.31256 5.93601 2.03141 5.29322 1.84698 4.65678 1.66346 4.02122 1.5717 3.37708 1.5717 2.72436 1.5717 2.07254 1.66436 1.4266 1.84969 0.786526 2.03503 0.146457 2.31527-0.497229 2.69046-1.14453L2.01242-1.14453C1.58932-0.480052 1.27245 0.172674 1.06181 0.813647 0.851166 1.45463 0.745843 2.09152 0.745843 2.72436 0.745843 3.35449 0.850262 3.98868 1.0591 4.62694 1.26884 5.2661 1.58661 5.91884 2.01242 6.58512L2.69046 6.58512Z" transform="matrix(1.00019 0 0 -1 279.007 111.99)"/><path d="M1.46592 6.32746 5.09343 6.32746 4.95376 5.60603 2.17786 5.60603 1.81443 3.74142 4.32318 3.74142 4.18215 3.02134 1.6734 3.02134 1.08486 0 0.233246 0 1.46592 6.32746Z" transform="matrix(1.00019 0 0 -1 282.394 111.99)"/><path d="M3.9923 5.44195 3.9923 3.08101 6.35187 3.08101 6.35187 2.36093 3.9923 2.36093 3.9923 0 3.28036 0 3.28036 2.36093 0.919422 2.36093 0.919422 3.08101 3.28036 3.08101 3.28036 5.44195 3.9923 5.44195Z" transform="matrix(1.00019 0 0 -1 289.078 111.99)"/><path d="M0.512598 6.32746 5.86504 6.32746 5.72943 5.60603 3.47021 5.60603 2.38534 0 1.52559 0 2.61045 5.60603 0.372922 5.60603 0.512598 6.32746Z" transform="matrix(1.00019 0 0 -1 298.042 111.99)"/><path d="M1.01706 1.07673 1.91072 1.07673 1.91072 0.347156 1.2164-1.00892 0.669903-1.00892 1.01706 0.347156 1.01706 1.07673Z" transform="matrix(1.00019 0 0 -1 303.345 111.99)"/><path d="M2.75826 5.76334C2.31799 5.76334 1.98666 5.54636 1.76426 5.11242 1.54277 4.67938 1.43202 4.02755 1.43202 3.15695 1.43202 2.28997 1.54277 1.6395 1.76426 1.20555 1.98666 0.771609 2.31799 0.554636 2.75826 0.554636 3.20215 0.554636 3.53485 0.771609 3.75634 1.20555 3.97874 1.6395 4.08993 2.28997 4.08993 3.15695 4.08993 4.02755 3.97874 4.67938 3.75634 5.11242 3.53485 5.54636 3.20215 5.76334 2.75826 5.76334ZM2.75826 6.44138C3.46794 6.44138 4.00993 6.16067 4.3842 5.59925 4.75848 5.03874 4.94562 4.22463 4.94562 3.15695 4.94562 2.09198 4.75848 1.27878 4.3842 0.717366 4.00993 0.156854 3.46794-0.123403 2.75826-0.123403 2.04948-0.123403 1.50796 0.156854 1.13368 0.717366 0.759404 1.27878 0.572265 2.09198 0.572265 3.15695 0.572265 4.22463 0.759404 5.03874 1.13368 5.59925 1.50796 6.16067 2.04948 6.44138 2.75826 6.44138Z" transform="matrix(1.00019 0 0 -1 307.795 111.99)"/><path d="M0.695669 6.58512 1.37371 6.58512C1.7968 5.91884 2.11368 5.2661 2.32432 4.62694 2.53496 3.98868 2.64029 3.35449 2.64029 2.72436 2.64029 2.09152 2.53496 1.45463 2.32432 0.813647 2.11368 0.172674 1.7968-0.480052 1.37371-1.14453L0.695669-1.14453C1.07085-0.497229 1.35111 0.146457 1.53644 0.786526 1.72177 1.4266 1.81443 2.07254 1.81443 2.72436 1.81443 3.37708 1.72177 4.02122 1.53644 4.65678 1.35111 5.29322 1.07085 5.93601 0.695669 6.58512Z" transform="matrix(1.00019 0 0 -1 313.318 111.99)"/><path d="M1.46592 6.32746 3.30612 6.32746C4.28341 6.32746 5.02111 6.12043 5.51924 5.70638 6.01828 5.29233 6.2678 4.67712 6.2678 3.86076 6.2678 3.32104 6.17287 2.80166 5.98302 2.30262 5.79408 1.80449 5.5328 1.38456 5.19921 1.04282 4.86381 0.692052 4.43754 0.430329 3.92042 0.257655 3.40331 0.085885 2.79172 0 2.08565 0L0.233246 0 1.46592 6.32746ZM2.18736 5.62366 1.23268 0.703805 2.35144 0.703805C3.30974 0.703805 4.05152 0.979089 4.57677 1.52966 5.10202 2.08113 5.36465 2.85817 5.36465 3.86076 5.36465 4.46828 5.19514 4.91398 4.85612 5.19785 4.5171 5.48172 3.98596 5.62366 3.26273 5.62366L2.18736 5.62366Z" transform="matrix(1.00019 0 0 -1 193.993 6.69281)"/><path d="M1.66527 0.720078 4.65271 0.720078 4.65271 0 0.636001 0 0.636001 0.720078C0.960556 1.05639 1.40309 1.50751 1.9636 2.07344 2.52502 2.64029 2.8776 3.00598 3.02134 3.17051 3.29527 3.4779 3.48648 3.73826 3.59497 3.95161 3.70436 4.16497 3.75905 4.37471 3.75905 4.58083 3.75905 4.91714 3.64107 5.19107 3.40511 5.40262 3.16916 5.61508 2.86177 5.7213 2.48298 5.7213 2.21448 5.7213 1.93106 5.67474 1.63272 5.58162 1.33529 5.4885 1.01706 5.34702 0.678039 5.15717L0.678039 6.02235C1.02248 6.16067 1.34433 6.26509 1.64357 6.3356 1.94371 6.40612 2.2181 6.44138 2.46671 6.44138 3.12214 6.44138 3.64469 6.27729 4.03434 5.94912 4.42398 5.62186 4.6188 5.18429 4.6188 4.63643 4.6188 4.37607 4.56999 4.12926 4.47235 3.89601 4.37562 3.66368 4.19842 3.38929 3.94077 3.07288 3.87025 2.9906 3.64559 2.75375 3.26679 2.36229 2.8889 1.97083 2.35506 1.42344 1.66527 0.720078Z" transform="matrix(1.00019 0 0 -1 194.601 15.8463)"/><path d="M0 1.65713 0 2.19956 6.68293 2.19956 6.68293 1.65713 0 1.65713Z" transform="matrix(1.00019 0 0 -1 193.993 10.5197)"/><path d="M0.919422 3.08101 6.35187 3.08101 6.35187 2.36093 0.919422 2.36093 0.919422 3.08101Z" transform="matrix(1.00019 0 0 -1 186.993 220.454)"/><path d="M1.46592 6.32746 3.30612 6.32746C4.28341 6.32746 5.02111 6.12043 5.51924 5.70638 6.01828 5.29233 6.2678 4.67712 6.2678 3.86076 6.2678 3.32104 6.17287 2.80166 5.98302 2.30262 5.79408 1.80449 5.5328 1.38456 5.19921 1.04282 4.86381 0.692052 4.43754 0.430329 3.92042 0.257655 3.40331 0.085885 2.79172 0 2.08565 0L0.233246 0 1.46592 6.32746ZM2.18736 5.62366 1.23268 0.703805 2.35144 0.703805C3.30974 0.703805 4.05152 0.979089 4.57677 1.52966 5.10202 2.08113 5.36465 2.85817 5.36465 3.86076 5.36465 4.46828 5.19514 4.91398 4.85612 5.19785 4.5171 5.48172 3.98596 5.62366 3.26273 5.62366L2.18736 5.62366Z" transform="matrix(1.00019 0 0 -1 194.266 216.653)"/><path d="M1.66527 0.720078 4.65271 0.720078 4.65271 0 0.636001 0 0.636001 0.720078C0.960556 1.05639 1.40309 1.50751 1.9636 2.07344 2.52502 2.64029 2.8776 3.00598 3.02134 3.17051 3.29527 3.4779 3.48648 3.73826 3.59497 3.95161 3.70436 4.16497 3.75905 4.37471 3.75905 4.58083 3.75905 4.91714 3.64107 5.19107 3.40511 5.40262 3.16916 5.61508 2.86177 5.7213 2.48298 5.7213 2.21448 5.7213 1.93106 5.67474 1.63272 5.58162 1.33529 5.4885 1.01706 5.34702 0.678039 5.15717L0.678039 6.02235C1.02248 6.16067 1.34433 6.26509 1.64357 6.3356 1.94371 6.40612 2.2181 6.44138 2.46671 6.44138 3.12214 6.44138 3.64469 6.27729 4.03434 5.94912 4.42398 5.62186 4.6188 5.18429 4.6188 4.63643 4.6188 4.37607 4.56999 4.12926 4.47235 3.89601 4.37562 3.66368 4.19842 3.38929 3.94077 3.07288 3.87025 2.9906 3.64559 2.75375 3.26679 2.36229 2.8889 1.97083 2.35506 1.42344 1.66527 0.720078Z" transform="matrix(1.00019 0 0 -1 194.874 225.806)"/><path d="M7.27198 1.65713 7.27198 2.19956 13.9549 2.19956 13.9549 1.65713 7.27198 1.65713Z" transform="matrix(1.00019 0 0 -1 186.993 220.48)"/></g></svg>