<svg width="475" height="333" xmlns="http://www.w3.org/2000/svg" xmlns:xlink="http://www.w3.org/1999/xlink" xml:space="preserve" overflow="hidden"><g><path d="M0 332.5 475 332.5 475 0 0 0Z" fill="#FFFFFF" transform="scale(1 1.0015)"/><path d="M14.25 318.25 460.75 318.25 460.75 14.25 14.25 14.25Z" fill="#FFFFFF" transform="scale(1 1.0015)"/><g><path d="M34.5454 304.431 46.7717 304.431 46.7717 28.0681 34.5454 28.0681Z" fill="#006400" transform="scale(1 1.0015)"/></g><g><path d="M72.6829 242.25 54.1074 242.25 54.1074 90.25 72.6829 90.25Z" fill="#8FBC8F" transform="scale(1 1.0015)"/></g><g><path d="M46.7717 232.577 54.1074 232.577 54.1074 224.286 46.7717 224.286Z" fill="#D3D3D3" transform="scale(1 1.0015)"/></g><g><path d="M46.7717 214.811 54.1074 214.811 54.1074 206.521 46.7717 206.521Z" fill="#D3D3D3" transform="scale(1 1.0015)"/></g><g><path d="M46.7717 197.045 54.1074 197.045 54.1074 188.754 46.7717 188.754Z" fill="#D3D3D3" transform="scale(1 1.0015)"/></g><g><path d="M46.7717 179.278 54.1074 179.278 54.1074 170.988 46.7717 170.988Z" fill="#D3D3D3" transform="scale(1 1.0015)"/></g><g><path d="M46.7717 161.512 54.1074 161.512 54.1074 153.222 46.7717 153.222Z" fill="#D3D3D3" transform="scale(1 1.0015)"/></g><g><path d="M46.7717 143.746 54.1074 143.746 54.1074 135.455 46.7717 135.455Z" fill="#D3D3D3" transform="scale(1 1.0015)"/></g><g><path d="M46.7717 125.98 54.1074 125.98 54.1074 117.689 46.7717 117.689Z" fill="#D3D3D3" transform="scale(1 1.0015)"/></g><g><path d="M46.7717 108.214 54.1074 108.214 54.1074 99.9227 46.7717 99.9227Z" fill="#D3D3D3" transform="scale(1 1.0015)"/></g><g><path d="M269.288 304.431 323.966 304.431 323.966 28.0681 269.288 28.0681Z" fill="#FFDAB9" fill-opacity="0.25" transform="scale(1 1.0015)"/></g><g><path d="M73.6692 110.977 74.4035 111.1 75.1379 111.468 76.2393 112.47 77.3407 113.995 78.4422 116.013 79.9108 119.397 81.7466 124.57 83.9495 131.776 90.5582 154.197 92.394 159.099 93.8626 162.215 94.9641 164.007 96.0656 165.291 97.1669 166.043 97.9013 166.239 98.6356 166.189 99.3699 165.895 100.104 165.358 101.206 164.109 102.307 162.35 103.776 159.273 105.244 155.464 107.08 149.878 110.017 139.786 114.056 125.939 115.892 120.552 117.36 116.949 118.829 114.115 119.93 112.556 121.032 111.518 121.766 111.126 122.501 110.978 123.235 111.077 123.969 111.42 125.071 112.387 126.172 113.878 127.273 115.864 128.742 119.21 130.578 124.346 132.781 131.524 139.39 153.98 141.225 158.923 142.694 162.078 143.796 163.903 144.897 165.222 145.998 166.01 146.733 166.23 147.466 166.205 148.201 165.936 148.935 165.423 150.037 164.209 151.138 162.482 152.607 159.446 154.075 155.669 155.911 150.116 158.849 140.047 162.887 126.172 164.723 120.75 166.192 117.112 167.66 114.237 168.762 112.644 169.863 111.57 170.598 111.154 171.331 110.982 172.066 111.056 172.801 111.375 173.535 111.936 174.636 113.22 175.738 115.012 177.207 118.128 178.675 121.971 180.511 127.588 183.448 137.701 187.486 151.518 189.322 156.873 190.79 160.439 192.259 163.232 193.361 164.756 194.462 165.759 195.197 166.127 195.931 166.25 196.666 166.127 197.399 165.759 198.501 164.756 199.603 163.232 200.703 161.215 202.173 157.831 204.009 152.657 206.211 145.452 212.82 123.03 214.655 118.128 216.125 115.012 217.225 113.22 218.327 111.936 219.429 111.185 220.162 110.988 220.897 111.037 221.631 111.332 222.366 111.869 223.468 113.118 224.569 114.878 226.038 117.954 227.507 121.764 229.342 127.349 232.279 137.441 236.318 151.288 238.153 156.676 239.622 160.278 241.09 163.112 242.192 164.672 243.294 165.709 244.029 166.101 244.762 166.249 245.497 166.151 246.231 165.807 247.332 164.841 248.434 163.35 249.535 161.364 251.005 158.017 252.84 152.881 255.042 145.704 261.651 123.246 263.486 118.304 264.956 115.149 266.057 113.324 267.158 112.005 268.26 111.218 268.994 110.997 268.994 110.997" stroke="#0000FF" stroke-width="1.97917" stroke-linecap="square" stroke-linejoin="round" fill="none" transform="scale(1 1.0015)"/></g><g><path d="M73.6692 204.443 75.1379 204.255 76.6064 203.7 78.0751 202.796 79.5436 201.575 81.3794 199.673 83.9495 196.498 90.5582 187.934 92.394 186.061 94.2297 184.622 95.6984 183.838 97.1669 183.409 98.6356 183.353 100.104 183.671 101.573 184.351 103.041 185.37 104.877 187.063 107.08 189.583 110.384 193.936 114.423 199.165 116.626 201.507 118.462 203.003 119.93 203.84 121.399 204.323 122.868 204.435 124.336 204.173 125.805 203.545 127.273 202.576 129.109 200.936 131.312 198.46 134.25 194.633 138.655 188.869 140.859 186.474 142.694 184.924 144.163 184.036 145.631 183.499 147.1 183.33 148.568 183.537 150.037 184.11 151.505 185.031 153.342 186.618 155.177 188.608 157.747 191.858 163.622 199.505 165.825 201.777 167.66 203.197 169.129 203.965 170.598 204.375 172.066 204.412 173.535 204.076 175.003 203.379 176.472 202.343 178.307 200.633 180.511 198.097 183.814 193.737 187.486 188.956 189.69 186.546 191.525 184.977 192.994 184.073 194.462 183.518 195.931 183.33 197.399 183.518 198.868 184.073 200.337 184.977 201.805 186.197 203.642 188.1 206.211 191.275 212.82 199.839 214.655 201.711 216.492 203.15 217.96 203.935 219.429 204.363 220.897 204.419 222.366 204.102 223.835 203.421 225.303 202.403 227.138 200.71 229.342 198.188 232.646 193.837 236.685 188.608 238.888 186.265 240.723 184.77 242.192 183.933 243.66 183.45 245.129 183.338 246.598 183.599 248.066 184.226 249.535 185.197 251.371 186.837 253.573 189.313 256.511 193.14 260.918 198.904 263.12 201.297 264.956 202.849 266.425 203.735 267.893 204.274 268.994 204.435 268.994 204.435" stroke="#FF0000" stroke-width="1.97917" stroke-linecap="square" stroke-linejoin="round" fill="none" transform="scale(1 1.0015)"/></g><g><path d="M269.362 187.712 270.096 187.407 270.83 187.39 271.564 187.661 272.299 188.208 273.401 189.489 274.869 191.849 278.54 198.272 279.642 199.557 280.377 200.107 281.11 200.381 281.845 200.367 282.579 200.066 283.314 199.491 284.414 198.173 285.883 195.783 289.555 189.393 290.656 188.144 291.39 187.622 292.125 187.38 292.859 187.424 293.594 187.756 294.328 188.36 295.429 189.712 296.897 192.132 300.203 197.973 301.304 199.354 302.405 200.19 303.14 200.402 303.873 200.326 304.608 199.964 305.342 199.332 306.444 197.944 307.912 195.497 311.217 189.685 312.318 188.34 313.053 187.744 313.786 187.419 314.521 187.382 315.256 187.633 315.99 188.162 317.092 189.419 318.56 191.759 322.232 198.2 323.332 199.509 323.701 199.826 323.701 199.826" stroke="#FF0000" stroke-width="1.97917" stroke-linecap="square" stroke-linejoin="round" fill="none" transform="scale(1 1.0015)"/></g><g><path d="M269.362 121.537 269.729 121.67 270.462 122.497 271.197 124.039 271.931 126.227 273.033 130.501 274.869 139.168 276.705 147.684 277.806 151.737 278.54 153.735 279.275 155.064 280.009 155.661 280.377 155.677 280.743 155.504 281.477 154.598 282.212 152.982 283.314 149.395 284.782 143.025 288.086 127.767 289.188 124.2 289.922 122.6 290.656 121.711 291.023 121.546 291.39 121.571 291.758 121.786 292.492 122.771 293.227 124.459 294.328 128.136 295.797 134.578 298.734 148.333 299.835 152.22 300.569 154.081 301.304 155.255 302.038 155.692 302.405 155.626 302.773 155.371 303.507 154.308 304.241 152.548 305.342 148.782 306.81 142.27 309.749 128.578 310.849 124.775 311.584 122.986 312.318 121.889 312.686 121.617 313.053 121.534 313.419 121.641 314.154 122.417 314.888 123.911 315.623 126.057 316.725 130.284 318.56 138.92 320.395 147.473 321.497 151.578 322.232 153.619 322.966 154.995 323.701 155.644 323.701 155.644" stroke="#008000" stroke-width="1.97917" stroke-linecap="square" stroke-linejoin="round" fill="none" transform="scale(1 1.0015)"/></g><g><path d="M324.067 155.808 325.536 152.47 327.738 146.582 331.777 134.515 334.714 126.238 336.551 121.884 338.019 119.057 339.488 116.925 340.59 115.828 341.69 115.187 342.425 115.019 343.158 115.061 343.893 115.312 344.995 116.077 346.097 117.292 347.197 118.933 348.666 121.727 350.503 126.049 352.705 132.129 359.681 152.289 361.517 156.406 362.986 159 364.086 160.473 365.188 161.512 366.29 162.091 367.025 162.216 367.758 162.133 368.493 161.839 369.594 161.014 370.695 159.74 371.797 158.044 373.266 155.186 375.101 150.799 377.304 144.669 383.913 125.488 385.749 121.267 387.217 118.573 388.319 117.014 389.421 115.887 390.521 115.215 391.256 115.026 391.99 115.047 392.725 115.278 393.826 116.012 394.928 117.197 396.029 118.811 397.497 121.572 399.334 125.861 401.536 131.915 408.88 153.005 410.715 156.978 412.184 159.434 413.286 160.794 414.387 161.711 415.488 162.166 416.223 162.209 416.956 162.041 418.058 161.4 419.16 160.302 420.262 158.771 421.73 156.11 423.199 152.827 425.034 148.031 427.971 139.393 432.01 127.591 433.845 123.019 435.315 119.972 436.784 117.587 437.884 116.284 438.986 115.428 440.087 115.036 440.454 115.009 440.454 115.009" stroke="#008000" stroke-width="1.97917" stroke-linecap="square" stroke-linejoin="round" fill="none" transform="scale(1 1.0015)"/></g><g><path d="M34.5454 304.431 46.7717 304.431 46.7717 28.0681 34.5454 28.0681 34.5454 304.431" stroke="#000000" stroke-width="0.659722" stroke-linecap="square" stroke-linejoin="round" fill="none" transform="scale(1 1.0015)"/></g><g><path d="M72.6829 242.25 54.1074 242.25 54.1074 90.25 72.6829 90.25 72.6829 242.25" stroke="#000000" stroke-width="1.31944" stroke-linecap="square" stroke-linejoin="round" fill="none" transform="scale(1 1.0015)"/></g><g><path d="M46.7717 232.577 54.1074 232.577 54.1074 224.286 46.7717 224.286 46.7717 232.577" stroke="#000000" stroke-width="0.659722" stroke-linecap="square" stroke-linejoin="round" fill="none" transform="scale(1 1.0015)"/></g><g><path d="M46.7717 214.811 54.1074 214.811 54.1074 206.521 46.7717 206.521 46.7717 214.811" stroke="#000000" stroke-width="0.659722" stroke-linecap="square" stroke-linejoin="round" fill="none" transform="scale(1 1.0015)"/></g><g><path d="M46.7717 197.045 54.1074 197.045 54.1074 188.754 46.7717 188.754 46.7717 197.045" stroke="#000000" stroke-width="0.659722" stroke-linecap="square" stroke-linejoin="round" fill="none" transform="scale(1 1.0015)"/></g><g><path d="M46.7717 179.278 54.1074 179.278 54.1074 170.988 46.7717 170.988 46.7717 179.278" stroke="#000000" stroke-width="0.659722" stroke-linecap="square" stroke-linejoin="round" fill="none" transform="scale(1 1.0015)"/></g><g><path d="M46.7717 161.512 54.1074 161.512 54.1074 153.222 46.7717 153.222 46.7717 161.512" stroke="#000000" stroke-width="0.659722" stroke-linecap="square" stroke-linejoin="round" fill="none" transform="scale(1 1.0015)"/></g><g><path d="M46.7717 143.746 54.1074 143.746 54.1074 135.455 46.7717 135.455 46.7717 143.746" stroke="#000000" stroke-width="0.659722" stroke-linecap="square" stroke-linejoin="round" fill="none" transform="scale(1 1.0015)"/></g><g><path d="M46.7717 125.98 54.1074 125.98 54.1074 117.689 46.7717 117.689 46.7717 125.98" stroke="#000000" stroke-width="0.659722" stroke-linecap="square" stroke-linejoin="round" fill="none" transform="scale(1 1.0015)"/></g><g><path d="M46.7717 108.214 54.1074 108.214 54.1074 99.9227 46.7717 99.9227 46.7717 108.214" stroke="#000000" stroke-width="0.659722" stroke-linecap="square" stroke-linejoin="round" fill="none" transform="scale(1 1.0015)"/></g><g><path d="M269.288 304.431 323.966 304.431 323.966 28.0681 269.288 28.0681 269.288 304.431" stroke="#000000" stroke-width="0.659722" stroke-linecap="square" stroke-linejoin="round" fill="none" transform="scale(1 1.0015)"/></g><path d="M14.25 318.25 14.25 14.25" stroke="#000000" stroke-width="1.05556" stroke-linecap="square" fill="none" transform="scale(1 1.0015)"/><path d="M460.75 318.25 460.75 14.25" stroke="#000000" stroke-width="1.05556" stroke-linecap="square" fill="none" transform="scale(1 1.0015)"/><path d="M14.25 318.25 460.75 318.25" stroke="#000000" stroke-width="1.05556" stroke-linecap="square" fill="none" transform="scale(1 1.0015)"/><path d="M14.25 14.25 460.75 14.25" stroke="#000000" stroke-width="1.05556" stroke-linecap="square" fill="none" transform="scale(1 1.0015)"/><path d="M149.671 104.068C164.211 104.068 178.261 104.068 191.818 104.068" stroke="#0000FF" stroke-width="1.31944" stroke-linecap="round" stroke-linejoin="round" fill="none" transform="scale(1 1.0015)"/><path d="M186.54 101.429 191.818 104.068 186.54 106.707" stroke="#0000FF" stroke-width="1.31944" stroke-linecap="round" stroke-linejoin="round" fill="none" transform="scale(1 1.0015)"/><path d="M151.146 176.806C164.704 176.806 178.753 176.806 193.293 176.806" stroke="#FF0000" stroke-width="1.31944" stroke-linecap="round" stroke-linejoin="round" fill="none" transform="scale(1 1.0015)"/><path d="M156.424 179.444 151.146 176.806 156.424 174.167" stroke="#FF0000" stroke-width="1.31944" stroke-linecap="round" stroke-linejoin="round" fill="none" transform="scale(1 1.0015)"/><path d="M5.88184 6.12099C5.76226 6.18558 5.62481 6.23506 5.46951 6.26942 5.31557 6.30379 5.15064 6.32096 4.97472 6.32096 4.34248 6.32096 3.78996 6.08113 3.31717 5.60145 2.84573 5.12316 2.53236 4.48199 2.37706 3.67795L1.64931 0 0.463867 0 1.87402 7.21571 3.05946 7.21571 2.83474 6.09418C3.14811 6.51063 3.52265 6.83019 3.95833 7.05284 4.3954 7.27688 4.86065 7.38889 5.35406 7.38889 5.48326 7.38889 5.6097 7.38132 5.7334 7.36621 5.85848 7.35246 5.98354 7.32842 6.10862 7.29405L5.88184 6.12099Z" fill="#FF0000" transform="matrix(1 0 0 -1.0015 170.664 170.152)"/><path d="M1.14585 0.766309 2.63373 0.766309 2.63373 5.9039 1.01453 5.57919 1.01453 6.409 2.62508 6.7337 3.5357 6.7337 3.5357 0.766309 5.02358 0.766309 5.02358 0 1.14585 0 1.14585 0.766309Z" fill="#FF0000" transform="matrix(1 0 0 -1.0015 176.088 172.32)"/><path d="M285.628 176.806C292.96 176.806 300.786 176.806 309.102 176.806" stroke="#FF0000" stroke-width="1.31944" stroke-linecap="round" stroke-linejoin="round" fill="none" transform="scale(1 1.0015)"/><path d="M290.906 179.444 285.628 176.806 290.906 174.167" stroke="#FF0000" stroke-width="1.31944" stroke-linecap="round" stroke-linejoin="round" fill="none" transform="scale(1 1.0015)"/><path d="M5.88184 6.12099C5.76226 6.18558 5.62481 6.23506 5.46951 6.26942 5.31557 6.30379 5.15064 6.32096 4.97472 6.32096 4.34248 6.32096 3.78996 6.08113 3.31717 5.60145 2.84573 5.12316 2.53236 4.48199 2.37706 3.67795L1.64931 0 0.463867 0 1.87402 7.21571 3.05946 7.21571 2.83474 6.09418C3.14811 6.51063 3.52265 6.83019 3.95833 7.05284 4.3954 7.27688 4.86065 7.38889 5.35406 7.38889 5.48326 7.38889 5.6097 7.38132 5.7334 7.36621 5.85848 7.35246 5.98354 7.32842 6.10862 7.29405L5.88184 6.12099Z" fill="#FF0000" transform="matrix(1 0 0 -1.0015 291.478 170.152)"/><path d="M1.77218 0.766309 4.95142 0.766309 4.95142 0 0.676834 0 0.676834 0.766309C1.02223 1.12421 1.49318 1.6043 2.08967 2.20656 2.68713 2.8098 3.06235 3.19897 3.21532 3.37407 3.50684 3.70118 3.71032 3.97827 3.82577 4.20532 3.94219 4.43237 4.00039 4.65558 4.00039 4.87493 4.00039 5.23283 3.87484 5.52435 3.62373 5.74948 3.37262 5.97558 3.04551 6.08862 2.64239 6.08862 2.35665 6.08862 2.05503 6.03907 1.73754 5.93997 1.42101 5.84087 1.08236 5.69031 0.721571 5.48827L0.721571 6.409C1.08813 6.5562 1.43063 6.66732 1.74909 6.74236 2.0685 6.8174 2.3605 6.85493 2.62508 6.85493 3.32259 6.85493 3.87869 6.68031 4.29335 6.33107 4.70801 5.98279 4.91534 5.51713 4.91534 4.9341 4.91534 4.65702 4.86339 4.39437 4.75948 4.14615 4.65654 3.89889 4.46797 3.60689 4.19377 3.27016 4.11873 3.18261 3.87964 2.93055 3.47653 2.51395 3.07437 2.09736 2.50626 1.51482 1.77218 0.766309Z" fill="#FF0000" transform="matrix(1 0 0 -1.0015 296.903 172.32)"/><path d="M284.153 104.068C292.469 104.068 300.294 104.068 307.627 104.068" stroke="#008000" stroke-width="1.31944" stroke-linecap="round" stroke-linejoin="round" fill="none" transform="scale(1 1.0015)"/><path d="M302.349 101.429 307.627 104.068 302.349 106.707" stroke="#008000" stroke-width="1.31944" stroke-linecap="round" stroke-linejoin="round" fill="none" transform="scale(1 1.0015)"/><path d="M5.57878 7.21571 5.39941 6.29416 3.03472 6.29416 2.2678 2.37706C2.24167 2.23137 2.22244 2.10905 2.21007 2.01009 2.1977 1.91113 2.19151 1.83417 2.19151 1.77919 2.19151 1.5043 2.27398 1.30433 2.43891 1.17925 2.60384 1.05418 2.86911 0.991645 3.2347 0.991645L4.43251 0.991645 4.23253 0 3.09863 0C2.39494 0 1.8699 0.137442 1.52355 0.412326 1.17857 0.68721 1.00608 1.10366 1.00608 1.66168 1.00608 1.76063 1.01226 1.86921 1.02463 1.98741 1.037 2.10561 1.05624 2.23549 1.08236 2.37706L1.84928 6.29416 0.843207 6.29416 1.03082 7.21571 2.01628 7.21571 2.41623 9.26497 3.60167 9.26497 3.2079 7.21571 5.57878 7.21571Z" fill="#008000" transform="matrix(1 0 0 -1.0015 289.012 97.202)"/><path d="M1.14585 0.766309 2.63373 0.766309 2.63373 5.9039 1.01453 5.57919 1.01453 6.409 2.62508 6.7337 3.5357 6.7337 3.5357 0.766309 5.02358 0.766309 5.02358 0 1.14585 0 1.14585 0.766309Z" fill="#008000" transform="matrix(1 0 0 -1.0015 294.186 99.37)"/><path d="M351.062 104.068C365.604 104.068 379.653 104.068 393.21 104.068" stroke="#008000" stroke-width="1.31944" stroke-linecap="round" stroke-linejoin="round" fill="none" transform="scale(1 1.0015)"/><path d="M387.932 101.429 393.21 104.068 387.932 106.707" stroke="#008000" stroke-width="1.31944" stroke-linecap="round" stroke-linejoin="round" fill="none" transform="scale(1 1.0015)"/><path d="M5.57878 7.21571 5.39941 6.29416 3.03472 6.29416 2.2678 2.37706C2.24167 2.23137 2.22244 2.10905 2.21007 2.01009 2.1977 1.91113 2.19151 1.83417 2.19151 1.77919 2.19151 1.5043 2.27398 1.30433 2.43891 1.17925 2.60384 1.05418 2.86911 0.991645 3.2347 0.991645L4.43251 0.991645 4.23253 0 3.09863 0C2.39494 0 1.8699 0.137442 1.52355 0.412326 1.17857 0.68721 1.00608 1.10366 1.00608 1.66168 1.00608 1.76063 1.01226 1.86921 1.02463 1.98741 1.037 2.10561 1.05624 2.23549 1.08236 2.37706L1.84928 6.29416 0.843207 6.29416 1.03082 7.21571 2.01628 7.21571 2.41623 9.26497 3.60167 9.26497 3.2079 7.21571 5.57878 7.21571Z" fill="#008000" transform="matrix(1 0 0 -1.0015 373.277 97.202)"/><path d="M1.77218 0.766309 4.95142 0.766309 4.95142 0 0.676834 0 0.676834 0.766309C1.02223 1.12421 1.49318 1.6043 2.08967 2.20656 2.68713 2.8098 3.06235 3.19897 3.21532 3.37407 3.50684 3.70118 3.71032 3.97827 3.82577 4.20532 3.94219 4.43237 4.00039 4.65558 4.00039 4.87493 4.00039 5.23283 3.87484 5.52435 3.62373 5.74948 3.37262 5.97558 3.04551 6.08862 2.64239 6.08862 2.35665 6.08862 2.05503 6.03907 1.73754 5.93997 1.42101 5.84087 1.08236 5.69031 0.721571 5.48827L0.721571 6.409C1.08813 6.5562 1.43063 6.66732 1.74909 6.74236 2.0685 6.8174 2.3605 6.85493 2.62508 6.85493 3.32259 6.85493 3.87869 6.68031 4.29335 6.33107 4.70801 5.98279 4.91534 5.51713 4.91534 4.9341 4.91534 4.65702 4.86339 4.39437 4.75948 4.14615 4.65654 3.89889 4.46797 3.60689 4.19377 3.27016 4.11873 3.18261 3.87964 2.93055 3.47653 2.51395 3.07437 2.09736 2.50626 1.51482 1.77218 0.766309Z" fill="#008000" transform="matrix(1 0 0 -1.0015 378.451 99.37)"/><path d="M7.35178 4.35623 6.50651 0 5.31489 0 6.16016 4.31087C6.19865 4.51291 6.22819 4.69089 6.24881 4.84484 6.2708 5.00014 6.28179 5.12248 6.28179 5.21181 6.28179 5.57327 6.16772 5.85435 5.93956 6.05501 5.71278 6.25705 5.39529 6.35807 4.98709 6.35807 4.35072 6.35807 3.80303 6.14641 3.34397 5.72309 2.8849 5.30114 2.58391 4.72732 2.44097 4.00163L1.64931 0 0.463867 0 1.86165 7.21571 3.04709 7.21571 2.81 6.08181C3.13987 6.49826 3.53638 6.81988 3.99957 7.04666 4.46411 7.27482 4.95204 7.38889 5.46333 7.38889 6.09969 7.38889 6.59242 7.21709 6.94151 6.87348 7.29199 6.52987 7.46723 6.04677 7.46723 5.42415 7.46723 5.27021 7.4576 5.10528 7.43837 4.92936 7.41913 4.75344 7.39027 4.56239 7.35178 4.35623Z" transform="matrix(1 0 0 -1.0015 273.233 55.6583)"/><path d="M1.39779 5.9911 9.65668 5.9911 9.65668 4.90875 1.39779 4.90875 1.39779 5.9911ZM1.39779 3.36252 9.65668 3.36252 9.65668 2.2678 1.39779 2.2678 1.39779 3.36252Z" transform="matrix(1 0 0 -1.0015 284.166 55.6583)"/><path d="M8.06913 11.4994 3.90491-2.18573 3.59349-2.18573 1.88241 3.37815C1.82762 3.55644 1.76548 3.68494 1.69602 3.76367 1.62734 3.84317 1.53626 3.88291 1.42281 3.88291 1.25456 3.88291 1.08669 3.81614 0.91921 3.68263L0.830067 3.83081 2.04449 4.76391 2.22972 4.76391 3.91185-0.696932 3.94195-0.696932 7.64658 11.4994 8.06913 11.4994Z" transform="matrix(1 0 0 -1.0015 297.792 55.6438)"/><path d="M2.60384 3.89236C2.13929 3.99544 1.80599 4.18649 1.60395 4.4655 1.45414 4.66203 1.37923 4.89363 1.37923 5.16026 1.37923 5.89008 1.72696 6.46802 2.42242 6.8941 2.97219 7.22946 3.66832 7.39714 4.51085 7.39714 4.83659 7.39714 5.17744 7.37102 5.53342 7.31879 5.89076 7.26793 6.26874 7.19097 6.66732 7.08789L6.46115 6.01172C6.0667 6.13542 5.70386 6.22545 5.37261 6.28179 5.03312 6.33814 4.71151 6.36632 4.40777 6.36632 3.89648 6.36632 3.47317 6.26736 3.1378 6.06944 2.73372 5.83304 2.53168 5.54305 2.53168 5.19944 2.53168 4.97128 2.63683 4.77818 2.84711 4.62012 3.09725 4.43045 3.47111 4.33561 3.96864 4.33561L4.96647 4.33561 4.78092 3.35634 3.82639 3.35634C3.23402 3.35634 2.76397 3.24707 2.41623 3.02854 1.94343 2.73166 1.70703 2.35164 1.70703 1.88845 1.70703 1.5957 1.83417 1.35312 2.08843 1.1607 2.40592 0.920174 2.88903 0.799913 3.53776 0.799913 3.93634 0.799913 4.32668 0.838398 4.70877 0.915365 5.09223 0.996455 5.45095 1.11672 5.78494 1.27615L5.56641 0.173177C5.1582 0.0536024 4.76717-0.0364222 4.39334-0.0968967 4.0195-0.157371 3.66078-0.187609 3.31717-0.187609 2.29598-0.187609 1.54485 0.00824653 1.0638 0.399957 0.698207 0.700955 0.515408 1.10435 0.515408 1.61013 0.515408 2.29322 0.755932 2.84505 1.23698 3.26562 1.59295 3.58037 2.04858 3.78928 2.60384 3.89236Z" transform="matrix(1 0 0 -1.0015 307.269 55.6975)"/><path d="M4.11728 4.28469C4.03358 4.3299 3.93737 4.36454 3.82866 4.3886 3.7209 4.41265 3.60545 4.42467 3.4823 4.42467 3.03973 4.42467 2.65297 4.25679 2.32202 3.92102 1.99201 3.58621 1.77265 3.13739 1.66394 2.57457L1.15451 0 0.324707 0 1.31182 5.051 2.14162 5.051 1.98432 4.26593C2.20368 4.55744 2.46585 4.78113 2.77083 4.93699 3.07678 5.09382 3.40245 5.17222 3.74784 5.17222 3.83828 5.17222 3.92679 5.16693 4.01338 5.15635 4.10093 5.14672 4.18848 5.12989 4.27603 5.10584L4.11728 4.28469Z" transform="matrix(1 0 0 -1.0015 314.401 57.8655)"/><path d="M32.3867 10.7535 32.3867 11.5781 46.9753 11.5781 46.9753 10.7535 32.3867 10.7535Z" transform="matrix(1 0 0 -1.0015 273.233 55.7883)"/><path d="M266.644 290.614C203.2 290.614 139.757 290.614 76.3134 290.614" stroke="#808080" stroke-width="0.659722" stroke-linecap="round" stroke-linejoin="round" fill="none" transform="scale(1 1.0015)"/><path d="M266.644 303.809 266.644 303.809 266.644 277.42 266.644 277.42" stroke="#808080" stroke-width="0.659722" stroke-linecap="round" stroke-linejoin="round" fill="none" transform="scale(1 1.0015)"/><path d="M76.3134 277.42 76.3134 277.42 76.3134 303.809 76.3134 303.809" stroke="#808080" stroke-width="0.659722" stroke-linecap="round" stroke-linejoin="round" fill="none" transform="scale(1 1.0015)"/><path d="M265.906 290.614C202.954 290.614 140.002 290.614 77.0511 290.614" stroke="#808080" stroke-width="0.659722" stroke-linecap="round" stroke-linejoin="round" fill="none" transform="scale(1 1.0015)"/><path d="M260.629 287.975 265.906 290.614 260.629 293.253" stroke="#808080" stroke-width="0.659722" stroke-linecap="round" stroke-linejoin="round" fill="none" transform="scale(1 1.0015)"/><path d="M82.3288 293.253 77.0511 290.614 82.3288 287.975" stroke="#808080" stroke-width="0.659722" stroke-linecap="round" stroke-linejoin="round" fill="none" transform="scale(1 1.0015)"/><path d="M4.41189 0.865885C4.1579 0.532726 3.85718 0.279833 3.50972 0.107205 3.16337-0.0643229 2.77854-0.150087 2.35521-0.150087 1.77795-0.150087 1.32164 0.0467303 0.986285 0.440365 0.652025 0.833999 0.484896 1.37277 0.484896 2.05668 0.484896 2.62734 0.586053 3.17107 0.788368 3.68785 0.991782 4.20462 1.28591 4.66753 1.67075 5.07656 1.92474 5.34815 2.21117 5.55486 2.53003 5.6967 2.85 5.83965 3.18535 5.91111 3.53611 5.91111 3.90666 5.91111 4.23377 5.8215 4.51745 5.64227 4.80113 5.46415 5.02049 5.20851 5.17552 4.87535L5.79401 8.02057 6.74731 8.02057 5.18542 0 4.23212 0 4.41189 0.865885ZM1.46953 2.22656C1.46953 1.72847 1.58168 1.34034 1.80599 1.06215 2.0314 0.783969 2.34366 0.644879 2.7428 0.644879 3.03748 0.644879 3.31126 0.715799 3.56415 0.857639 3.81704 1.00058 4.03969 1.21114 4.23212 1.48932 4.43444 1.7785 4.59386 2.11166 4.71042 2.4888 4.82806 2.86704 4.88689 3.24034 4.88689 3.60868 4.88689 4.08587 4.7742 4.45807 4.54878 4.72526 4.32337 4.99355 4.0133 5.12769 3.61858 5.12769 3.31951 5.12769 3.04078 5.05732 2.78238 4.91658 2.52509 4.77584 2.30573 4.57352 2.12431 4.30964 1.9242 4.02376 1.76476 3.69169 1.64601 3.31345 1.52836 2.93631 1.46953 2.57402 1.46953 2.22656Z" transform="matrix(1 0 0 -1.0015 165.621 280.127)"/><path d="M0.916684 0.613047 2.10699 0.613047 2.10699 4.72312 0.811623 4.46335 0.811623 5.1272 2.10006 5.38696 2.82856 5.38696 2.82856 0.613047 4.01886 0.613047 4.01886 0 0.916684 0 0.916684 0.613047Z" transform="matrix(1 0 0 -1.0015 172.321 281.861)"/><path d="M321.326 290.614C304.859 290.614 288.391 290.614 271.924 290.614" stroke="#808080" stroke-width="0.659722" stroke-linecap="round" stroke-linejoin="round" fill="none" transform="scale(1 1.0015)"/><path d="M321.326 303.809 321.326 303.809 321.326 277.42 321.326 277.42" stroke="#808080" stroke-width="0.659722" stroke-linecap="round" stroke-linejoin="round" fill="none" transform="scale(1 1.0015)"/><path d="M271.924 277.42 271.924 277.42 271.924 303.809 271.924 303.809" stroke="#808080" stroke-width="0.659722" stroke-linecap="round" stroke-linejoin="round" fill="none" transform="scale(1 1.0015)"/><path d="M320.588 290.614C304.612 290.614 288.638 290.614 272.662 290.614" stroke="#808080" stroke-width="0.659722" stroke-linecap="round" stroke-linejoin="round" fill="none" transform="scale(1 1.0015)"/><path d="M315.31 287.975 320.588 290.614 315.31 293.253" stroke="#808080" stroke-width="0.659722" stroke-linecap="round" stroke-linejoin="round" fill="none" transform="scale(1 1.0015)"/><path d="M277.94 293.253 272.662 290.614 277.94 287.975" stroke="#808080" stroke-width="0.659722" stroke-linecap="round" stroke-linejoin="round" fill="none" transform="scale(1 1.0015)"/><path d="M4.41189 0.865885C4.1579 0.532726 3.85718 0.279833 3.50972 0.107205 3.16337-0.0643229 2.77854-0.150087 2.35521-0.150087 1.77795-0.150087 1.32164 0.0467303 0.986285 0.440365 0.652025 0.833999 0.484896 1.37277 0.484896 2.05668 0.484896 2.62734 0.586053 3.17107 0.788368 3.68785 0.991782 4.20462 1.28591 4.66753 1.67075 5.07656 1.92474 5.34815 2.21117 5.55486 2.53003 5.6967 2.85 5.83965 3.18535 5.91111 3.53611 5.91111 3.90666 5.91111 4.23377 5.8215 4.51745 5.64227 4.80113 5.46415 5.02049 5.20851 5.17552 4.87535L5.79401 8.02057 6.74731 8.02057 5.18542 0 4.23212 0 4.41189 0.865885ZM1.46953 2.22656C1.46953 1.72847 1.58168 1.34034 1.80599 1.06215 2.0314 0.783969 2.34366 0.644879 2.7428 0.644879 3.03748 0.644879 3.31126 0.715799 3.56415 0.857639 3.81704 1.00058 4.03969 1.21114 4.23212 1.48932 4.43444 1.7785 4.59386 2.11166 4.71042 2.4888 4.82806 2.86704 4.88689 3.24034 4.88689 3.60868 4.88689 4.08587 4.7742 4.45807 4.54878 4.72526 4.32337 4.99355 4.0133 5.12769 3.61858 5.12769 3.31951 5.12769 3.04078 5.05732 2.78238 4.91658 2.52509 4.77584 2.30573 4.57352 2.12431 4.30964 1.9242 4.02376 1.76476 3.69169 1.64601 3.31345 1.52836 2.93631 1.46953 2.57402 1.46953 2.22656Z" transform="matrix(1 0 0 -1.0015 275.094 280.255)"/><path d="M1.41774 0.613047 3.96114 0.613047 3.96114 0 0.541467 0 0.541467 0.613047C0.81778 0.899366 1.19454 1.28344 1.67174 1.76525 2.1497 2.24784 2.44988 2.55918 2.57226 2.69925 2.80547 2.96095 2.96826 3.18261 3.06062 3.36425 3.15375 3.54589 3.20031 3.72446 3.20031 3.89995 3.20031 4.18627 3.09987 4.41948 2.89898 4.59958 2.6981 4.78046 2.43641 4.87089 2.11391 4.87089 1.88532 4.87089 1.64403 4.83126 1.39003 4.75198 1.13681 4.6727 0.865885 4.55225 0.577257 4.39062L0.577257 5.1272C0.870503 5.24496 1.14451 5.33385 1.39927 5.39389 1.6548 5.45392 1.8884 5.48394 2.10006 5.48394 2.65807 5.48394 3.10295 5.34424 3.43468 5.06485 3.76641 4.78623 3.93227 4.41371 3.93227 3.94728 3.93227 3.72562 3.89071 3.51549 3.80759 3.31692 3.72524 3.11912 3.57438 2.88551 3.35502 2.61613 3.29498 2.54608 3.10371 2.34444 2.78122 2.01116 2.4595 1.67789 2.00501 1.21186 1.41774 0.613047Z" transform="matrix(1 0 0 -1.0015 281.794 281.989)"/><path d="M1.11823 4.79288 7.72535 4.79288 7.72535 3.927 1.11823 3.927 1.11823 4.79288ZM1.11823 2.69002 7.72535 2.69002 7.72535 1.81424 1.11823 1.81424 1.11823 2.69002Z" transform="matrix(1 0 0 -1.0015 288.84 280.255)"/><path d="M9.47856 3.48498 8.80399 0 7.85564 0 8.52031 3.45365C8.54781 3.60098 8.56814 3.72797 8.58134 3.83464 8.59564 3.9413 8.60278 4.03255 8.60278 4.10842 8.60278 4.41738 8.51647 4.65764 8.34384 4.82917 8.17231 5.00069 7.93205 5.08646 7.62309 5.08646 7.16239 5.08646 6.75171 4.91383 6.39106 4.56858 6.03041 4.22333 5.79676 3.77416 5.6901 3.22109L5.05677 0 4.10842 0 4.78299 3.45365C4.81048 3.5801 4.83082 3.6972 4.84401 3.80495 4.85831 3.9138 4.86545 4.01111 4.86545 4.09688 4.86545 4.41024 4.77969 4.65324 4.60816 4.82587 4.43663 4.99959 4.19968 5.08646 3.89731 5.08646 3.43001 5.08646 3.01547 4.91383 2.65373 4.56858 2.29308 4.22333 2.05944 3.77416 1.95278 3.22109L1.31944 0 0.371094 0 1.49922 5.77257 2.44757 5.77257 2.2678 4.87535C2.52509 5.21291 2.82637 5.46964 3.17161 5.64557 3.51797 5.82259 3.88852 5.91111 4.28325 5.91111 4.70217 5.91111 5.04633 5.80115 5.31571 5.58125 5.5862 5.36135 5.74893 5.05567 5.80391 4.66424 6.09199 5.06997 6.42569 5.37893 6.80503 5.59115 7.18548 5.80445 7.58681 5.91111 8.00903 5.91111 8.50382 5.91111 8.88591 5.76873 9.1553 5.48394 9.42578 5.19916 9.56102 4.79564 9.56102 4.27335 9.56102 4.16009 9.55388 4.03531 9.53958 3.89896 9.52639 3.76372 9.50605 3.62572 9.47856 3.48498Z" transform="matrix(1 0 0 -1.0015 299.741 280.255)"/><path d="M3.87587 7.1184 5.15408 0 4.14965 0 3.36128 4.2684 0.540972 0-0.463455 0 3.13863 5.53507 2.95885 6.55599C2.88299 6.98921 2.66143 7.20582 2.29418 7.20582L1.79939 7.20582 1.95278 8.02057 2.55642 8.00903C3.3294 7.99913 3.76921 7.70226 3.87587 7.1184Z" transform="matrix(1 0 0 -1.0015 310.234 275.625)"/><path d="M2.02535 0.875781 5.65877 0.875781 5.65877 0 0.773524 0 0.773524 0.875781C1.16826 1.28481 1.70649 1.83348 2.38819 2.52179 3.07101 3.2112 3.49983 3.65597 3.67465 3.85608 4.00781 4.22992 4.24036 4.54659 4.37231 4.80608 4.50536 5.06556 4.57188 5.32066 4.57188 5.57135 4.57188 5.98038 4.42839 6.31354 4.14141 6.57083 3.85443 6.82923 3.48058 6.95842 3.01988 6.95842 2.69332 6.95842 2.34861 6.9018 1.98576 6.78854 1.62402 6.67528 1.23698 6.50321 0.824653 6.27231L0.824653 7.32457C1.24358 7.49279 1.63501 7.61979 1.99896 7.70556 2.364 7.79132 2.69772 7.8342 3.00009 7.8342 3.79725 7.8342 4.43279 7.63464 4.90668 7.2355 5.38058 6.83748 5.61753 6.30529 5.61753 5.63898 5.61753 5.32231 5.55816 5.02214 5.43941 4.73845 5.32176 4.45588 5.10625 4.12216 4.79288 3.73733 4.70712 3.63726 4.43388 3.3492 3.97318 2.87309 3.51357 2.39699 2.8643 1.73123 2.02535 0.875781Z" transform="matrix(1 0 0 -1.0015 310.023 286.774)"/><path d="M34.9297 2.0072 34.9297 2.66692 41.6455 2.66692 41.6455 2.0072 34.9297 2.0072Z" transform="matrix(1 0 0 -1.0015 275.094 280.278)"/><path d="M90.725 28.0761 101.281 28.0761 111.836 28.0761" stroke="#0000FF" stroke-width="1.97917" stroke-linecap="square" stroke-linejoin="round" fill="none" transform="scale(1 1.0015)"/><path d="M1.03576 7.69566 2.07648 7.69566 2.07648 0 1.03576 0 1.03576 7.69566Z" transform="matrix(1 0 0 -1.0015 120.281 31.8183)"/><path d="M5.79401 3.48498 5.79401 0 4.84566 0 4.84566 3.45365C4.84566 4.00011 4.739 4.40859 4.52569 4.67908 4.31239 4.95067 3.99297 5.08646 3.56745 5.08646 3.05506 5.08646 2.65098 4.92318 2.35521 4.59661 2.05944 4.27116 1.91155 3.82639 1.91155 3.26233L1.91155 0 0.958247 0 0.958247 5.77257 1.91155 5.77257 1.91155 4.87535C2.13915 5.22281 2.40634 5.48229 2.71311 5.65382 3.02098 5.82535 3.37613 5.91111 3.77856 5.91111 4.44158 5.91111 4.94297 5.70605 5.28273 5.29592 5.62359 4.88579 5.79401 4.28214 5.79401 3.48498Z" transform="matrix(1 0 0 -1.0015 123.394 31.8183)"/><path d="M5.14913 5.55156 5.14913 4.66424C4.88084 4.81267 4.612 4.92372 4.34262 4.9974 4.07324 5.07107 3.80111 5.1079 3.52622 5.1079 2.91048 5.1079 2.43218 4.91274 2.09132 4.5224 1.75156 4.13316 1.58168 3.58613 1.58168 2.88134 1.58168 2.17654 1.75156 1.62896 2.09132 1.23863 2.43218 0.849392 2.91048 0.654774 3.52622 0.654774 3.80111 0.654774 4.07324 0.691608 4.34262 0.765278 4.612 0.838947 4.88084 0.95 5.14913 1.09844L5.14913 0.221007C4.88414 0.0978587 4.60981 0.00549768 4.32613-0.0560764 4.04355-0.11875 3.74227-0.150087 3.42231-0.150087 2.55258-0.150087 1.86152 0.123148 1.34913 0.669618 0.837847 1.21609 0.582205 1.95332 0.582205 2.88134 0.582205 3.82255 0.840597 4.56252 1.35738 5.1013 1.87526 5.64117 2.58446 5.91111 3.48498 5.91111 3.77637 5.91111 4.06113 5.88088 4.33932 5.8204 4.61751 5.76102 4.88744 5.67142 5.14913 5.55156Z" transform="matrix(1 0 0 -1.0015 130.084 31.8183)"/><path d="M0.994531 5.77257 1.94288 5.77257 1.94288 0 0.994531 0 0.994531 5.77257ZM0.994531 8.02057 1.94288 8.02057 1.94288 6.81823 0.994531 6.81823 0.994531 8.02057Z" transform="matrix(1 0 0 -1.0015 135.887 31.8183)"/><path d="M4.79288 4.89679 4.79288 8.02057 5.74123 8.02057 5.74123 0 4.79288 0 4.79288 0.865885C4.59386 0.52283 4.34208 0.267737 4.0375 0.100608 3.73403-0.0665219 3.36899-0.150087 2.94236-0.150087 2.24525-0.150087 1.67734 0.128096 1.23863 0.684462 0.801013 1.24193 0.582205 1.97422 0.582205 2.88134 0.582205 3.78846 0.801013 4.5202 1.23863 5.07656 1.67734 5.63292 2.24525 5.91111 2.94236 5.91111 3.36899 5.91111 3.73403 5.82754 4.0375 5.66042 4.34208 5.49438 4.59386 5.23984 4.79288 4.89679ZM1.56189 2.88134C1.56189 2.18422 1.70538 1.63721 1.99236 1.24028 2.27934 0.843344 2.67352 0.644879 3.17491 0.644879 3.6763 0.644879 4.07103 0.843344 4.35911 1.24028 4.64829 1.63721 4.79288 2.18422 4.79288 2.88134 4.79288 3.57845 4.64829 4.12546 4.35911 4.5224 4.07103 4.91933 3.6763 5.11779 3.17491 5.11779 2.67352 5.11779 2.27934 4.91933 1.99236 4.5224 1.70538 4.12546 1.56189 3.57845 1.56189 2.88134Z" transform="matrix(1 0 0 -1.0015 138.82 31.8183)"/><path d="M5.93255 3.12378 5.93255 2.66033 1.57179 2.66033C1.61357 2.0072 1.81039 1.50966 2.16224 1.16771 2.51409 0.825753 3.00449 0.654774 3.63342 0.654774 3.99737 0.654774 4.35032 0.699306 4.69227 0.788368 5.03422 0.877431 5.37398 1.01157 5.71154 1.1908L5.71154 0.293576C5.37068 0.149537 5.02159 0.0395833 4.66424-0.0362847 4.30688-0.112153 3.94459-0.150087 3.57734-0.150087 2.65593-0.150087 1.92639 0.11765 1.38872 0.653125 0.851042 1.1897 0.582205 1.91539 0.582205 2.83021 0.582205 3.77472 0.837298 4.52404 1.34748 5.07821 1.85766 5.63348 2.54598 5.91111 3.41241 5.91111 4.18869 5.91111 4.80278 5.66096 5.25469 5.16068 5.7066 4.66148 5.93255 3.98253 5.93255 3.12378ZM4.9842 3.40252C4.9776 3.9204 4.83247 4.33383 4.54878 4.6428 4.2651 4.95286 3.88961 5.1079 3.42231 5.1079 2.89343 5.1079 2.47012 4.95836 2.15234 4.65929 1.83457 4.36022 1.6515 3.93909 1.60312 3.39592L4.9842 3.40252Z" transform="matrix(1 0 0 -1.0015 145.52 31.8183)"/><path d="M5.79401 3.48498 5.79401 0 4.84566 0 4.84566 3.45365C4.84566 4.00011 4.739 4.40859 4.52569 4.67908 4.31239 4.95067 3.99297 5.08646 3.56745 5.08646 3.05506 5.08646 2.65098 4.92318 2.35521 4.59661 2.05944 4.27116 1.91155 3.82639 1.91155 3.26233L1.91155 0 0.958247 0 0.958247 5.77257 1.91155 5.77257 1.91155 4.87535C2.13915 5.22281 2.40634 5.48229 2.71311 5.65382 3.02098 5.82535 3.37613 5.91111 3.77856 5.91111 4.44158 5.91111 4.94297 5.70605 5.28273 5.29592 5.62359 4.88579 5.79401 4.28214 5.79401 3.48498Z" transform="matrix(1 0 0 -1.0015 152.014 31.8183)"/><path d="M1.93299 7.41198 1.93299 5.77257 3.88576 5.77257 3.88576 5.03533 1.93299 5.03533 1.93299 1.90165C1.93299 1.43105 1.99731 1.12867 2.12595 0.994531 2.2546 0.860388 2.51684 0.793316 2.91267 0.793316L3.88576 0.793316 3.88576 0 2.91267 0C2.18038 0 1.67515 0.136343 1.39696 0.409028 1.11878 0.682813 0.979688 1.18035 0.979688 1.90165L0.979688 5.03533 0.283681 5.03533 0.283681 5.77257 0.979688 5.77257 0.979688 7.41198 1.93299 7.41198Z" transform="matrix(1 0 0 -1.0015 158.704 31.8183)"/><path d="M0.443663 5.77257 1.39201 5.77257 2.57786 1.26832 3.75712 5.77257 4.87535 5.77257 6.0612 1.26832 7.2421 5.77257 8.19045 5.77257 6.67969 0 5.56146 0 4.31953 4.73186 3.07266 0 1.95278 0 0.443663 5.77257Z" transform="matrix(1 0 0 -1.0015 166.198 31.8183)"/><path d="M3.61858 2.90113C2.85219 2.90113 2.32112 2.81372 2.02535 2.63889 1.72958 2.46406 1.58168 2.16499 1.58168 1.74167 1.58168 1.40521 1.69273 1.13802 1.91484 0.940104 2.13696 0.743288 2.43822 0.644879 2.81866 0.644879 3.34534 0.644879 3.76756 0.83125 4.08533 1.20399 4.4031 1.57674 4.56198 2.07207 4.56198 2.69002L4.56198 2.90113 3.61858 2.90113ZM5.51033 3.29366 5.51033 0 4.56198 0 4.56198 0.875781C4.34538 0.526128 4.07543 0.267737 3.75217 0.100608 3.42891-0.0665219 3.03362-0.150087 2.56632-0.150087 1.97587-0.150087 1.50582 0.0159433 1.15616 0.348003 0.807611 0.680063 0.633333 1.12428 0.633333 1.68064 0.633333 2.32936 0.850492 2.81866 1.28481 3.14852 1.72023 3.47839 2.36895 3.64332 3.23099 3.64332L4.56198 3.64332 4.56198 3.73733C4.56198 4.17385 4.41849 4.51139 4.13151 4.75 3.84453 4.98861 3.44156 5.1079 2.92257 5.1079 2.59271 5.1079 2.27109 5.06832 1.95773 4.98915 1.64546 4.90998 1.34528 4.79123 1.0572 4.6329L1.0572 5.51033C1.40356 5.64447 1.74002 5.74453 2.06658 5.8105 2.39314 5.87758 2.71091 5.91111 3.01988 5.91111 3.85553 5.91111 4.47951 5.69451 4.89184 5.26128 5.30417 4.82917 5.51033 4.17329 5.51033 3.29366Z" transform="matrix(1 0 0 -1.0015 174.831 31.8183)"/><path d="M0.315017 5.77257 1.31944 5.77257 3.12378 0.928559 4.92812 5.77257 5.93255 5.77257 3.76701 0 2.47891 0 0.315017 5.77257Z" transform="matrix(1 0 0 -1.0015 181.3 31.8183)"/><path d="M5.93255 3.12378 5.93255 2.66033 1.57179 2.66033C1.61357 2.0072 1.81039 1.50966 2.16224 1.16771 2.51409 0.825753 3.00449 0.654774 3.63342 0.654774 3.99737 0.654774 4.35032 0.699306 4.69227 0.788368 5.03422 0.877431 5.37398 1.01157 5.71154 1.1908L5.71154 0.293576C5.37068 0.149537 5.02159 0.0395833 4.66424-0.0362847 4.30688-0.112153 3.94459-0.150087 3.57734-0.150087 2.65593-0.150087 1.92639 0.11765 1.38872 0.653125 0.851042 1.1897 0.582205 1.91539 0.582205 2.83021 0.582205 3.77472 0.837298 4.52404 1.34748 5.07821 1.85766 5.63348 2.54598 5.91111 3.41241 5.91111 4.18869 5.91111 4.80278 5.66096 5.25469 5.16068 5.7066 4.66148 5.93255 3.98253 5.93255 3.12378ZM4.9842 3.40252C4.9776 3.9204 4.83247 4.33383 4.54878 4.6428 4.2651 4.95286 3.88961 5.1079 3.42231 5.1079 2.89343 5.1079 2.47012 4.95836 2.15234 4.65929 1.83457 4.36022 1.6515 3.93909 1.60312 3.39592L4.9842 3.40252Z" transform="matrix(1 0 0 -1.0015 187.546 31.8183)"/><path d="M90.725 43.5698 101.281 43.5698 111.836 43.5698" stroke="#FF0000" stroke-width="1.97917" stroke-linecap="square" stroke-linejoin="round" fill="none" transform="scale(1 1.0015)"/><path d="M4.33932 4.88689C4.23266 4.94846 4.11667 4.99355 3.99132 5.02214 3.86597 5.05182 3.72797 5.06667 3.57734 5.06667 3.04078 5.06667 2.62899 4.89238 2.34201 4.54384 2.05503 4.19529 1.91155 3.69444 1.91155 3.04132L1.91155 0 0.958247 0 0.958247 5.77257 1.91155 5.77257 1.91155 4.87535C2.11166 5.2261 2.37116 5.48613 2.69002 5.65547 3.00998 5.82589 3.39867 5.91111 3.85608 5.91111 3.92094 5.91111 3.99297 5.90671 4.07214 5.89792 4.1513 5.89021 4.23872 5.87758 4.33437 5.85998L4.33932 4.88689Z" transform="matrix(1 0 0 -1.0015 120.281 47.3352)"/><path d="M5.93255 3.12378 5.93255 2.66033 1.57179 2.66033C1.61357 2.0072 1.81039 1.50966 2.16224 1.16771 2.51409 0.825753 3.00449 0.654774 3.63342 0.654774 3.99737 0.654774 4.35032 0.699306 4.69227 0.788368 5.03422 0.877431 5.37398 1.01157 5.71154 1.1908L5.71154 0.293576C5.37068 0.149537 5.02159 0.0395833 4.66424-0.0362847 4.30688-0.112153 3.94459-0.150087 3.57734-0.150087 2.65593-0.150087 1.92639 0.11765 1.38872 0.653125 0.851042 1.1897 0.582205 1.91539 0.582205 2.83021 0.582205 3.77472 0.837298 4.52404 1.34748 5.07821 1.85766 5.63348 2.54598 5.91111 3.41241 5.91111 4.18869 5.91111 4.80278 5.66096 5.25469 5.16068 5.7066 4.66148 5.93255 3.98253 5.93255 3.12378ZM4.9842 3.40252C4.9776 3.9204 4.83247 4.33383 4.54878 4.6428 4.2651 4.95286 3.88961 5.1079 3.42231 5.1079 2.89343 5.1079 2.47012 4.95836 2.15234 4.65929 1.83457 4.36022 1.6515 3.93909 1.60312 3.39592L4.9842 3.40252Z" transform="matrix(1 0 0 -1.0015 124.383 47.3352)"/><path d="M3.9171 8.02057 3.9171 7.23056 3.00998 7.23056C2.67023 7.23056 2.43383 7.16183 2.30078 7.02439 2.16884 6.88696 2.10286 6.63956 2.10286 6.28221L2.10286 5.77257 3.66476 5.77257 3.66476 5.03533 2.10286 5.03533 2.10286 0 1.14957 0 1.14957 5.03533 0.242448 5.03533 0.242448 5.77257 1.14957 5.77257 1.14957 6.175C1.14957 6.81712 1.2991 7.28498 1.59818 7.57856 1.89725 7.87324 2.37116 8.02057 3.01988 8.02057L3.9171 8.02057Z" transform="matrix(1 0 0 -1.0015 130.877 47.3352)"/><path d="M0.994531 8.02057 1.94288 8.02057 1.94288 0 0.994531 0 0.994531 8.02057Z" transform="matrix(1 0 0 -1.0015 134.593 47.3352)"/><path d="M5.93255 3.12378 5.93255 2.66033 1.57179 2.66033C1.61357 2.0072 1.81039 1.50966 2.16224 1.16771 2.51409 0.825753 3.00449 0.654774 3.63342 0.654774 3.99737 0.654774 4.35032 0.699306 4.69227 0.788368 5.03422 0.877431 5.37398 1.01157 5.71154 1.1908L5.71154 0.293576C5.37068 0.149537 5.02159 0.0395833 4.66424-0.0362847 4.30688-0.112153 3.94459-0.150087 3.57734-0.150087 2.65593-0.150087 1.92639 0.11765 1.38872 0.653125 0.851042 1.1897 0.582205 1.91539 0.582205 2.83021 0.582205 3.77472 0.837298 4.52404 1.34748 5.07821 1.85766 5.63348 2.54598 5.91111 3.41241 5.91111 4.18869 5.91111 4.80278 5.66096 5.25469 5.16068 5.7066 4.66148 5.93255 3.98253 5.93255 3.12378ZM4.9842 3.40252C4.9776 3.9204 4.83247 4.33383 4.54878 4.6428 4.2651 4.95286 3.88961 5.1079 3.42231 5.1079 2.89343 5.1079 2.47012 4.95836 2.15234 4.65929 1.83457 4.36022 1.6515 3.93909 1.60312 3.39592L4.9842 3.40252Z" transform="matrix(1 0 0 -1.0015 137.526 47.3352)"/><path d="M5.14913 5.55156 5.14913 4.66424C4.88084 4.81267 4.612 4.92372 4.34262 4.9974 4.07324 5.07107 3.80111 5.1079 3.52622 5.1079 2.91048 5.1079 2.43218 4.91274 2.09132 4.5224 1.75156 4.13316 1.58168 3.58613 1.58168 2.88134 1.58168 2.17654 1.75156 1.62896 2.09132 1.23863 2.43218 0.849392 2.91048 0.654774 3.52622 0.654774 3.80111 0.654774 4.07324 0.691608 4.34262 0.765278 4.612 0.838947 4.88084 0.95 5.14913 1.09844L5.14913 0.221007C4.88414 0.0978587 4.60981 0.00549768 4.32613-0.0560764 4.04355-0.11875 3.74227-0.150087 3.42231-0.150087 2.55258-0.150087 1.86152 0.123148 1.34913 0.669618 0.837847 1.21609 0.582205 1.95332 0.582205 2.88134 0.582205 3.82255 0.840597 4.56252 1.35738 5.1013 1.87526 5.64117 2.58446 5.91111 3.48498 5.91111 3.77637 5.91111 4.06113 5.88088 4.33932 5.8204 4.61751 5.76102 4.88744 5.67142 5.14913 5.55156Z" transform="matrix(1 0 0 -1.0015 144.02 47.3352)"/><path d="M1.93299 7.41198 1.93299 5.77257 3.88576 5.77257 3.88576 5.03533 1.93299 5.03533 1.93299 1.90165C1.93299 1.43105 1.99731 1.12867 2.12595 0.994531 2.2546 0.860388 2.51684 0.793316 2.91267 0.793316L3.88576 0.793316 3.88576 0 2.91267 0C2.18038 0 1.67515 0.136343 1.39696 0.409028 1.11878 0.682813 0.979688 1.18035 0.979688 1.90165L0.979688 5.03533 0.283681 5.03533 0.283681 5.77257 0.979688 5.77257 0.979688 7.41198 1.93299 7.41198Z" transform="matrix(1 0 0 -1.0015 149.823 47.3352)"/><path d="M5.93255 3.12378 5.93255 2.66033 1.57179 2.66033C1.61357 2.0072 1.81039 1.50966 2.16224 1.16771 2.51409 0.825753 3.00449 0.654774 3.63342 0.654774 3.99737 0.654774 4.35032 0.699306 4.69227 0.788368 5.03422 0.877431 5.37398 1.01157 5.71154 1.1908L5.71154 0.293576C5.37068 0.149537 5.02159 0.0395833 4.66424-0.0362847 4.30688-0.112153 3.94459-0.150087 3.57734-0.150087 2.65593-0.150087 1.92639 0.11765 1.38872 0.653125 0.851042 1.1897 0.582205 1.91539 0.582205 2.83021 0.582205 3.77472 0.837298 4.52404 1.34748 5.07821 1.85766 5.63348 2.54598 5.91111 3.41241 5.91111 4.18869 5.91111 4.80278 5.66096 5.25469 5.16068 5.7066 4.66148 5.93255 3.98253 5.93255 3.12378ZM4.9842 3.40252C4.9776 3.9204 4.83247 4.33383 4.54878 4.6428 4.2651 4.95286 3.88961 5.1079 3.42231 5.1079 2.89343 5.1079 2.47012 4.95836 2.15234 4.65929 1.83457 4.36022 1.6515 3.93909 1.60312 3.39592L4.9842 3.40252Z" transform="matrix(1 0 0 -1.0015 153.962 47.3352)"/><path d="M4.79288 4.89679 4.79288 8.02057 5.74123 8.02057 5.74123 0 4.79288 0 4.79288 0.865885C4.59386 0.52283 4.34208 0.267737 4.0375 0.100608 3.73403-0.0665219 3.36899-0.150087 2.94236-0.150087 2.24525-0.150087 1.67734 0.128096 1.23863 0.684462 0.801013 1.24193 0.582205 1.97422 0.582205 2.88134 0.582205 3.78846 0.801013 4.5202 1.23863 5.07656 1.67734 5.63292 2.24525 5.91111 2.94236 5.91111 3.36899 5.91111 3.73403 5.82754 4.0375 5.66042 4.34208 5.49438 4.59386 5.23984 4.79288 4.89679ZM1.56189 2.88134C1.56189 2.18422 1.70538 1.63721 1.99236 1.24028 2.27934 0.843344 2.67352 0.644879 3.17491 0.644879 3.6763 0.644879 4.07103 0.843344 4.35911 1.24028 4.64829 1.63721 4.79288 2.18422 4.79288 2.88134 4.79288 3.57845 4.64829 4.12546 4.35911 4.5224 4.07103 4.91933 3.6763 5.11779 3.17491 5.11779 2.67352 5.11779 2.27934 4.91933 1.99236 4.5224 1.70538 4.12546 1.56189 3.57845 1.56189 2.88134Z" transform="matrix(1 0 0 -1.0015 160.456 47.3352)"/><path d="M0.443663 5.77257 1.39201 5.77257 2.57786 1.26832 3.75712 5.77257 4.87535 5.77257 6.0612 1.26832 7.2421 5.77257 8.19045 5.77257 6.67969 0 5.56146 0 4.31953 4.73186 3.07266 0 1.95278 0 0.443663 5.77257Z" transform="matrix(1 0 0 -1.0015 170.512 47.3352)"/><path d="M3.61858 2.90113C2.85219 2.90113 2.32112 2.81372 2.02535 2.63889 1.72958 2.46406 1.58168 2.16499 1.58168 1.74167 1.58168 1.40521 1.69273 1.13802 1.91484 0.940104 2.13696 0.743288 2.43822 0.644879 2.81866 0.644879 3.34534 0.644879 3.76756 0.83125 4.08533 1.20399 4.4031 1.57674 4.56198 2.07207 4.56198 2.69002L4.56198 2.90113 3.61858 2.90113ZM5.51033 3.29366 5.51033 0 4.56198 0 4.56198 0.875781C4.34538 0.526128 4.07543 0.267737 3.75217 0.100608 3.42891-0.0665219 3.03362-0.150087 2.56632-0.150087 1.97587-0.150087 1.50582 0.0159433 1.15616 0.348003 0.807611 0.680063 0.633333 1.12428 0.633333 1.68064 0.633333 2.32936 0.850492 2.81866 1.28481 3.14852 1.72023 3.47839 2.36895 3.64332 3.23099 3.64332L4.56198 3.64332 4.56198 3.73733C4.56198 4.17385 4.41849 4.51139 4.13151 4.75 3.84453 4.98861 3.44156 5.1079 2.92257 5.1079 2.59271 5.1079 2.27109 5.06832 1.95773 4.98915 1.64546 4.90998 1.34528 4.79123 1.0572 4.6329L1.0572 5.51033C1.40356 5.64447 1.74002 5.74453 2.06658 5.8105 2.39314 5.87758 2.71091 5.91111 3.01988 5.91111 3.85553 5.91111 4.47951 5.69451 4.89184 5.26128 5.30417 4.82917 5.51033 4.17329 5.51033 3.29366Z" transform="matrix(1 0 0 -1.0015 179.145 47.3352)"/><path d="M0.315017 5.77257 1.31944 5.77257 3.12378 0.928559 4.92812 5.77257 5.93255 5.77257 3.76701 0 2.47891 0 0.315017 5.77257Z" transform="matrix(1 0 0 -1.0015 185.613 47.3352)"/><path d="M5.93255 3.12378 5.93255 2.66033 1.57179 2.66033C1.61357 2.0072 1.81039 1.50966 2.16224 1.16771 2.51409 0.825753 3.00449 0.654774 3.63342 0.654774 3.99737 0.654774 4.35032 0.699306 4.69227 0.788368 5.03422 0.877431 5.37398 1.01157 5.71154 1.1908L5.71154 0.293576C5.37068 0.149537 5.02159 0.0395833 4.66424-0.0362847 4.30688-0.112153 3.94459-0.150087 3.57734-0.150087 2.65593-0.150087 1.92639 0.11765 1.38872 0.653125 0.851042 1.1897 0.582205 1.91539 0.582205 2.83021 0.582205 3.77472 0.837298 4.52404 1.34748 5.07821 1.85766 5.63348 2.54598 5.91111 3.41241 5.91111 4.18869 5.91111 4.80278 5.66096 5.25469 5.16068 5.7066 4.66148 5.93255 3.98253 5.93255 3.12378ZM4.9842 3.40252C4.9776 3.9204 4.83247 4.33383 4.54878 4.6428 4.2651 4.95286 3.88961 5.1079 3.42231 5.1079 2.89343 5.1079 2.47012 4.95836 2.15234 4.65929 1.83457 4.36022 1.6515 3.93909 1.60312 3.39592L4.9842 3.40252Z" transform="matrix(1 0 0 -1.0015 191.86 47.3352)"/><path d="M90.725 59.0632 101.281 59.0632 111.836 59.0632" stroke="#008000" stroke-width="1.97917" stroke-linecap="square" stroke-linejoin="round" fill="none" transform="scale(1 1.0015)"/><path d="M1.93299 7.41198 1.93299 5.77257 3.88576 5.77257 3.88576 5.03533 1.93299 5.03533 1.93299 1.90165C1.93299 1.43105 1.99731 1.12867 2.12595 0.994531 2.2546 0.860388 2.51684 0.793316 2.91267 0.793316L3.88576 0.793316 3.88576 0 2.91267 0C2.18038 0 1.67515 0.136343 1.39696 0.409028 1.11878 0.682813 0.979688 1.18035 0.979688 1.90165L0.979688 5.03533 0.283681 5.03533 0.283681 5.77257 0.979688 5.77257 0.979688 7.41198 1.93299 7.41198Z" transform="matrix(1 0 0 -1.0015 120.281 62.852)"/><path d="M4.33932 4.88689C4.23266 4.94846 4.11667 4.99355 3.99132 5.02214 3.86597 5.05182 3.72797 5.06667 3.57734 5.06667 3.04078 5.06667 2.62899 4.89238 2.34201 4.54384 2.05503 4.19529 1.91155 3.69444 1.91155 3.04132L1.91155 0 0.958247 0 0.958247 5.77257 1.91155 5.77257 1.91155 4.87535C2.11166 5.2261 2.37116 5.48613 2.69002 5.65547 3.00998 5.82589 3.39867 5.91111 3.85608 5.91111 3.92094 5.91111 3.99297 5.90671 4.07214 5.89792 4.1513 5.89021 4.23872 5.87758 4.33437 5.85998L4.33932 4.88689Z" transform="matrix(1 0 0 -1.0015 124.419 62.852)"/><path d="M3.61858 2.90113C2.85219 2.90113 2.32112 2.81372 2.02535 2.63889 1.72958 2.46406 1.58168 2.16499 1.58168 1.74167 1.58168 1.40521 1.69273 1.13802 1.91484 0.940104 2.13696 0.743288 2.43822 0.644879 2.81866 0.644879 3.34534 0.644879 3.76756 0.83125 4.08533 1.20399 4.4031 1.57674 4.56198 2.07207 4.56198 2.69002L4.56198 2.90113 3.61858 2.90113ZM5.51033 3.29366 5.51033 0 4.56198 0 4.56198 0.875781C4.34538 0.526128 4.07543 0.267737 3.75217 0.100608 3.42891-0.0665219 3.03362-0.150087 2.56632-0.150087 1.97587-0.150087 1.50582 0.0159433 1.15616 0.348003 0.807611 0.680063 0.633333 1.12428 0.633333 1.68064 0.633333 2.32936 0.850492 2.81866 1.28481 3.14852 1.72023 3.47839 2.36895 3.64332 3.23099 3.64332L4.56198 3.64332 4.56198 3.73733C4.56198 4.17385 4.41849 4.51139 4.13151 4.75 3.84453 4.98861 3.44156 5.1079 2.92257 5.1079 2.59271 5.1079 2.27109 5.06832 1.95773 4.98915 1.64546 4.90998 1.34528 4.79123 1.0572 4.6329L1.0572 5.51033C1.40356 5.64447 1.74002 5.74453 2.06658 5.8105 2.39314 5.87758 2.71091 5.91111 3.01988 5.91111 3.85553 5.91111 4.47951 5.69451 4.89184 5.26128 5.30417 4.82917 5.51033 4.17329 5.51033 3.29366Z" transform="matrix(1 0 0 -1.0015 128.759 62.852)"/><path d="M5.79401 3.48498 5.79401 0 4.84566 0 4.84566 3.45365C4.84566 4.00011 4.739 4.40859 4.52569 4.67908 4.31239 4.95067 3.99297 5.08646 3.56745 5.08646 3.05506 5.08646 2.65098 4.92318 2.35521 4.59661 2.05944 4.27116 1.91155 3.82639 1.91155 3.26233L1.91155 0 0.958247 0 0.958247 5.77257 1.91155 5.77257 1.91155 4.87535C2.13915 5.22281 2.40634 5.48229 2.71311 5.65382 3.02098 5.82535 3.37613 5.91111 3.77856 5.91111 4.44158 5.91111 4.94297 5.70605 5.28273 5.29592 5.62359 4.88579 5.79401 4.28214 5.79401 3.48498Z" transform="matrix(1 0 0 -1.0015 135.227 62.852)"/><path d="M4.67413 5.60269 4.67413 4.70547C4.40694 4.84291 4.12876 4.94572 3.83958 5.01389 3.5515 5.08316 3.25243 5.11779 2.94236 5.11779 2.47176 5.11779 2.11881 5.04577 1.88351 4.90174 1.64821 4.7577 1.53056 4.54108 1.53056 4.25191 1.53056 4.03201 1.61467 3.85938 1.7829 3.73403 1.95113 3.60868 2.28978 3.48939 2.79887 3.37613L3.12378 3.30356C3.7967 3.15953 4.275 2.9561 4.55868 2.69332 4.84236 2.43053 4.9842 2.06383 4.9842 1.59323 4.9842 1.05666 4.77199 0.631684 4.34757 0.318316 3.92315 0.00604746 3.33984-0.150087 2.59766-0.150087 2.28869-0.150087 1.96652-0.11985 1.63116-0.059375 1.2958 0.00109954 0.942854 0.0912615 0.572309 0.211111L0.572309 1.1908C0.923062 1.00827 1.26832 0.871383 1.60807 0.780122 1.94783 0.689959 2.28483 0.644879 2.6191 0.644879 3.06551 0.644879 3.40857 0.721296 3.64826 0.874132 3.88906 1.02697 4.00946 1.24248 4.00946 1.52066 4.00946 1.77795 3.92259 1.97532 3.74887 2.11276 3.57624 2.2502 3.19581 2.3827 2.60755 2.51024L2.27769 2.58776C1.69054 2.71091 1.26612 2.90058 1.00443 3.15677 0.743837 3.41296 0.613542 3.76426 0.613542 4.21068 0.613542 4.75384 0.805961 5.17277 1.1908 5.46745 1.57564 5.76322 2.12211 5.91111 2.83021 5.91111 3.17986 5.91111 3.50918 5.88527 3.81814 5.83359 4.12821 5.78301 4.41354 5.70605 4.67413 5.60269Z" transform="matrix(1 0 0 -1.0015 141.917 62.852)"/><path d="M5.48889 4.66424C5.72639 5.09086 6.01007 5.40532 6.33993 5.60764 6.66979 5.80996 7.05792 5.91111 7.50434 5.91111 8.10579 5.91111 8.56979 5.70054 8.89635 5.27943 9.22292 4.8594 9.3862 4.26126 9.3862 3.48498L9.3862 0 8.4329 0 8.4329 3.45365C8.4329 4.00671 8.33449 4.41684 8.13767 4.68403 7.94195 4.95232 7.64343 5.08646 7.2421 5.08646 6.75061 5.08646 6.36192 4.92318 6.07604 4.59661 5.79126 4.27116 5.64887 3.82639 5.64887 3.26233L5.64887 0 4.69557 0 4.69557 3.45365C4.69557 4.01001 4.59772 4.42124 4.402 4.68733 4.20627 4.95341 3.90391 5.08646 3.49488 5.08646 3.00998 5.08646 2.62459 4.92263 2.33872 4.59497 2.05393 4.2673 1.91155 3.82309 1.91155 3.26233L1.91155 0 0.958247 0 0.958247 5.77257 1.91155 5.77257 1.91155 4.87535C2.12815 5.2294 2.38765 5.49054 2.69002 5.65877 2.99238 5.827 3.35139 5.91111 3.76701 5.91111 4.18704 5.91111 4.54384 5.80445 4.83741 5.59115 5.13099 5.37893 5.34815 5.06997 5.48889 4.66424Z" transform="matrix(1 0 0 -1.0015 147.417 62.852)"/><path d="M0.994531 5.77257 1.94288 5.77257 1.94288 0 0.994531 0 0.994531 5.77257ZM0.994531 8.02057 1.94288 8.02057 1.94288 6.81823 0.994531 6.81823 0.994531 8.02057Z" transform="matrix(1 0 0 -1.0015 157.699 62.852)"/><path d="M1.93299 7.41198 1.93299 5.77257 3.88576 5.77257 3.88576 5.03533 1.93299 5.03533 1.93299 1.90165C1.93299 1.43105 1.99731 1.12867 2.12595 0.994531 2.2546 0.860388 2.51684 0.793316 2.91267 0.793316L3.88576 0.793316 3.88576 0 2.91267 0C2.18038 0 1.67515 0.136343 1.39696 0.409028 1.11878 0.682813 0.979688 1.18035 0.979688 1.90165L0.979688 5.03533 0.283681 5.03533 0.283681 5.77257 0.979688 5.77257 0.979688 7.41198 1.93299 7.41198Z" transform="matrix(1 0 0 -1.0015 160.632 62.852)"/><path d="M1.93299 7.41198 1.93299 5.77257 3.88576 5.77257 3.88576 5.03533 1.93299 5.03533 1.93299 1.90165C1.93299 1.43105 1.99731 1.12867 2.12595 0.994531 2.2546 0.860388 2.51684 0.793316 2.91267 0.793316L3.88576 0.793316 3.88576 0 2.91267 0C2.18038 0 1.67515 0.136343 1.39696 0.409028 1.11878 0.682813 0.979688 1.18035 0.979688 1.90165L0.979688 5.03533 0.283681 5.03533 0.283681 5.77257 0.979688 5.77257 0.979688 7.41198 1.93299 7.41198Z" transform="matrix(1 0 0 -1.0015 164.771 62.852)"/><path d="M5.93255 3.12378 5.93255 2.66033 1.57179 2.66033C1.61357 2.0072 1.81039 1.50966 2.16224 1.16771 2.51409 0.825753 3.00449 0.654774 3.63342 0.654774 3.99737 0.654774 4.35032 0.699306 4.69227 0.788368 5.03422 0.877431 5.37398 1.01157 5.71154 1.1908L5.71154 0.293576C5.37068 0.149537 5.02159 0.0395833 4.66424-0.0362847 4.30688-0.112153 3.94459-0.150087 3.57734-0.150087 2.65593-0.150087 1.92639 0.11765 1.38872 0.653125 0.851042 1.1897 0.582205 1.91539 0.582205 2.83021 0.582205 3.77472 0.837298 4.52404 1.34748 5.07821 1.85766 5.63348 2.54598 5.91111 3.41241 5.91111 4.18869 5.91111 4.80278 5.66096 5.25469 5.16068 5.7066 4.66148 5.93255 3.98253 5.93255 3.12378ZM4.9842 3.40252C4.9776 3.9204 4.83247 4.33383 4.54878 4.6428 4.2651 4.95286 3.88961 5.1079 3.42231 5.1079 2.89343 5.1079 2.47012 4.95836 2.15234 4.65929 1.83457 4.36022 1.6515 3.93909 1.60312 3.39592L4.9842 3.40252Z" transform="matrix(1 0 0 -1.0015 168.909 62.852)"/><path d="M4.79288 4.89679 4.79288 8.02057 5.74123 8.02057 5.74123 0 4.79288 0 4.79288 0.865885C4.59386 0.52283 4.34208 0.267737 4.0375 0.100608 3.73403-0.0665219 3.36899-0.150087 2.94236-0.150087 2.24525-0.150087 1.67734 0.128096 1.23863 0.684462 0.801013 1.24193 0.582205 1.97422 0.582205 2.88134 0.582205 3.78846 0.801013 4.5202 1.23863 5.07656 1.67734 5.63292 2.24525 5.91111 2.94236 5.91111 3.36899 5.91111 3.73403 5.82754 4.0375 5.66042 4.34208 5.49438 4.59386 5.23984 4.79288 4.89679ZM1.56189 2.88134C1.56189 2.18422 1.70538 1.63721 1.99236 1.24028 2.27934 0.843344 2.67352 0.644879 3.17491 0.644879 3.6763 0.644879 4.07103 0.843344 4.35911 1.24028 4.64829 1.63721 4.79288 2.18422 4.79288 2.88134 4.79288 3.57845 4.64829 4.12546 4.35911 4.5224 4.07103 4.91933 3.6763 5.11779 3.17491 5.11779 2.67352 5.11779 2.27934 4.91933 1.99236 4.5224 1.70538 4.12546 1.56189 3.57845 1.56189 2.88134Z" transform="matrix(1 0 0 -1.0015 175.403 62.852)"/><path d="M0.443663 5.77257 1.39201 5.77257 2.57786 1.26832 3.75712 5.77257 4.87535 5.77257 6.0612 1.26832 7.2421 5.77257 8.19045 5.77257 6.67969 0 5.56146 0 4.31953 4.73186 3.07266 0 1.95278 0 0.443663 5.77257Z" transform="matrix(1 0 0 -1.0015 185.459 62.852)"/><path d="M3.61858 2.90113C2.85219 2.90113 2.32112 2.81372 2.02535 2.63889 1.72958 2.46406 1.58168 2.16499 1.58168 1.74167 1.58168 1.40521 1.69273 1.13802 1.91484 0.940104 2.13696 0.743288 2.43822 0.644879 2.81866 0.644879 3.34534 0.644879 3.76756 0.83125 4.08533 1.20399 4.4031 1.57674 4.56198 2.07207 4.56198 2.69002L4.56198 2.90113 3.61858 2.90113ZM5.51033 3.29366 5.51033 0 4.56198 0 4.56198 0.875781C4.34538 0.526128 4.07543 0.267737 3.75217 0.100608 3.42891-0.0665219 3.03362-0.150087 2.56632-0.150087 1.97587-0.150087 1.50582 0.0159433 1.15616 0.348003 0.807611 0.680063 0.633333 1.12428 0.633333 1.68064 0.633333 2.32936 0.850492 2.81866 1.28481 3.14852 1.72023 3.47839 2.36895 3.64332 3.23099 3.64332L4.56198 3.64332 4.56198 3.73733C4.56198 4.17385 4.41849 4.51139 4.13151 4.75 3.84453 4.98861 3.44156 5.1079 2.92257 5.1079 2.59271 5.1079 2.27109 5.06832 1.95773 4.98915 1.64546 4.90998 1.34528 4.79123 1.0572 4.6329L1.0572 5.51033C1.40356 5.64447 1.74002 5.74453 2.06658 5.8105 2.39314 5.87758 2.71091 5.91111 3.01988 5.91111 3.85553 5.91111 4.47951 5.69451 4.89184 5.26128 5.30417 4.82917 5.51033 4.17329 5.51033 3.29366Z" transform="matrix(1 0 0 -1.0015 194.092 62.852)"/><path d="M0.315017 5.77257 1.31944 5.77257 3.12378 0.928559 4.92812 5.77257 5.93255 5.77257 3.76701 0 2.47891 0 0.315017 5.77257Z" transform="matrix(1 0 0 -1.0015 200.561 62.852)"/><path d="M5.93255 3.12378 5.93255 2.66033 1.57179 2.66033C1.61357 2.0072 1.81039 1.50966 2.16224 1.16771 2.51409 0.825753 3.00449 0.654774 3.63342 0.654774 3.99737 0.654774 4.35032 0.699306 4.69227 0.788368 5.03422 0.877431 5.37398 1.01157 5.71154 1.1908L5.71154 0.293576C5.37068 0.149537 5.02159 0.0395833 4.66424-0.0362847 4.30688-0.112153 3.94459-0.150087 3.57734-0.150087 2.65593-0.150087 1.92639 0.11765 1.38872 0.653125 0.851042 1.1897 0.582205 1.91539 0.582205 2.83021 0.582205 3.77472 0.837298 4.52404 1.34748 5.07821 1.85766 5.63348 2.54598 5.91111 3.41241 5.91111 4.18869 5.91111 4.80278 5.66096 5.25469 5.16068 5.7066 4.66148 5.93255 3.98253 5.93255 3.12378ZM4.9842 3.40252C4.9776 3.9204 4.83247 4.33383 4.54878 4.6428 4.2651 4.95286 3.88961 5.1079 3.42231 5.1079 2.89343 5.1079 2.47012 4.95836 2.15234 4.65929 1.83457 4.36022 1.6515 3.93909 1.60312 3.39592L4.9842 3.40252Z" transform="matrix(1 0 0 -1.0015 206.807 62.852)"/></g></svg>