<?xml version="1.0" encoding="UTF-8"?>
<svg xmlns="http://www.w3.org/2000/svg" xmlns:xlink="http://www.w3.org/1999/xlink" width="274pt" height="102pt" viewBox="0 0 274 102" version="1.1">
<defs>
<clipPath id="clip1">
  <path d="M 41 0.0078125 L 73 0.0078125 L 73 102 L 41 102 Z M 41 0.0078125 "/>
</clipPath>
<clipPath id="clip2">
  <path d="M 254 32 L 273.125 32 L 273.125 70 L 254 70 Z M 254 32 "/>
</clipPath>
</defs>
<g id="surface1">
<path style=" stroke:none;fill-rule:nonzero;fill:rgb(33.988953%,78.742981%,95.845032%);fill-opacity:1;" d="M 80.554688 84.613281 L 80.042969 84.253906 C 69.164062 76.648438 62.667969 64.242188 62.667969 51.070312 C 62.667969 37.84375 69.167969 25.390625 80.050781 17.753906 L 80.5625 17.394531 L 84.484375 23.050781 L 83.976562 23.40625 C 74.953125 29.75 69.5625 40.089844 69.5625 51.070312 C 69.5625 61.996094 74.945312 72.285156 83.96875 78.597656 L 84.472656 78.953125 L 80.554688 84.613281 "/>
<g clip-path="url(#clip1)" clip-rule="nonzero">
<path style=" stroke:none;fill-rule:nonzero;fill:rgb(33.988953%,78.742981%,95.845032%);fill-opacity:1;" d="M 68.507812 102 L 67.996094 101.644531 C 51.398438 90.054688 41.492188 71.148438 41.492188 51.070312 C 41.492188 30.941406 51.40625 11.988281 68.007812 0.367188 L 68.519531 0.0078125 L 72.441406 5.671875 L 71.933594 6.027344 C 57.1875 16.347656 48.382812 33.1875 48.382812 51.070312 C 48.382812 68.902344 57.183594 85.691406 71.921875 95.984375 L 72.429688 96.339844 L 68.507812 102 "/>
</g>
<path style=" stroke:none;fill-rule:nonzero;fill:rgb(33.988953%,78.742981%,95.845032%);fill-opacity:1;" d="M 92.582031 67.253906 L 92.070312 66.894531 C 86.921875 63.3125 83.847656 57.394531 83.847656 51.070312 C 83.847656 44.699219 86.925781 38.734375 92.078125 35.113281 L 92.589844 34.757812 L 96.539062 40.453125 L 96.054688 40.8125 C 92.933594 43.144531 91.144531 46.855469 91.144531 51 C 91.144531 55.160156 92.929688 58.875 96.046875 61.195312 L 96.53125 61.554688 L 92.582031 67.253906 "/>
<path style=" stroke:none;fill-rule:nonzero;fill:rgb(14.808655%,28.718567%,37.922668%);fill-opacity:1;" d="M 103.160156 32.238281 C 101.726562 32.238281 100.339844 32.410156 99.003906 32.710938 L 102.597656 37.894531 C 102.789062 37.886719 102.964844 37.839844 103.160156 37.839844 C 110.652344 37.839844 115.796875 43.816406 115.796875 51.007812 C 115.796875 58.273438 110.652344 64.175781 103.160156 64.175781 C 102.960938 64.175781 102.78125 64.125 102.585938 64.117188 L 98.996094 69.300781 C 100.335938 69.601562 101.722656 69.773438 103.160156 69.773438 C 113.53125 69.773438 121.855469 61.527344 121.855469 51.082031 C 121.855469 40.640625 113.605469 32.238281 103.160156 32.238281 "/>
<path style=" stroke:none;fill-rule:nonzero;fill:rgb(14.808655%,28.718567%,37.922668%);fill-opacity:1;" d="M 25.828125 63.640625 C 22.910156 67.597656 18.257812 69.542969 12.425781 69.542969 C 4.859375 69.542969 0 64.679688 0 58.367188 C 0 51.976562 5.070312 47.949219 13.671875 47.878906 L 25.6875 47.878906 L 25.6875 45.726562 C 25.6875 40.382812 22.355469 37.191406 15.894531 37.191406 C 11.871094 37.191406 8.125 38.714844 4.308594 41.355469 L 2.011719 37.398438 C 6.730469 34.273438 10.691406 32.46875 16.941406 32.46875 C 25.964844 32.46875 30.964844 37.257812 31.035156 45.101562 L 31.101562 69.265625 L 25.828125 69.265625 Z M 25.753906 56.628906 L 25.753906 52.253906 L 14.371094 52.253906 C 8.265625 52.253906 5.070312 54.125 5.070312 58.15625 C 5.070312 62.179688 8.332031 64.820312 13.472656 64.820312 C 19.648438 64.820312 24.371094 61.695312 25.753906 56.628906 "/>
<path style=" stroke:none;fill-rule:nonzero;fill:rgb(14.808655%,28.718567%,37.922668%);fill-opacity:1;" d="M 160.792969 46.699219 L 160.792969 69.265625 L 155.378906 69.265625 L 155.378906 48.15625 C 155.378906 41.699219 151.496094 37.886719 145.035156 37.886719 C 137.816406 37.953125 133.371094 42.671875 132.75 49.613281 L 132.75 69.265625 L 127.335938 69.265625 L 127.335938 32.679688 L 132.75 32.679688 L 132.75 40.730469 C 135.316406 35.175781 140.246094 32.535156 146.910156 32.46875 C 155.65625 32.46875 160.792969 37.886719 160.792969 46.699219 "/>
<path style=" stroke:none;fill-rule:nonzero;fill:rgb(14.808655%,28.718567%,37.922668%);fill-opacity:1;" d="M 204.417969 53.085938 L 174.566406 53.085938 C 175.535156 60.238281 180.75 64.746094 187.828125 64.746094 C 192.339844 64.746094 196.296875 63.152344 199.144531 60.167969 L 202.128906 63.363281 C 198.65625 67.25 193.519531 69.472656 187.40625 69.472656 C 176.652344 69.472656 169.222656 61.90625 169.222656 51.003906 C 169.222656 40.105469 176.71875 32.539062 187.339844 32.539062 C 199.144531 32.46875 204.976562 40.660156 204.417969 53.085938 M 199.5625 48.644531 C 199.210938 41.632812 194.492188 37.191406 187.339844 37.191406 C 180.398438 37.191406 175.402344 41.699219 174.566406 48.644531 L 199.5625 48.644531 "/>
<path style=" stroke:none;fill-rule:nonzero;fill:rgb(14.808655%,28.718567%,37.922668%);fill-opacity:1;" d="M 245.261719 53.085938 L 215.40625 53.085938 C 216.378906 60.238281 221.585938 64.746094 228.667969 64.746094 C 233.179688 64.746094 237.140625 63.152344 239.984375 60.167969 L 242.972656 63.363281 C 239.5 67.25 234.359375 69.472656 228.257812 69.472656 C 217.492188 69.472656 210.066406 61.90625 210.066406 51.003906 C 210.066406 40.105469 217.5625 32.539062 228.183594 32.539062 C 239.984375 32.46875 245.820312 40.660156 245.261719 53.085938 M 240.402344 48.644531 C 240.054688 41.632812 235.332031 37.191406 228.183594 37.191406 C 221.242188 37.191406 216.246094 41.699219 215.40625 48.644531 L 240.402344 48.644531 "/>
<g clip-path="url(#clip2)" clip-rule="nonzero">
<path style=" stroke:none;fill-rule:nonzero;fill:rgb(14.808655%,28.718567%,37.922668%);fill-opacity:1;" d="M 259.785156 41.042969 C 262.253906 35.613281 266.839844 32.648438 273.125 32.578125 L 273.125 38.15625 C 265.289062 38.011719 260.414062 42.882812 259.785156 50.222656 L 259.785156 69.988281 L 254.277344 69.988281 L 254.277344 32.789062 L 259.785156 32.789062 L 259.785156 41.042969 "/>
</g>
</g>
</svg>
